<svg width="152" height="56" viewBox="0 0 152 56" fill="none" xmlns="http://www.w3.org/2000/svg">
<path fill-rule="evenodd" clip-rule="evenodd" d="M83.8966 13.9951C83.8827 16.7735 83.8687 19.5509 83.8569 22.3283C83.8537 22.9394 83.8644 22.9533 84.4073 22.6954C85.9395 21.9654 87.5671 21.7921 89.2162 21.989C90.9039 22.1902 92.2934 23.04 93.3964 24.3222C94.6281 25.7542 95.3223 27.426 95.5444 29.2958C95.6828 30.4677 95.7246 31.6461 95.5862 32.817C95.2289 35.8405 94.083 38.4466 91.479 40.2361C90.1389 41.1565 88.6433 41.6767 87.0328 41.8822C86.9631 41.8918 86.8536 41.8501 86.8461 41.9838C86.4534 41.9838 86.0597 41.9838 85.6648 41.9838C85.6477 41.941 85.6294 41.9475 85.6123 41.9838C84.6638 41.9838 83.7153 41.9838 82.769 41.9838C82.7668 41.8436 82.652 41.8939 82.5866 41.8864C81.1703 41.7088 79.7658 41.4626 78.3678 41.1747C78.1393 41.1266 78.15 41.0013 78.1522 40.8344C78.2197 36.6978 78.2734 32.5612 78.2798 28.4235C78.2841 25.812 78.2627 23.1995 78.1951 20.5891C78.1725 19.7029 78.1897 18.8103 77.8947 17.9455C77.6457 17.2113 77.2037 16.7361 76.4161 16.6216C76.2928 16.6023 76.1726 16.567 76.0514 16.5381C75.5964 16.4257 75.4398 16.1292 75.5771 15.6722C75.6179 15.5363 75.7273 15.5267 75.825 15.5074C76.7337 15.3233 77.6414 15.1392 78.5524 14.9669C80.0491 14.6822 81.5491 14.4093 83.0458 14.1193C83.1488 14.0989 83.3162 14.1878 83.3591 13.9962C83.4127 13.9962 83.4675 13.9962 83.519 13.9962C83.5072 14.0197 83.5125 14.0411 83.5404 14.0379C83.5533 14.0369 83.563 14.0112 83.5737 13.9962C83.682 13.9951 83.7893 13.9951 83.8966 13.9951ZM83.8419 32.1609C83.8644 32.1609 83.8859 32.1598 83.9074 32.1598C83.9074 33.9525 83.8977 35.7452 83.9117 37.5358C83.9181 38.3631 83.9728 39.1926 83.9996 40.021C84.0061 40.2489 84.1134 40.3635 84.3408 40.3774C84.4288 40.3827 84.5179 40.3977 84.6069 40.4073C85.7871 40.5422 86.7689 40.1729 87.5403 39.2653C88.0618 38.6542 88.4362 37.9575 88.7248 37.2136C89.7559 34.554 89.889 31.7991 89.5102 29.01C89.3621 27.9226 89.0242 26.8727 88.4244 25.9351C87.7163 24.8295 86.7871 24.0782 85.3719 24.1777C84.9513 24.2066 84.5436 24.2847 84.138 24.3992C83.9342 24.456 83.8816 24.5502 83.8773 24.7503C83.8162 27.2216 83.8494 29.6917 83.8419 32.1609ZM22.8479 15.8146C23.4788 15.852 24.1043 15.9205 24.7105 16.11C25.6386 16.4032 26.0334 17.1439 26.277 17.9958C26.5484 18.9462 26.6117 19.9276 26.6493 20.9059C26.8059 25.0147 26.7738 29.1256 26.6997 33.2365C26.6761 34.5626 26.6311 35.8918 26.4379 37.2094C26.3671 37.6931 26.2684 38.1726 26.0699 38.6243C25.7427 39.3692 25.2019 39.8508 24.3865 40.0017C24.0356 40.067 23.6891 40.1547 23.3361 40.2061C23.1569 40.2307 23.0271 40.3688 22.8479 40.3774C22.8479 40.448 22.8479 40.5197 22.8479 40.5903C22.8543 40.6032 22.8618 40.615 22.8661 40.6289C22.8672 40.6321 22.8543 40.6396 22.8479 40.6449C22.8479 40.8772 22.8479 41.1094 22.8479 41.3406C22.953 41.4969 23.1161 41.4819 23.2728 41.483C25.0871 41.4915 26.9025 41.5033 28.7179 41.5033C31.3284 41.5033 33.9388 41.4937 36.5492 41.4915C36.7799 41.4915 36.9419 41.4562 36.9623 41.1726C37.0085 40.5465 36.9409 40.3249 36.6308 40.2618C36.2467 40.1847 35.8615 40.0959 35.472 40.0563C34.354 39.9439 33.6974 39.3092 33.383 38.27C33.3133 38.0399 33.251 37.8076 33.2038 37.5732C33.0064 36.5918 32.971 35.5932 32.9152 34.5979C32.8111 32.7624 32.7961 30.9258 32.7918 29.0892C32.7918 28.9083 32.8573 28.8644 33.0268 28.8709C34.0182 28.904 35.0096 28.934 35.9967 29.0367C36.6351 29.1042 37.149 29.3846 37.5428 29.893C37.7638 30.1755 37.943 30.4816 38.0921 30.807C38.3324 31.3282 38.4644 31.8815 38.5932 32.4359C38.6275 32.5826 38.6865 32.6446 38.841 32.6436C39.0728 32.6425 39.3056 32.6682 39.5373 32.6703C39.9461 32.6746 39.9011 32.7249 39.9011 32.3246C39.9021 29.4798 39.9021 26.635 39.9021 23.7892C39.9021 23.7357 39.8979 23.6811 39.9021 23.6297C39.9139 23.5024 39.856 23.4542 39.7305 23.4585C39.4891 23.467 39.2466 23.481 39.0063 23.467C38.7369 23.4478 38.6168 23.5484 38.5578 23.8202C38.4022 24.5341 38.2026 25.2373 37.8035 25.8623C37.3636 26.5505 36.7692 27.0161 35.9302 27.1006C34.9956 27.1959 34.0579 27.2119 33.1191 27.2248C32.8659 27.2291 32.7886 27.1691 32.7886 26.9048C32.7811 23.9166 32.8476 20.9305 32.9431 17.9434C32.956 17.5613 33.0032 17.1803 33.0247 16.7982C33.0332 16.6494 33.0955 16.6077 33.2403 16.6087C34.6351 16.6184 36.0299 16.6184 37.4247 16.6269C38.87 16.6366 40.1103 17.1417 41.1178 18.1863C41.6618 18.7482 42.0705 19.4075 42.4278 20.0989C42.7669 20.7571 43.0201 21.4517 43.3001 22.1345C43.4611 22.5284 43.5469 22.5648 43.9546 22.4599C44.1874 22.3989 44.4149 22.3186 44.6488 22.2641C44.7979 22.2287 44.8473 22.157 44.8419 22.005C44.7733 19.6076 44.7958 17.2081 44.6885 14.8107C44.6788 14.5784 44.6091 14.4907 44.3559 14.4907C37.8829 14.4907 31.4099 14.4821 24.9369 14.4789C24.2406 14.4789 23.5421 14.4543 22.8479 14.5303C22.8479 14.9584 22.8479 15.3865 22.8479 15.8146ZM49.6175 41.9828C49.6036 41.8329 49.4813 41.8918 49.4051 41.879C47.4942 41.5686 45.843 40.7648 44.5061 39.3478C43.3463 38.118 42.6746 36.641 42.3055 35.0174C41.7776 32.6971 41.7626 30.366 42.519 28.1045C43.6649 24.6786 46.0157 22.5166 49.6132 21.8263C51.5424 21.4549 53.4608 21.5769 55.3137 22.2555C57.8341 23.1813 59.422 25.0104 60.2889 27.503C60.9048 29.2743 61.0228 31.0992 60.8973 32.9604C60.7803 34.7038 60.2836 36.32 59.3576 37.7948C57.9735 40.0017 55.9543 41.2957 53.4179 41.8201C53.2784 41.849 53.1357 41.8618 52.9962 41.8907C52.9501 41.9004 52.861 41.879 52.89 41.9828C52.5681 41.9828 52.2462 41.9828 51.9243 41.9828C51.9061 41.9389 51.8879 41.9453 51.8707 41.9828C51.1196 41.9828 50.3675 41.9828 49.6175 41.9828ZM54.9747 32.1352C54.9951 31.4909 54.9532 30.8498 54.9189 30.2098C54.8513 28.9447 54.7043 27.6903 54.3384 26.4713C54.0273 25.4331 53.5702 24.4806 52.7559 23.7282C52.184 23.2005 51.5188 23.0464 50.7709 23.1931C50.0177 23.3397 49.5317 23.8352 49.168 24.4645C48.4416 25.721 48.2141 27.1199 48.0682 28.5316C47.933 29.8448 47.9427 31.1666 47.9556 32.4862C47.9717 34.0959 48.1294 35.6864 48.5983 37.235C48.8783 38.1619 49.2334 39.0545 49.919 39.7694C50.875 40.7648 52.2151 40.7798 53.2044 39.8262C53.9372 39.1187 54.2569 38.2079 54.4919 37.2586C54.9103 35.575 54.9414 33.853 54.9747 32.1352ZM105.141 41.9828C105.178 41.8597 105.073 41.8907 105.023 41.8822C100.875 41.2593 97.937 38.1994 97.289 34.0114C96.8619 31.2447 97.1581 28.5326 98.6387 26.0571C100.066 23.6715 102.172 22.2748 104.907 21.7974C106.264 21.5609 107.614 21.5801 108.945 21.9312C110.753 22.4096 112.12 23.4842 113.042 25.1024C114.044 26.8587 114.394 28.7767 114.382 30.777C114.381 30.9836 114.305 31.0221 114.115 31.0221C110.495 31.0328 106.875 31.051 103.256 31.0596C103.016 31.0606 102.939 31.1077 102.949 31.3635C103.004 32.8533 103.19 34.3185 103.886 35.6585C104.863 37.5315 106.347 38.7249 108.515 38.9378C109.675 39.0513 110.815 38.9946 111.912 38.5558C112.387 38.3652 112.811 38.0816 113.247 37.8216C113.454 37.6985 113.632 37.6268 113.829 37.8633C114.11 38.1994 114.165 38.3717 113.974 38.6392C113.591 39.1733 113.099 39.6003 112.591 40.0124C111.311 41.0484 109.832 41.621 108.218 41.8832C108.165 41.8918 108.063 41.8608 108.092 41.9817C107.395 41.9817 106.698 41.9817 106.001 41.9817C105.982 41.9335 105.966 41.9592 105.946 41.9817C105.822 41.9817 105.698 41.9817 105.571 41.9817C105.554 41.9689 105.538 41.9582 105.52 41.9453C105.518 41.9582 105.518 41.9689 105.516 41.9817C105.393 41.9828 105.266 41.9828 105.141 41.9828ZM105.759 29.3664C105.759 29.3439 105.759 29.3214 105.759 29.299C106.598 29.299 107.437 29.2883 108.277 29.3043C108.535 29.3097 108.601 29.2198 108.571 28.9832C108.542 28.7446 108.533 28.5048 108.52 28.264C108.472 27.2579 108.359 26.2594 108.087 25.2876C107.939 24.7631 107.747 24.2548 107.412 23.8149C106.856 23.0817 106.042 22.9373 105.259 23.4274C104.92 23.6383 104.646 23.9198 104.431 24.2515C103.453 25.7628 103.125 27.4624 102.993 29.2187C102.98 29.3964 103.061 29.421 103.214 29.4178C104.061 29.3942 104.911 29.422 105.759 29.3664ZM123.811 41.9828C123.852 41.8265 123.986 41.8961 124.077 41.88C126.067 41.53 127.834 40.7809 129.056 39.0791C129.545 38.3984 129.857 37.6364 130.036 36.8219C130.05 36.7609 130.046 36.6967 130.104 36.656C130.106 36.6539 130.116 36.6614 130.123 36.6667C130.129 36.6721 130.136 36.6796 130.142 36.686C130.142 35.9368 130.142 35.1887 130.142 34.4373C130.126 34.4266 130.1 34.4181 130.098 34.4063C130.096 34.3796 130.117 34.3731 130.142 34.3849C130.142 34.3303 130.142 34.2768 130.142 34.2244C130.056 34.1591 130.058 34.1591 130.034 34.0531C129.863 33.2729 129.525 32.574 128.993 31.9746C128.205 31.0852 127.179 30.5458 126.121 30.0567C125.078 29.5751 123.995 29.1791 122.991 28.6108C122.404 28.279 121.854 27.9033 121.425 27.3735C120.932 26.7667 120.925 26.0689 121.02 25.3432C121.167 24.2216 122.219 23.268 123.353 23.2551C124.678 23.2401 125.733 23.7881 126.548 24.8145C127.159 25.5862 127.543 26.4767 127.891 27.3853C128.181 28.1399 128.219 28.1495 128.979 27.8691C129.136 27.8113 129.179 27.7353 129.174 27.579C129.131 26.0464 129.089 24.5138 129.062 22.9801C129.057 22.7339 128.96 22.629 128.737 22.5423C127.545 22.081 126.301 21.8723 125.038 21.7343C123.588 21.5759 122.151 21.6112 120.729 21.9708C117.99 22.6633 116.004 24.8862 115.841 27.4035C115.699 29.5976 116.447 31.3475 118.344 32.5451C119.164 33.062 120.075 33.3842 120.967 33.7449C121.877 34.1131 122.788 34.478 123.604 35.0356C124.031 35.3267 124.398 35.6757 124.602 36.1626C125.226 37.6739 124.329 39.5286 122.73 39.8861C121.042 40.265 119.589 39.7844 118.448 38.4552C117.67 37.5486 117.161 36.4933 116.717 35.4006C116.471 34.797 116.415 34.7713 115.78 34.9736C115.737 34.9875 115.696 35.0078 115.654 35.0196C115.504 35.0635 115.449 35.1544 115.453 35.315C115.503 37.0178 115.543 38.7206 115.59 40.4223C115.602 40.8665 115.608 40.8729 116.04 41.0249C117.273 41.4594 118.554 41.6874 119.843 41.8811C119.92 41.8929 120.04 41.8383 120.057 41.9849C121.307 41.9828 122.56 41.9828 123.811 41.9828ZM83.5211 13.9951C83.5093 14.0187 83.5147 14.0401 83.5426 14.0369C83.5554 14.0358 83.5651 14.0101 83.5758 13.9951C83.5576 13.9951 83.5393 13.9951 83.5211 13.9951ZM130.141 34.3838C130.116 34.371 130.095 34.3774 130.097 34.4052C130.099 34.4181 130.125 34.4266 130.141 34.4363C130.141 34.4202 130.141 34.401 130.141 34.3838ZM22.8479 40.6449C22.8543 40.6396 22.8672 40.6321 22.8661 40.6289C22.8618 40.616 22.8533 40.6032 22.8479 40.5903C22.8479 40.6096 22.8479 40.6267 22.8479 40.6449ZM51.9243 41.9828C51.9061 41.9389 51.8879 41.9453 51.8707 41.9828C51.8879 41.9828 51.9061 41.9828 51.9243 41.9828ZM85.667 41.9828C85.6498 41.94 85.6316 41.9464 85.6144 41.9828C85.6316 41.9828 85.6498 41.9828 85.667 41.9828ZM105.571 41.9817C105.554 41.9689 105.538 41.9582 105.52 41.9453C105.518 41.9582 105.518 41.9689 105.516 41.9817C105.534 41.9817 105.553 41.9817 105.571 41.9817ZM106 41.9828C105.981 41.9346 105.965 41.9603 105.945 41.9828C105.965 41.9828 105.981 41.9828 106 41.9828ZM69.2179 25.5915C69.2629 24.3993 69.3069 23.2059 69.352 22.0136C69.3648 21.6733 69.3445 21.6508 69.0226 21.7107C66.4894 22.1774 63.9648 22.6911 61.4434 23.2112C60.8833 23.3258 60.8608 23.3664 60.8844 23.939C60.8855 23.9572 60.8855 23.9743 60.8855 23.9925C60.8887 24.1616 60.9702 24.2462 61.143 24.274C61.4241 24.3179 61.702 24.3885 61.9831 24.4303C62.7084 24.5405 63.1118 24.9868 63.3028 25.6611C63.4927 26.3279 63.5292 27.015 63.5528 27.6978C63.6311 30.015 63.6386 32.3332 63.5871 34.6514C63.5603 35.8983 63.5549 37.1462 63.4069 38.3877C63.2921 39.3478 62.7899 39.9482 61.8822 40.1462C61.6301 40.2018 61.3726 40.2372 61.1204 40.2907C61.0314 40.3089 60.9252 40.3131 60.9252 40.4587C60.9252 40.6899 60.9005 40.9211 60.8973 41.1522C60.8951 41.3535 60.9595 41.4937 61.2095 41.469C61.3501 41.4551 61.4949 41.483 61.6376 41.483C64.0957 41.4894 66.5538 41.4958 69.0119 41.4979C70.0848 41.499 71.1577 41.4872 72.2296 41.4926C72.4291 41.4937 72.5021 41.4337 72.4978 41.2379C72.4924 41.0067 72.5096 40.7744 72.5171 40.5433C72.5214 40.3742 72.456 40.2896 72.2693 40.2757C71.8959 40.2511 71.5236 40.2029 71.1513 40.159C70.6363 40.1002 70.1427 39.9942 69.8241 39.5211C69.6417 39.2514 69.5354 38.9518 69.47 38.635C69.2715 37.6792 69.2533 36.7053 69.2157 35.7377C69.1149 33.1712 69.1299 30.6036 69.1996 28.036C69.2125 27.5673 69.4142 27.2687 69.8219 27.0696C70.7543 26.6115 71.7296 26.5098 72.7424 26.7046C73.4141 26.8341 74.0246 27.1338 74.6404 27.4163C74.8615 27.5191 74.9849 27.4966 75.0846 27.2483C75.7027 25.7039 76.3003 24.1509 76.8464 22.5798C76.9687 22.2277 76.929 22.1378 76.6007 21.9697C76.5299 21.9333 76.4569 21.8969 76.3807 21.8713C75.2284 21.5127 74.0782 21.4881 72.9452 21.9387C71.5611 22.4888 70.5622 23.4788 69.7951 24.7268C69.6159 25.0189 69.4475 25.3186 69.2736 25.6151C69.2533 25.6054 69.235 25.598 69.2179 25.5915Z" fill="black"/>
</svg>
