<svg width="202" height="56" viewBox="0 0 202 56" fill="none" xmlns="http://www.w3.org/2000/svg">
<g clip-path="url(#clip0_258_10939)">
<path d="M63.4661 34.2745C60.5195 34.2745 58.6936 31.6245 58.6936 27.958C58.6936 24.3279 60.2302 21.6235 63.4479 21.6235C65.5629 21.6235 66.9549 22.9848 67.2083 24.7817H72.1254C71.872 22.5492 70.8779 20.5889 69.1425 19.2821C67.7324 18.193 65.78 17.5215 63.4661 17.5215C57.5366 17.5215 53.686 22.0228 53.686 27.958C53.686 33.9296 57.6631 38.3039 63.5024 38.3039C66.3041 38.3039 68.3469 37.5234 69.8656 36.0351C71.2212 34.7282 72.1254 32.9132 72.2517 30.9348H67.3346C67.1179 32.8769 65.6715 34.2745 63.4661 34.2745Z" fill="#262626"/>
<path d="M81.328 23.2041C76.7724 23.2041 73.7173 26.4712 73.7173 30.7729C73.7173 35.0746 76.7724 38.3417 81.328 38.3417C85.9195 38.3417 88.9205 35.0746 88.9205 30.7729C88.9205 26.4712 85.9195 23.2041 81.328 23.2041ZM81.3098 35.0927C79.3393 35.0927 78.3088 33.3685 78.3088 30.7729C78.3088 28.1774 79.3393 26.4168 81.3098 26.4168C83.2804 26.4168 84.3468 28.1774 84.3468 30.7729C84.329 33.3685 83.2804 35.0927 81.3098 35.0927Z" fill="#262626"/>
<path d="M95.3524 21.6843C96.3195 20.7133 96.3195 19.1388 95.3524 18.1678C94.3849 17.1967 92.817 17.1967 91.8499 18.1678C90.8827 19.1388 90.8827 20.7133 91.8499 21.6843C92.817 22.6554 94.3849 22.6554 95.3524 21.6843Z" fill="#262626"/>
<path d="M89.6606 26.7967H91.5586V37.8866H96.0783V23.584H89.6606V26.7967Z" fill="#262626"/>
<path d="M107.196 23.166C105.225 23.166 103.851 24.0009 102.803 25.5437H102.713V23.5835H98.356V37.868H102.893V29.9725C102.893 28.2119 103.888 26.9595 105.388 26.9595C106.87 26.9595 107.612 27.9941 107.612 29.5006V37.868H112.149V28.5749C112.149 25.3985 110.305 23.166 107.196 23.166Z" fill="#262626"/>
<path d="M122.779 17.9219H114.301V37.8694H122.472C124.967 37.8694 126.974 37.2341 128.529 36.0543C130.752 34.3482 131.981 31.5348 131.981 28.0136C131.981 21.915 128.275 17.9219 122.779 17.9219ZM122.111 33.7311H119.218V22.0602H122.165C125.256 22.0602 127.01 24.4016 127.01 28.0318C126.992 31.68 125.329 33.7311 122.111 33.7311Z" fill="#262626"/>
<path d="M145.413 25.0541C144.184 23.947 142.575 23.2754 140.55 23.2754C136.211 23.2754 133.247 26.5425 133.247 30.8079C133.247 35.1277 136.139 38.3948 140.84 38.3948C142.647 38.3948 144.093 37.9229 145.287 37.088C146.534 36.2168 147.365 35.0007 147.673 33.712H143.262C142.864 34.6014 142.087 35.1277 140.894 35.1277C139.032 35.1277 137.983 33.9298 137.694 32.0058H147.926C147.944 29.0836 147.112 26.6151 145.413 25.0541ZM137.712 29.2832C138.019 27.5771 138.905 26.4881 140.622 26.4881C142.087 26.4881 143.153 27.5771 143.316 29.2832H137.712Z" fill="#262626"/>
<path d="M156.856 28.939C155.048 28.6122 153.439 28.467 153.439 27.4687C153.439 26.5794 154.307 26.1619 155.409 26.1619C156.657 26.1619 157.525 26.5612 157.687 27.8317H161.863C161.646 25.0184 159.477 23.2578 155.446 23.2578C152.083 23.2578 149.299 24.8188 149.299 27.8317C149.299 31.1896 151.939 31.843 154.415 32.2605C156.314 32.5872 158.031 32.7324 158.031 34.0211C158.031 34.9468 157.163 35.4369 155.807 35.4369C154.307 35.4369 153.367 34.7471 153.186 33.3132H148.902C149.046 36.4715 151.649 38.3954 155.825 38.3954C159.549 38.3954 162.297 36.78 162.297 33.6581C162.315 30.0098 159.369 29.3564 156.856 28.939Z" fill="#262626"/>
<path d="M172.963 28.9574L177.97 23.5849H172.746L168.516 28.4129V17.9219H164.05V37.8875H168.516V33.4951L169.889 32.043L173.306 37.8875H178.549L172.963 28.9574Z" fill="#262626"/>
<path d="M33.765 29.2833C34.5238 29.2833 35.1389 28.6657 35.1389 27.9038C35.1389 27.142 34.5238 26.5244 33.765 26.5244C33.0062 26.5244 32.3911 27.142 32.3911 27.9038C32.3911 28.6657 33.0062 29.2833 33.765 29.2833Z" fill="#F8BF1E"/>
<path d="M44.7201 29.2833C45.4789 29.2833 46.094 28.6657 46.094 27.9038C46.094 27.142 45.4789 26.5244 44.7201 26.5244C43.9613 26.5244 43.3462 27.142 43.3462 27.9038C43.3462 28.6657 43.9613 29.2833 44.7201 29.2833Z" fill="#F8BF1E"/>
<path d="M44.7201 40.3009C45.4789 40.3009 46.094 39.6833 46.094 38.9214C46.094 38.1596 45.4789 37.542 44.7201 37.542C43.9613 37.542 43.3462 38.1596 43.3462 38.9214C43.3462 39.6833 43.9613 40.3009 44.7201 40.3009Z" fill="#F8BF1E"/>
<path d="M48.751 16.6324C48.6064 14.6176 46.9975 12.9841 44.9909 12.8389C43.7074 12.7481 42.5504 13.2382 41.7369 14.0731C41.1222 14.7084 40.2907 15.0895 39.4048 15.0895H39.0794C38.1756 15.0895 37.3259 14.7084 36.6932 14.055C35.952 13.2926 34.9216 12.8389 33.7827 12.8389C32.6438 12.8389 31.6133 13.3108 30.8722 14.055C30.2394 14.7084 29.3898 15.0895 28.4859 15.0895H28.1786C27.2928 15.0895 26.4431 14.7447 25.8285 14.1094C25.702 13.9824 25.5754 13.8553 25.4489 13.7464C23.9123 12.494 21.6525 12.5303 20.1702 13.8553C18.3805 15.4344 18.3082 18.1933 19.9713 19.8631C19.9894 19.8813 20.0075 19.8994 20.0255 19.9176C20.6763 20.5347 21.0198 21.406 21.0198 22.2953V22.6039C21.0198 23.5114 20.6402 24.3645 19.9894 24.9998C19.2301 25.744 18.7782 26.7785 18.7782 27.922C18.7782 29.0655 19.2482 30.1001 19.9894 30.8443C20.6402 31.4796 21.0198 32.3326 21.0198 33.2402V33.6576C21.0198 34.547 20.6402 35.3819 20.0075 35.999C19.212 36.7795 18.7239 37.8867 18.7782 39.1028C18.8686 41.2446 20.604 42.9689 22.7191 43.0415C23.9484 43.0778 25.0512 42.5877 25.8285 41.7709C26.4431 41.1357 27.2747 40.7363 28.1605 40.7363H28.504C29.3898 40.7363 30.2214 41.1175 30.836 41.7709C31.6495 42.624 32.8246 43.1141 34.1081 43.0233C36.1147 42.8781 37.7417 41.2445 37.8863 39.2117C38.049 36.7977 36.169 34.8011 33.8008 34.8011C32.6799 34.8011 31.6495 35.2548 30.9083 35.999C30.2756 36.6343 29.426 37.0155 28.5401 37.0155H28.1605C27.2747 37.0155 26.407 36.6706 25.7743 36.0172C25.7562 35.999 25.7562 35.999 25.7381 35.9809C25.0873 35.3456 24.7077 34.4925 24.7077 33.585V33.222C24.7077 32.3145 25.0873 31.4614 25.7381 30.8261C26.4974 30.0819 26.9493 29.0474 26.9493 27.9039C26.9493 26.7604 26.4793 25.7258 25.7381 24.9816C25.0873 24.3463 24.7077 23.4933 24.7077 22.5858V22.259C24.7077 21.3515 25.0873 20.4984 25.72 19.8631C25.7381 19.845 25.7381 19.845 25.7562 19.8269C25.7743 19.8087 25.7743 19.8087 25.7923 19.7906C26.4251 19.1553 27.2747 18.7741 28.1786 18.7741H28.504C29.4079 18.7741 30.2575 19.1553 30.8902 19.8087C31.6314 20.571 32.6619 21.0248 33.8008 21.0248C34.9397 21.0248 35.9701 20.5529 36.7113 19.8087C37.344 19.1553 38.1937 18.7741 39.0975 18.7741H39.3868C40.2907 18.7741 41.1403 19.1553 41.773 19.8087C42.5142 20.571 43.5446 21.0248 44.6836 21.0248C47.0337 21.043 48.9137 19.0464 48.751 16.6324Z" fill="#F8BF1E"/>
</g>
<defs>
<clipPath id="clip0_258_10939">
<rect width="159.775" height="30.3223" fill="white" transform="translate(18.7739 12.8281)"/>
</clipPath>
</defs>
</svg>
