<svg width="152" height="57" viewBox="0 0 152 57" fill="none" xmlns="http://www.w3.org/2000/svg">
<g clip-path="url(#clip0_258_10959)">
<path d="M65.373 39.8949C65.373 38.9904 65.9649 38.5862 66.7603 38.5862C67.1858 38.5862 67.5002 38.6825 67.7777 38.8172V35.9112C67.3523 35.6995 66.7603 35.584 66.1499 35.584C63.5417 35.584 62.0064 37.1813 62.0064 39.8179V40.0681H60.7671V42.8971H62.0064V49.6907H65.373V42.8971H67.6482V40.0681H65.373V39.8949Z" fill="#232A31"/>
<path d="M72.384 49.691V40.0685H68.9989V49.691H72.384ZM72.5874 37.3549C72.5874 36.3157 71.755 35.4111 70.6822 35.4111C69.6463 35.4111 68.7954 36.2964 68.7954 37.3549C68.7954 38.4134 69.6463 39.2987 70.6822 39.2987C71.755 39.2987 72.5874 38.3941 72.5874 37.3549Z" fill="#232A31"/>
<path d="M77.1492 44.5726C77.1492 43.5719 77.6302 43.0137 78.3701 43.0137C79.11 43.0137 79.5539 43.5526 79.5539 44.5341V49.6918H82.939V43.5719C82.939 41.2432 81.7182 39.7998 79.7204 39.7998C78.5921 39.7998 77.6672 40.3002 77.1492 41.2432V40.0692H73.7642V49.6918H77.1492V44.5726Z" fill="#232A31"/>
<path d="M88.4758 39.876C85.6778 39.876 83.8833 42.3971 83.8833 44.9182C83.8833 47.728 85.8515 49.9604 88.4372 49.9604C90.3668 49.9604 91.1 48.7865 91.1 48.7865V49.7103H94.361V40.1069H91.1V40.973C91.1 40.973 90.2703 39.876 88.4758 39.876ZM89.1704 42.9744C90.4825 42.9744 91.1386 43.9944 91.1386 44.9182C91.1386 45.919 90.4246 46.9005 89.1704 46.9005C88.1477 46.9005 87.2022 46.0537 87.2022 44.9567C87.2022 43.8597 87.9548 42.9744 89.1704 42.9744Z" fill="#232A31"/>
<path d="M99.3465 44.5726C99.3465 43.5719 99.8274 43.0137 100.567 43.0137C101.307 43.0137 101.751 43.5526 101.751 44.5341V49.6918H105.136V43.5719C105.136 41.2432 103.915 39.7998 101.918 39.7998C100.789 39.7998 99.8644 40.3002 99.3465 41.2432V40.0692H95.9614V49.6918H99.3465V44.5726Z" fill="#232A31"/>
<path d="M106.135 44.8805C106.135 47.9982 108.281 49.9613 111.074 49.9613C111.796 49.9613 112.572 49.8073 113.294 49.4224V46.2277C112.776 46.6126 112.221 46.805 111.611 46.805C110.427 46.805 109.557 46.0352 109.557 44.8805C109.557 43.7258 110.427 42.956 111.611 42.956C112.202 42.956 112.757 43.1292 113.294 43.4949V40.3002C112.646 39.973 111.851 39.7998 111.13 39.7998C108.225 39.7998 106.135 41.936 106.135 44.8805Z" fill="#232A31"/>
<path d="M120.658 46.3047C120.307 46.9013 119.863 47.1515 119.123 47.1515C118.235 47.1515 117.495 46.5933 117.421 45.7658H123.821C123.84 45.5926 123.858 45.3617 123.858 45.0537C123.858 41.8783 121.916 39.7998 119.03 39.7998C116.237 39.7998 114.11 41.9745 114.11 44.8805C114.11 47.902 116.182 49.9613 119.141 49.9613C121.231 49.9613 122.804 49.0375 123.562 47.3632L120.658 46.3047ZM117.439 43.7451C117.513 43.033 118.142 42.4941 119.012 42.4941C119.881 42.4941 120.51 42.9945 120.584 43.7451H117.439Z" fill="#232A31"/>
<path d="M19.8638 15.5039H26.5246L30.4031 25.388L34.332 15.5039H40.8174L31.0518 38.9028H24.5253L27.1985 32.7024L19.8638 15.5039Z" fill="#5F01D1"/>
<path d="M47.5732 15.1123C42.5686 15.1123 39.4048 19.5831 39.4048 24.0354C39.4048 29.0454 42.8735 33.0175 47.4782 33.0175C50.9132 33.0175 52.2083 30.9329 52.2083 30.9329V32.5568H58.0179V15.5059H52.2083V17.056C52.2083 17.056 50.7634 15.1123 47.5732 15.1123ZM48.8089 20.5918C51.118 20.5918 52.3096 22.4118 52.3096 24.0541C52.3096 25.8225 51.033 27.5579 48.8089 27.5579C46.9655 27.5579 45.2997 26.0574 45.2997 24.1294C45.2997 22.174 46.6396 20.5918 48.8089 20.5918Z" fill="#5F01D1"/>
<path d="M60.0188 32.5555V7.97559H66.0952V17.1138C66.0952 17.1138 67.5385 15.1132 70.5613 15.1132C74.2588 15.1132 76.4251 17.8574 76.4251 21.7787V32.5555H70.3932V23.255C70.3932 21.9279 69.7586 20.6459 68.3211 20.6459C66.8578 20.6459 66.0952 21.9473 66.0952 23.255V32.5555H60.0188Z" fill="#5F01D1"/>
<path d="M86.7859 15.1133C81.0547 15.1133 77.6421 19.4543 77.6421 24.1053C77.6421 29.3981 81.774 33.0165 86.8076 33.0165C91.6865 33.0165 95.9556 29.5624 95.9556 24.1941C95.9556 18.3202 91.4857 15.1133 86.7859 15.1133ZM86.8407 20.6409C88.8651 20.6409 90.2659 22.3205 90.2659 24.1116C90.2659 25.6393 88.9606 27.5235 86.8407 27.5235C84.8981 27.5235 83.4403 25.9713 83.4403 24.0949C83.4403 22.2873 84.6524 20.6409 86.8407 20.6409Z" fill="#5F01D1"/>
<path d="M106.078 15.1133C100.347 15.1133 96.9343 19.4543 96.9343 24.1053C96.9343 29.3981 101.066 33.0165 106.1 33.0165C110.979 33.0165 115.248 29.5624 115.248 24.1941C115.248 18.3202 110.778 15.1133 106.078 15.1133ZM106.133 20.6409C108.157 20.6409 109.558 22.3205 109.558 24.1116C109.558 25.6393 108.253 27.5235 106.133 27.5235C104.19 27.5235 102.733 25.9713 102.733 24.0949C102.733 22.2873 103.945 20.6409 106.133 20.6409Z" fill="#5F01D1"/>
<path d="M120.042 32.9174C122.271 32.9174 124.077 31.1179 124.077 28.8981C124.077 26.6784 122.271 24.8789 120.042 24.8789C117.814 24.8789 116.007 26.6784 116.007 28.8981C116.007 31.1179 117.814 32.9174 120.042 32.9174Z" fill="#5F01D1"/>
<path d="M125.403 23.4026H118.139L124.586 7.97559H131.823L125.403 23.4026Z" fill="#5F01D1"/>
</g>
<defs>
<clipPath id="clip0_258_10959">
<rect width="111.959" height="41.9847" fill="white" transform="translate(19.8638 7.97754)"/>
</clipPath>
</defs>
</svg>
