<svg width="152" height="57" viewBox="0 0 152 57" fill="none" xmlns="http://www.w3.org/2000/svg">
<g clip-path="url(#clip0_258_10979)">
<g clip-path="url(#clip1_258_10979)">
<path d="M6.16528 16.0625H16.4151C18.3674 16.0625 19.8317 16.5506 20.9163 17.3641C22.1094 18.3402 22.7602 19.7503 22.7602 21.4857C22.7602 23.4922 21.9467 24.7396 20.3197 25.4988V25.6073C22.489 26.3123 23.7363 28.2646 23.7363 30.5966C23.7363 32.8201 22.8686 34.5555 21.4586 35.6401C20.2655 36.5078 18.747 36.8875 16.6862 36.8875H6.16528V16.0625ZM15.3847 24.1972C16.4693 24.1972 17.2828 23.6007 17.2828 22.3534C17.2828 21.1603 16.4693 20.5637 15.3304 20.5637H11.8054V24.143H15.3847V24.1972ZM15.8727 32.2778C17.1201 32.2778 18.042 31.5185 18.042 30.1627C18.042 28.6985 17.0658 28.0477 15.8727 28.0477H11.8596V32.332H15.8727V32.2778ZM24.6583 16.0625H30.0272V36.9417H24.6583V16.0625ZM31.1118 29.5119C31.1118 24.7938 34.1488 21.6484 38.867 21.6484C43.5851 21.6484 46.5679 24.848 46.5679 29.5119C46.5679 34.2301 43.5851 37.3755 38.867 37.3755C34.1488 37.3755 31.1118 34.2301 31.1118 29.5119ZM41.1989 29.5119C41.1989 26.9088 40.3855 25.2819 38.7585 25.2819C37.1316 25.2819 36.3723 26.9088 36.3723 29.5119C36.3723 32.1151 37.1316 33.7962 38.7585 33.7962C40.3855 33.742 41.1989 32.1151 41.1989 29.5119ZM47.1644 29.5119C47.1644 24.7938 50.2014 21.6484 54.9195 21.6484C59.6377 21.6484 62.5662 24.7938 62.5662 29.5119C62.5662 34.2301 59.5835 37.3755 54.8653 37.3755C50.2014 37.3755 47.1644 34.2301 47.1644 29.5119ZM57.2515 29.5119C57.2515 26.9088 56.438 25.2819 54.8111 25.2819C53.1841 25.2819 52.4249 26.9088 52.4249 29.5119C52.4249 32.1151 53.1841 33.7962 54.8111 33.7962C56.438 33.742 57.2515 32.1151 57.2515 29.5119ZM63.6508 22.028H68.6401V24.2515H68.7486C69.7248 22.5161 71.0806 21.5941 73.2498 21.5941C75.1479 21.5941 76.558 22.5161 77.263 24.143H77.3714C78.5645 22.1907 80.1372 21.5941 81.9811 21.5941C85.452 21.5941 86.9162 24.143 86.9162 27.5596V36.8875H81.71V28.4815C81.71 26.9631 81.2219 25.9869 79.9203 25.9869C78.6188 25.9869 77.968 27.18 77.968 28.8069V36.8875H72.7617V28.4815C72.7617 26.9631 72.2737 25.9869 70.9721 25.9869C69.6705 25.9869 69.0198 27.18 69.0198 28.8069V36.8875H63.6508V22.028ZM93.4782 34.9351H93.424V36.8875H88.4347V16.0625H93.6409V23.5465H93.7494C94.7256 22.2449 96.0813 21.5399 97.9794 21.5399C101.721 21.5399 103.891 24.9023 103.891 29.4035C103.891 34.447 101.559 37.3755 97.6541 37.3755C96.0271 37.3755 94.3459 36.6163 93.4782 34.9351ZM98.5218 29.3493C98.5218 26.9631 97.6541 25.3903 96.0813 25.3903C94.4544 25.3903 93.4782 26.9631 93.4782 29.3493C93.4782 31.7354 94.5086 33.3082 96.0813 33.3082C97.6541 33.3082 98.5218 31.7897 98.5218 29.3493ZM104.487 29.4577C104.487 24.7938 107.578 21.5941 112.025 21.5941C114.249 21.5941 115.93 22.2991 117.232 23.5465C118.967 25.2276 119.726 27.8308 119.672 30.8677H109.693C109.91 32.7116 110.778 33.6878 112.351 33.6878C113.273 33.6878 114.086 33.2539 114.412 32.2778H119.455C118.587 35.6944 115.93 37.3755 112.188 37.3755C107.578 37.3213 104.487 34.1759 104.487 29.4577ZM109.693 27.885H114.466C114.357 26.0954 113.381 25.1734 112.134 25.1734C110.67 25.1192 109.856 26.1496 109.693 27.885ZM125.583 24.5769H125.692C126.776 22.5161 128.186 21.7026 129.976 21.7026C130.41 21.7026 130.681 21.7568 130.844 21.8653V26.4207H130.735C127.644 25.8784 125.855 27.3427 125.855 30.705V36.9417H120.594V22.028H125.583V24.5769ZM131.386 36.9417H136.43C136.647 37.5925 137.297 38.189 138.545 38.189C140.226 38.189 140.822 37.1586 140.822 35.5859V34.5013H140.714C139.901 35.4774 138.762 36.1824 137.135 36.1824C133.935 36.1824 131.115 33.7962 131.115 29.1323C131.115 24.848 133.393 21.5399 136.864 21.5399C138.87 21.5399 140.063 22.3534 140.877 23.6007H140.985V21.9737H145.974V34.8809C145.974 37.2671 145.161 39.1109 143.914 40.1956C142.612 41.3344 140.768 41.8225 138.653 41.8225C134.64 41.8768 131.874 40.2498 131.386 36.9417ZM141.039 28.9154C141.039 27.0715 140.172 25.553 138.653 25.553C137.189 25.553 136.267 26.8546 136.267 28.9154C136.267 30.922 137.189 32.332 138.653 32.332C140.117 32.332 141.039 30.8677 141.039 28.9154Z" fill="black"/>
</g>
</g>
<defs>
<clipPath id="clip0_258_10979">
<rect width="151.039" height="55.9796" fill="white" transform="translate(0.0705566 0.979492)"/>
</clipPath>
<clipPath id="clip1_258_10979">
<rect width="139.809" height="55.9796" fill="white" transform="translate(6.16528 0.979492)"/>
</clipPath>
</defs>
</svg>
