<svg width="152" height="56" viewBox="0 0 152 56" fill="none" xmlns="http://www.w3.org/2000/svg">
<g clip-path="url(#clip0_258_10922)">
<path d="M70.2268 34.2053H68.1137C67.9242 34.2053 67.8535 34.0281 67.7679 33.856L65.2747 29.6093H64.8921C64.4402 29.6093 63.0412 29.5595 62.6432 29.5372V33.856C62.6432 34.0472 62.5034 34.2053 62.3123 34.2053H60.5818C60.4904 34.2048 60.4029 34.1678 60.3383 34.1024C60.2737 34.037 60.2371 33.9485 60.2366 33.856V22.3786C60.2366 22.0272 60.4415 21.9048 60.7898 21.853C61.6914 21.7125 63.6262 21.626 64.8916 21.626C67.5564 21.626 70.0183 22.5896 70.0183 25.5839V25.742C70.0183 27.5966 69.1014 28.6115 67.6824 29.1687L70.3979 33.856C70.4338 33.9088 70.4338 33.9581 70.4338 33.9975C70.4343 34.1162 70.3651 34.2053 70.2268 34.2053ZM67.6301 25.5839C67.6301 24.2705 66.623 23.7107 64.8921 23.7107C64.5273 23.7107 62.9526 23.7454 62.6432 23.7796V27.578C62.9173 27.5951 64.5944 27.6308 64.8921 27.6308C66.6727 27.6308 67.6301 27.2825 67.6301 25.742V25.5839ZM75.0488 30.7553C75.0488 32.2243 75.1046 32.2626 76.4135 32.2626H80.7949C80.8868 32.2629 80.9748 32.2999 81.0398 32.3655C81.1049 32.4311 81.1417 32.5201 81.1422 32.613V33.7316C81.1422 33.9788 81.0552 34.0664 80.7949 34.1001C80.2417 34.1882 79.1142 34.3442 77.0559 34.3442C74.1831 34.3442 72.6586 34.3644 72.6586 30.7553V25.2144C72.6586 21.6063 74.1831 21.6265 77.0559 21.6265C79.1142 21.6265 80.2417 21.7846 80.7949 21.8711C81.0552 21.9048 81.1422 21.994 81.1422 22.2397V23.3588C81.1422 23.55 80.986 23.7112 80.7949 23.7112H76.4135C75.1046 23.7112 75.0488 23.7501 75.0488 25.2144V26.8212H80.588C80.6794 26.8216 80.767 26.8583 80.8318 26.9235C80.8967 26.9887 80.9337 27.077 80.9348 27.1695V28.4337C80.934 28.5264 80.8971 28.6151 80.8322 28.6806C80.7673 28.746 80.6796 28.7831 80.588 28.7836H75.0488V30.7553ZM88.9133 34.3442C86.1292 34.3442 83.7302 33.1194 83.7302 29.3869V22.0992C83.7302 21.9048 83.8885 21.7654 84.0786 21.7654H85.789C85.9811 21.7654 86.1358 21.9048 86.1358 22.0992V29.3869C86.1358 31.3846 87.0482 32.3321 88.9139 32.3321C90.7847 32.3321 91.6965 31.3846 91.6965 29.3869V22.0992C91.6965 21.9048 91.8512 21.7654 92.0413 21.7654H93.7543C93.9464 21.7654 94.1026 21.9048 94.1026 22.0992V29.3869C94.1016 33.1189 91.7016 34.3442 88.9133 34.3442ZM105.482 23.7957H102.029V33.856C102.028 33.9491 101.99 34.0378 101.925 34.1032C101.859 34.1685 101.771 34.2052 101.679 34.2053H99.966C99.8745 34.2049 99.7867 34.168 99.7218 34.1026C99.6569 34.0373 99.62 33.9486 99.6192 33.856V23.7957H96.164C95.976 23.7957 95.8197 23.6755 95.8197 23.4826V22.0992C95.8197 21.9048 95.976 21.7654 96.164 21.7654H105.482C105.669 21.7654 105.825 21.9048 105.825 22.0992V23.4826C105.825 23.6755 105.67 23.7957 105.482 23.7957ZM128.987 34.2053H126.873C126.683 34.2053 126.615 34.0281 126.529 33.856L124.035 29.6093H123.649C123.202 29.6093 121.801 29.5595 121.4 29.5372V33.856C121.4 34.0472 121.263 34.2053 121.074 34.2053H119.345C119.253 34.2052 119.165 34.1684 119.1 34.103C119.035 34.0375 118.999 33.9488 118.998 33.856V22.3786C118.998 22.0272 119.203 21.9048 119.55 21.853C120.45 21.7125 122.388 21.626 123.648 21.626C126.316 21.626 128.776 22.5896 128.776 25.5839V25.742C128.776 27.5966 127.858 28.6115 126.439 29.1687L129.16 33.856C129.186 33.8981 129.198 33.9477 129.195 33.9975C129.195 34.1162 129.124 34.2053 128.987 34.2053ZM126.39 25.5839C126.39 24.2705 125.383 23.7107 123.649 23.7107C123.288 23.7107 121.713 23.7454 121.4 23.7796V27.578C121.681 27.5951 123.359 27.6308 123.649 27.6308C125.434 27.6308 126.39 27.2825 126.39 25.742V25.5839ZM135.592 34.352C134.063 34.352 132.512 34.0866 131.68 33.8933C131.509 33.858 131.352 33.7362 131.352 33.5439V32.2823C131.352 32.0911 131.509 31.949 131.68 31.949H131.714C132.408 32.0371 134.028 32.2647 135.628 32.2647C137.167 32.2647 137.638 31.707 137.638 30.6926C137.638 29.3786 134.54 28.6514 133.027 28.0211C131.521 27.3908 130.988 26.1842 130.988 24.9599C130.988 23.0322 132.521 21.6312 135.739 21.6312C137.389 21.6312 138.9 21.9484 139.488 22.0914C139.662 22.1267 139.798 22.2495 139.798 22.4237V23.7195C139.798 23.8926 139.68 24.0341 139.504 24.0341H139.471C138.328 23.93 137.143 23.7169 135.638 23.7169C134.356 23.7169 133.396 24.172 133.396 24.9599C133.396 25.5363 134.047 26.0655 134.815 26.3744C135.584 26.6807 136.591 27.0773 137.743 27.5458C139.201 28.1424 140.146 29.0117 140.146 30.6926C140.145 32.4601 139.056 34.352 135.592 34.352ZM109.996 30.7553C109.996 32.2243 110.05 32.2626 111.361 32.2626H115.746C115.837 32.264 115.924 32.3014 115.988 32.3669C116.052 32.4324 116.089 32.5208 116.089 32.613V33.7316C116.089 33.9788 116.002 34.0664 115.746 34.1001C115.189 34.1882 114.063 34.3442 112.005 34.3442C109.126 34.3442 107.605 34.3644 107.605 30.7553V25.2144C107.605 21.6063 109.126 21.6265 112.005 21.6265C114.063 21.6265 115.189 21.7846 115.746 21.8711C116.002 21.9048 116.089 21.994 116.089 22.2397V23.3588C116.089 23.55 115.932 23.7112 115.746 23.7112H111.361C110.05 23.7112 109.996 23.7501 109.996 25.2144V26.8212H115.535C115.728 26.8212 115.879 26.9803 115.879 27.1695V28.4337C115.879 28.5261 115.843 28.6149 115.779 28.6805C115.714 28.7461 115.627 28.7832 115.535 28.7836H109.996V30.7553Z" fill="#666666"/>
<path d="M29.3559 22.5268C29.5557 22.9036 29.4199 23.3763 29.046 23.5805C28.8656 23.6785 28.6542 23.7 28.4581 23.6403C28.2621 23.5806 28.0975 23.4447 28.0004 23.2623C27.7955 22.886 27.9369 22.4122 28.3098 22.209C28.3991 22.16 28.497 22.1293 28.598 22.1188C28.699 22.1082 28.801 22.118 28.8983 22.1475C28.9955 22.1771 29.086 22.2258 29.1645 22.2909C29.2431 22.3559 29.3081 22.4361 29.3559 22.5268ZM25.5503 28.6233C25.4452 28.6824 25.3673 28.7809 25.3334 28.8976C25.2995 29.0142 25.3122 29.1397 25.3689 29.2469C25.3969 29.3 25.4351 29.3469 25.4812 29.3848C25.5274 29.4227 25.5806 29.4509 25.6377 29.4677C25.6948 29.4846 25.7546 29.4896 25.8137 29.4827C25.8727 29.4757 25.9298 29.4569 25.9816 29.4273C26.0346 29.3997 26.0816 29.3616 26.1197 29.3152C26.1578 29.2688 26.1864 29.2152 26.2036 29.1574C26.2208 29.0997 26.2263 29.039 26.2199 28.979C26.2134 28.9191 26.1951 28.861 26.166 28.8084C26.1082 28.7017 26.0111 28.6224 25.8957 28.5877C25.7804 28.5531 25.6563 28.5659 25.5503 28.6233ZM25.4734 26.7491C25.3515 26.8167 25.261 26.9302 25.2213 27.065C25.1817 27.1998 25.1963 27.345 25.2619 27.469C25.4038 27.7323 25.7224 27.8272 25.9801 27.6883C26.2347 27.5473 26.332 27.2182 26.1942 26.9626C26.1611 26.9004 26.116 26.8454 26.0617 26.8009C26.0075 26.7564 25.945 26.7233 25.8779 26.7034C25.8109 26.6835 25.7406 26.6773 25.6711 26.6852C25.6017 26.693 25.5345 26.7147 25.4734 26.7491ZM25.9539 24.9453C25.8135 25.0227 25.7087 25.1529 25.6622 25.3077C25.6158 25.4626 25.6313 25.6297 25.7055 25.7731C25.8668 26.068 26.2331 26.182 26.5251 26.0208C26.5953 25.9829 26.6573 25.9313 26.7077 25.8691C26.7582 25.8069 26.796 25.7352 26.8189 25.6581C26.8419 25.5811 26.8497 25.5002 26.8417 25.4201C26.8337 25.34 26.8102 25.2624 26.7725 25.1915C26.6953 25.0499 26.5662 24.9448 26.4131 24.8987C26.2599 24.8526 26.095 24.8694 25.9539 24.9453ZM26.9344 23.3851C26.855 23.4277 26.7848 23.4858 26.7278 23.5561C26.6708 23.6264 26.6281 23.7074 26.6024 23.7945C26.5766 23.8816 26.5682 23.973 26.5776 24.0634C26.587 24.1539 26.6141 24.2415 26.6573 24.3212C26.8366 24.6524 27.2433 24.7784 27.5732 24.5975C27.6523 24.5555 27.7225 24.498 27.7795 24.4283C27.8365 24.3587 27.8793 24.2783 27.9053 24.1918C27.9314 24.1053 27.9402 24.0144 27.9313 23.9244C27.9224 23.8344 27.8959 23.7471 27.8534 23.6676C27.8117 23.5878 27.7547 23.5171 27.6858 23.4596C27.6169 23.4021 27.5375 23.359 27.452 23.3328C27.3666 23.3065 27.2769 23.2976 27.1881 23.3066C27.0992 23.3156 27.013 23.3423 26.9344 23.3851ZM26.1839 30.3981C26.1399 30.4221 26.1011 30.4546 26.0695 30.4938C26.038 30.533 26.0144 30.5781 26.0002 30.6266C25.986 30.6751 25.9813 30.7259 25.9866 30.7762C25.9918 30.8264 26.0068 30.8752 26.0308 30.9195C26.0795 31.0083 26.1605 31.0742 26.2566 31.1033C26.3527 31.1323 26.4563 31.1222 26.5451 31.075C26.6327 31.0251 26.6975 30.9425 26.7255 30.8448C26.7536 30.7471 26.7427 30.6422 26.6952 30.5526C26.647 30.4641 26.5664 30.3984 26.4708 30.3695C26.3752 30.3406 26.2722 30.3509 26.1839 30.3981ZM34.9406 24.0154C34.9991 24.1221 35.0964 24.2016 35.2119 24.2369C35.3273 24.2722 35.4518 24.2606 35.559 24.2046C35.6645 24.1454 35.7429 24.0466 35.7773 23.9295C35.8117 23.8124 35.7993 23.6864 35.7429 23.5784C35.7148 23.5253 35.6766 23.4784 35.6304 23.4403C35.5843 23.4022 35.5312 23.3737 35.4741 23.3565C35.4171 23.3393 35.3572 23.3337 35.298 23.34C35.2388 23.3464 35.1814 23.3645 35.1292 23.3934C35.0764 23.4217 35.0297 23.4602 34.9916 23.5068C34.9536 23.5534 34.925 23.6071 34.9075 23.6649C34.89 23.7226 34.8839 23.7833 34.8896 23.8435C34.8953 23.9036 34.9126 23.962 34.9406 24.0154ZM33.4023 23.0249C33.5411 23.2851 33.868 23.3799 34.1169 23.2384C34.3797 23.0974 34.4735 22.774 34.3331 22.5148C34.267 22.3905 34.1551 22.2976 34.0216 22.2564C33.8881 22.2152 33.7439 22.2291 33.6205 22.2951C33.4968 22.3634 33.4046 22.4783 33.3638 22.6148C33.323 22.7513 33.3368 22.8986 33.4023 23.0249ZM31.6247 22.5428C31.6618 22.6133 31.7123 22.6755 31.7734 22.7261C31.8344 22.7766 31.9048 22.8144 31.9803 22.8372C32.0559 22.86 32.1352 22.8674 32.2136 22.8589C32.2921 22.8505 32.3681 22.8264 32.4372 22.788C32.5074 22.7503 32.5695 22.699 32.62 22.6369C32.6705 22.5748 32.7084 22.5033 32.7315 22.4264C32.7546 22.3494 32.7624 22.2687 32.7546 22.1887C32.7467 22.1087 32.7233 22.031 32.6856 21.9602C32.6483 21.8895 32.5974 21.8269 32.5359 21.7762C32.4745 21.7256 32.4037 21.6878 32.3276 21.6651C32.2516 21.6423 32.1718 21.6351 32.093 21.6439C32.0142 21.6527 31.9379 21.6772 31.8686 21.7161C31.7988 21.7541 31.7372 21.8056 31.6871 21.8678C31.6371 21.9299 31.5997 22.0014 31.577 22.0782C31.5544 22.155 31.5469 22.2356 31.5551 22.3153C31.5633 22.3951 31.587 22.4724 31.6247 22.5428ZM29.7688 22.6169C29.811 22.6969 29.8683 22.7676 29.9375 22.8251C30.0067 22.8825 30.0864 22.9257 30.1721 22.9519C30.2578 22.9782 30.3478 22.9872 30.4369 22.9782C30.526 22.9693 30.6125 22.9427 30.6914 22.9C30.8494 22.8117 30.9667 22.664 31.0179 22.4889C31.069 22.3138 31.05 22.1254 30.9649 21.9644C30.8764 21.8096 30.7318 21.6958 30.5617 21.6471C30.3917 21.5984 30.2095 21.6186 30.054 21.7035C29.8984 21.7884 29.7816 21.9312 29.7284 22.1017C29.6752 22.2722 29.6896 22.457 29.7688 22.6169ZM36.0963 25.4185C36.1937 25.6046 36.4242 25.672 36.6024 25.5725C36.6463 25.5494 36.6852 25.5177 36.7168 25.4793C36.7484 25.4408 36.772 25.3963 36.7864 25.3485C36.8008 25.3006 36.8055 25.2503 36.8004 25.2006C36.7953 25.1508 36.7804 25.1026 36.7566 25.0588C36.7094 24.9689 36.629 24.9014 36.533 24.871C36.4369 24.8405 36.3329 24.8495 36.2433 24.896C36.0676 24.9992 35.9944 25.2366 36.0963 25.4185ZM34.79 32.7104C34.7425 32.6193 34.6775 32.5386 34.5988 32.4732C34.5201 32.4078 34.4293 32.3589 34.3317 32.3294C34.2342 32.2999 34.1318 32.2903 34.0305 32.3012C33.9292 32.3122 33.8311 32.3434 33.7419 32.3932C33.6527 32.4413 33.5739 32.507 33.51 32.5862C33.4461 32.6655 33.3984 32.7569 33.3696 32.8549C33.3409 32.953 33.3317 33.0559 33.3426 33.1576C33.3535 33.2593 33.3842 33.3579 33.433 33.4474C33.6359 33.8248 34.1041 33.9627 34.4791 33.7636C34.8515 33.5553 34.9903 33.0799 34.79 32.7104ZM27.8457 31.9546C27.7879 31.8489 27.6914 31.7703 27.5769 31.7358C27.4625 31.7013 27.3392 31.7136 27.2336 31.7701C27.1813 31.7985 27.135 31.837 27.0974 31.8834C27.0598 31.9299 27.0317 31.9834 27.0146 32.0409C26.9975 32.0984 26.9918 32.1588 26.9978 32.2185C27.0039 32.2782 27.0215 32.3362 27.0497 32.389C27.0773 32.4424 27.1152 32.4896 27.1612 32.5279C27.2072 32.5662 27.2603 32.5947 27.3174 32.6118C27.3745 32.629 27.4344 32.6343 27.4935 32.6275C27.5527 32.6208 27.6099 32.6021 27.6618 32.5725C27.7141 32.5442 27.7603 32.5058 27.7978 32.4594C27.8353 32.413 27.8634 32.3596 27.8805 32.3022C27.8976 32.2448 27.9033 32.1846 27.8973 32.1249C27.8914 32.0653 27.8738 32.0074 27.8457 31.9546ZM29.3861 32.9457C29.3192 32.8217 29.2064 32.7295 29.0725 32.6894C28.9386 32.6493 28.7944 32.6644 28.6715 32.7316C28.6099 32.7643 28.5554 32.8091 28.5112 32.8634C28.467 32.9178 28.434 32.9805 28.4141 33.0479C28.3942 33.1153 28.3878 33.1861 28.3953 33.256C28.4028 33.326 28.4241 33.3937 28.4579 33.4552C28.5911 33.7159 28.9143 33.8155 29.1705 33.6755C29.2936 33.6066 29.3852 33.4916 29.4255 33.3551C29.4658 33.2187 29.4517 33.0717 29.3861 32.9457ZM31.1678 33.4277C31.0126 33.1318 30.6422 33.0266 30.3451 33.18C30.205 33.258 30.1008 33.3887 30.0552 33.5438C30.0096 33.6989 30.0261 33.8659 30.1013 34.0088C30.2621 34.3079 30.6284 34.4183 30.9214 34.2586C30.992 34.221 31.0545 34.1695 31.1052 34.1071C31.1559 34.0448 31.1939 33.9728 31.2168 33.8955C31.2398 33.8181 31.2472 33.7369 31.2388 33.6566C31.2304 33.5763 31.2063 33.4985 31.1678 33.4277ZM33.0212 33.3526C32.9349 33.1922 32.7894 33.0728 32.6165 33.0206C32.4435 32.9683 32.2571 32.9874 32.0981 33.0737C31.7661 33.2515 31.6509 33.6677 31.8312 34.0062C31.8725 34.0859 31.9292 34.1565 31.9979 34.2137C32.0666 34.2709 32.1459 34.3136 32.2312 34.3392C32.3165 34.3649 32.406 34.373 32.4944 34.3631C32.5829 34.3531 32.6684 34.3254 32.7461 34.2814C33.0791 34.1052 33.1974 33.6848 33.0212 33.3526ZM37.232 27.3534C37.4549 27.2239 37.5399 26.944 37.4236 26.7247C37.3953 26.6718 37.357 26.6251 37.3109 26.5873C37.2648 26.5494 37.2117 26.5211 37.1548 26.5039C37.0979 26.4868 37.0381 26.4812 36.979 26.4874C36.92 26.4936 36.8627 26.5116 36.8104 26.5402C36.7573 26.5682 36.7102 26.6067 36.672 26.6534C36.6338 26.7001 36.6053 26.7541 36.588 26.8122C36.5707 26.8702 36.5651 26.9312 36.5714 26.9915C36.5778 27.0518 36.596 27.1102 36.625 27.1632C36.6814 27.269 36.7766 27.3482 36.8901 27.3838C37.0036 27.4193 37.1264 27.4084 37.232 27.3534ZM37.3171 29.2246C37.5742 29.0831 37.6664 28.7581 37.5266 28.5C37.494 28.4382 37.4496 28.3836 37.396 28.3393C37.3425 28.295 37.2808 28.2618 37.2146 28.2417C37.1483 28.2215 37.0787 28.2148 37.0099 28.222C36.9411 28.2291 36.8743 28.25 36.8135 28.2833C36.6903 28.352 36.5986 28.4667 36.558 28.6029C36.5174 28.7391 36.5312 28.886 36.5963 29.0121C36.7326 29.2676 37.0635 29.362 37.3171 29.2246ZM36.833 31.0268C37.1332 30.8636 37.2377 30.4966 37.0845 30.1965C37.0079 30.0538 36.8787 29.9477 36.725 29.9012C36.5714 29.8546 36.4057 29.8715 36.2643 29.9482C36.1231 30.0261 36.018 30.1572 35.9718 30.3131C35.9256 30.4689 35.942 30.6369 36.0174 30.7806C36.0941 30.9219 36.2227 31.0269 36.3753 31.073C36.5279 31.119 36.6923 31.1025 36.833 31.0268ZM35.8591 32.5803C36.189 32.4072 36.311 31.9826 36.1322 31.6514C35.9508 31.3187 35.541 31.1896 35.2127 31.3731C35.1341 31.416 35.0647 31.4742 35.0084 31.5442C34.9521 31.6143 34.91 31.6949 34.8845 31.7815C34.859 31.868 34.8506 31.9588 34.8598 32.0487C34.869 32.1385 34.8956 32.2256 34.9381 32.305C34.9801 32.3849 35.0374 32.4555 35.1067 32.5127C35.176 32.5698 35.2558 32.6125 35.3416 32.6381C35.4273 32.6637 35.5172 32.6718 35.6061 32.6619C35.695 32.652 35.781 32.6242 35.8591 32.5803Z" fill="url(#paint0_linear_258_10922)"/>
<path d="M34.5555 20.6648C34.5188 20.7908 34.4578 20.9082 34.3761 21.0102C34.2944 21.1123 34.1936 21.197 34.0795 21.2596C33.9654 21.3221 33.8401 21.3613 33.711 21.3747C33.5819 21.3882 33.4515 21.3758 33.3271 21.3381C33.2019 21.3016 33.0851 21.2402 32.9834 21.1577C32.8817 21.0752 32.7972 20.9731 32.7348 20.8573C32.6723 20.7415 32.6332 20.6144 32.6196 20.4832C32.606 20.3521 32.6182 20.2195 32.6555 20.0931C32.7304 19.8382 32.9024 19.6238 33.1335 19.4971C33.248 19.4344 33.3735 19.3951 33.503 19.3815C33.6324 19.3679 33.7633 19.3802 33.888 19.4177C34.0128 19.4553 34.129 19.5173 34.2301 19.6003C34.3311 19.6833 34.4151 19.7856 34.477 19.9014C34.539 20.0172 34.5779 20.1442 34.5913 20.2752C34.6048 20.4062 34.5926 20.5386 34.5555 20.6648ZM25.0565 23.032C24.9316 22.9969 24.798 23.0125 24.6842 23.0757C24.5705 23.1388 24.4857 23.2444 24.448 23.37C24.4167 23.4943 24.4343 23.626 24.4971 23.7374C24.56 23.8488 24.663 23.9312 24.7847 23.9672C24.9063 24.0032 25.037 23.99 25.1493 23.9304C25.2615 23.8709 25.3466 23.7696 25.3864 23.6478C25.4674 23.3871 25.3137 23.1129 25.0565 23.032ZM26.7752 21.1194C26.6991 21.0967 26.6194 21.0895 26.5406 21.0981C26.4618 21.1067 26.3854 21.131 26.3159 21.1696C26.2464 21.2082 26.1851 21.2603 26.1356 21.3229C26.086 21.3856 26.0492 21.4575 26.0273 21.5346C26.0046 21.6116 25.9972 21.6923 26.0055 21.7722C26.0138 21.8521 26.0376 21.9296 26.0756 22.0001C26.1136 22.0706 26.165 22.1328 26.2269 22.1832C26.2887 22.2335 26.3598 22.271 26.4361 22.2934C26.5899 22.3385 26.7551 22.3202 26.8957 22.2425C27.0363 22.1648 27.1408 22.0341 27.1865 21.8788C27.2307 21.7229 27.2123 21.5557 27.1352 21.4135C27.0582 21.2713 26.9288 21.1656 26.7752 21.1194ZM28.9774 19.7712C28.782 19.7141 28.5722 19.7372 28.3935 19.8355C28.2148 19.9338 28.0815 20.0993 28.0226 20.2963C27.9662 20.4942 27.9896 20.7067 28.0876 20.8873C28.1856 21.0678 28.3503 21.2018 28.5456 21.2599C28.6422 21.2891 28.7435 21.2986 28.8438 21.288C28.9441 21.2773 29.0413 21.2467 29.1298 21.1978C29.2183 21.1489 29.2963 21.0828 29.3594 21.0033C29.4225 20.9237 29.4694 20.8323 29.4974 20.7343C29.5526 20.5368 29.529 20.3254 29.4318 20.1453C29.3346 19.9652 29.1714 19.8309 28.9774 19.7712ZM31.4163 19.2192C31.3075 19.1862 31.1934 19.1754 31.0804 19.1873C30.9674 19.1992 30.8579 19.2336 30.7581 19.2885C30.6584 19.3435 30.5703 19.4178 30.4991 19.5073C30.4279 19.5969 30.3749 19.6998 30.3431 19.8101C30.3108 19.9201 30.3002 20.0354 30.3121 20.1495C30.3239 20.2636 30.3579 20.3742 30.4121 20.475C30.4663 20.5758 30.5397 20.6647 30.628 20.7367C30.7163 20.8087 30.8178 20.8623 30.9266 20.8945C31.146 20.9593 31.3817 20.9336 31.5825 20.8231C31.7832 20.7126 31.9325 20.5262 31.9978 20.3046C32.0305 20.1947 32.0415 20.0793 32.0299 19.9652C32.0184 19.851 31.9846 19.7402 31.9306 19.6393C31.8765 19.5384 31.8032 19.4493 31.715 19.3772C31.6267 19.3051 31.5252 19.2514 31.4163 19.2192ZM23.97 25.3998C23.9243 25.386 23.8764 25.3816 23.8289 25.3867C23.7815 25.3918 23.7356 25.4063 23.6937 25.4294C23.6519 25.4525 23.615 25.4838 23.5851 25.5214C23.5552 25.559 23.533 25.6022 23.5197 25.6486C23.5058 25.6952 23.501 25.7442 23.5057 25.7927C23.5105 25.8413 23.5246 25.8884 23.5474 25.9313C23.5701 25.9743 23.601 26.0124 23.6383 26.0433C23.6755 26.0742 23.7185 26.0973 23.7646 26.1114C23.9603 26.1685 24.1621 26.0544 24.219 25.8585C24.2325 25.8118 24.2368 25.7629 24.2317 25.7146C24.2265 25.6662 24.2119 25.6194 24.1887 25.5768C24.1656 25.5341 24.1344 25.4966 24.0968 25.4662C24.0593 25.4358 24.0162 25.4132 23.97 25.3998ZM38.7679 27.6255C38.7495 27.6879 38.7435 27.7534 38.7503 27.8182C38.7571 27.8829 38.7765 27.9457 38.8074 28.0028C38.8383 28.0599 38.8801 28.1103 38.9304 28.151C38.9807 28.1916 39.0385 28.2218 39.1004 28.2397C39.2248 28.2767 39.3587 28.2623 39.4726 28.1994C39.5865 28.1366 39.671 28.0305 39.7077 27.9046C39.7443 27.7787 39.7299 27.6432 39.6678 27.528C39.6057 27.4127 39.5009 27.3272 39.3765 27.2901C39.2518 27.2533 39.1178 27.2679 39.0038 27.3307C38.8898 27.3936 38.8049 27.4995 38.7679 27.6255ZM38.2024 25.1505C38.1794 25.2277 38.1719 25.3087 38.1801 25.3889C38.1884 25.4691 38.2122 25.5468 38.2503 25.6177C38.2884 25.6885 38.34 25.7509 38.4021 25.8014C38.4643 25.8519 38.5356 25.8895 38.6122 25.9119C38.9349 26.0083 39.2679 25.8217 39.3621 25.4972C39.4564 25.1727 39.2745 24.8343 38.9544 24.741C38.8784 24.7178 38.7987 24.7101 38.7198 24.7182C38.6409 24.7262 38.5643 24.7499 38.4945 24.788C38.4246 24.826 38.3629 24.8776 38.3128 24.9398C38.2626 25.002 38.2251 25.0736 38.2024 25.1505ZM36.8705 22.9242C36.8421 23.022 36.8331 23.1245 36.8439 23.2258C36.8548 23.3271 36.8852 23.4252 36.9335 23.5146C36.9818 23.604 37.047 23.683 37.1255 23.7468C37.2039 23.8107 37.294 23.8584 37.3907 23.887C37.4873 23.9157 37.5886 23.9248 37.6887 23.9139C37.7888 23.9029 37.8858 23.8721 37.9742 23.8232C38.0625 23.7744 38.1405 23.7084 38.2037 23.629C38.2668 23.5496 38.3139 23.4584 38.3422 23.3607C38.3709 23.2631 38.3801 23.1607 38.3694 23.0594C38.3587 22.9582 38.3283 22.8601 38.2799 22.7708C38.2315 22.6816 38.1661 22.6029 38.0874 22.5394C38.0088 22.4758 37.9185 22.4287 37.8217 22.4007C37.627 22.3438 37.4179 22.3669 37.2399 22.4649C37.0618 22.5628 36.9291 22.7279 36.8705 22.9242ZM34.9961 21.1951C34.932 21.4174 34.9578 21.6563 35.0679 21.8593C35.1779 22.0623 35.3632 22.2128 35.5829 22.2776C35.8026 22.3424 36.0387 22.3163 36.2393 22.2049C36.44 22.0936 36.5887 21.9062 36.6527 21.6839C36.6851 21.574 36.6957 21.4588 36.6839 21.3449C36.6721 21.2309 36.6382 21.1204 36.5841 21.0197C36.53 20.919 36.4567 20.8302 36.3685 20.7583C36.2804 20.6863 36.179 20.6327 36.0703 20.6006C35.8499 20.5354 35.613 20.5614 35.4116 20.6729C35.2102 20.7844 35.0607 20.9722 34.9961 21.1951ZM38.5697 30.1238C38.5432 30.2176 38.5541 30.318 38.6 30.4038C38.6458 30.4895 38.723 30.5537 38.815 30.5826C38.8611 30.5966 38.9095 30.6012 38.9573 30.5961C39.0052 30.591 39.0516 30.5763 39.0937 30.5529C39.1359 30.5295 39.1731 30.4979 39.2031 30.4598C39.2331 30.4217 39.2553 30.378 39.2684 30.3312C39.2823 30.2846 39.2869 30.2358 39.282 30.1874C39.2771 30.1391 39.2628 30.0922 39.2399 30.0495C39.217 30.0068 39.1859 29.9691 39.1485 29.9386C39.1111 29.9081 39.0681 29.8855 39.022 29.8719C38.929 29.8455 38.8295 29.8571 38.7449 29.9043C38.6603 29.9514 38.5974 30.0302 38.5697 30.1238ZM30.1357 35.8897C30.1728 35.763 30.1849 35.6301 30.1711 35.4986C30.1574 35.3672 30.1181 35.2397 30.0555 35.1237C29.993 35.0076 29.9084 34.9052 29.8067 34.8223C29.7049 34.7394 29.588 34.6776 29.4626 34.6406C29.3377 34.6034 29.2068 34.5915 29.0773 34.6055C28.9479 34.6196 28.8224 34.6593 28.7082 34.7225C28.594 34.7857 28.4932 34.871 28.4115 34.9736C28.3299 35.0763 28.2691 35.1942 28.2326 35.3206C28.1955 35.4473 28.1836 35.5801 28.1974 35.7115C28.2112 35.8428 28.2504 35.9701 28.313 36.0861C28.3755 36.2021 28.4601 36.3044 28.5618 36.3872C28.6635 36.47 28.7804 36.5317 28.9057 36.5687C29.4313 36.7227 29.9861 36.4169 30.1357 35.8897ZM24.0207 28.3543C24.0576 28.2284 24.0436 28.0929 23.9817 27.9775C23.9198 27.8621 23.8152 27.7763 23.6908 27.739C23.5659 27.7032 23.432 27.7184 23.318 27.7814C23.204 27.8444 23.119 27.9502 23.0812 28.0759C23.0633 28.1382 23.0577 28.2034 23.0647 28.2679C23.0717 28.3324 23.0913 28.3948 23.1222 28.4517C23.1532 28.5085 23.1949 28.5586 23.245 28.5991C23.2951 28.6395 23.3526 28.6696 23.4142 28.6875C23.4756 28.7063 23.5402 28.7125 23.604 28.7059C23.6679 28.6993 23.7298 28.6799 23.7862 28.6489C23.8426 28.6179 23.8923 28.5759 23.9326 28.5253C23.9729 28.4748 24.0028 28.4166 24.0207 28.3543ZM24.5873 30.8277C24.6098 30.7512 24.6172 30.6709 24.6088 30.5916C24.6005 30.5122 24.5767 30.4353 24.5388 30.3652C24.5008 30.2952 24.4495 30.2336 24.3879 30.1837C24.3262 30.1339 24.2554 30.097 24.1795 30.0751C24.1037 30.0511 24.0238 30.0427 23.9447 30.0505C23.8656 30.0583 23.7888 30.082 23.7189 30.1203C23.6491 30.1587 23.5875 30.2108 23.5379 30.2736C23.4883 30.3365 23.4516 30.4087 23.4301 30.4861C23.3853 30.6414 23.4033 30.8083 23.4802 30.9501C23.5571 31.092 23.6864 31.1971 23.8399 31.2424C23.9934 31.2877 24.1583 31.2694 24.2985 31.1917C24.4386 31.1139 24.5425 30.983 24.5873 30.8277ZM25.9212 33.0571C25.9774 32.8584 25.9539 32.6454 25.8559 32.4642C25.7579 32.2829 25.5933 32.1481 25.3977 32.0888C25.2023 32.0319 24.9925 32.0556 24.8143 32.1548C24.6361 32.254 24.504 32.4205 24.4469 32.618C24.4182 32.7157 24.4088 32.8182 24.4194 32.9196C24.43 33.021 24.4602 33.1193 24.5085 33.2088C24.5567 33.2983 24.6219 33.3772 24.7004 33.4411C24.7789 33.505 24.8691 33.5526 24.9659 33.5811C25.0626 33.6104 25.1641 33.62 25.2645 33.6095C25.365 33.599 25.4624 33.5685 25.5511 33.5199C25.6399 33.4712 25.7183 33.4052 25.7818 33.3258C25.8453 33.2464 25.8927 33.1551 25.9212 33.0571ZM27.7956 34.7888C27.8592 34.566 27.833 34.3269 27.7227 34.1236C27.6124 33.9204 27.4269 33.7697 27.207 33.7045C27.0983 33.672 26.9843 33.6617 26.8717 33.6741C26.759 33.6865 26.6499 33.7213 26.5506 33.7767C26.4513 33.832 26.3639 33.9067 26.2933 33.9964C26.2227 34.0862 26.1704 34.1892 26.1395 34.2995C26.1075 34.4092 26.0973 34.5242 26.1093 34.638C26.1213 34.7517 26.1554 34.8619 26.2096 34.9623C26.2638 35.0627 26.3371 35.1513 26.4251 35.223C26.5132 35.2947 26.6144 35.3481 26.7229 35.3802C26.9427 35.4447 27.1787 35.4188 27.3797 35.308C27.5806 35.1973 27.7301 35.0106 27.7956 34.7888ZM37.7306 32.9461C37.8555 32.9836 37.99 32.9694 38.1046 32.9067C38.2192 32.8439 38.3045 32.7376 38.3417 32.6113C38.3774 32.4851 38.3627 32.3498 38.3007 32.2345C38.2387 32.1192 38.1344 32.0332 38.0103 31.995C37.8856 31.9589 37.7519 31.9739 37.6382 32.0368C37.5244 32.0996 37.4396 32.2053 37.4022 32.3309C37.3657 32.4565 37.3797 32.5917 37.4412 32.7069C37.5027 32.8221 37.6067 32.9081 37.7306 32.9461ZM36.015 34.8614C36.1679 34.907 36.3325 34.8894 36.4725 34.8123C36.6126 34.7352 36.7166 34.605 36.7619 34.4503C36.7851 34.3734 36.793 34.2926 36.7851 34.2126C36.7773 34.1326 36.7539 34.0549 36.7162 33.9841C36.6785 33.9133 36.6273 33.8508 36.5656 33.8001C36.5039 33.7494 36.4329 33.7116 36.3567 33.6889C36.2025 33.6431 36.0366 33.661 35.8954 33.7385C35.7541 33.8159 35.6489 33.9468 35.6026 34.1025C35.5595 34.2585 35.5785 34.4253 35.6556 34.5672C35.7327 34.7091 35.8617 34.8147 36.015 34.8614ZM33.8127 36.2101C33.9096 36.2393 34.0112 36.2488 34.1117 36.2381C34.2123 36.2273 34.3097 36.1966 34.3984 36.1476C34.4871 36.0986 34.5654 36.0323 34.6287 35.9525C34.6919 35.8728 34.739 35.7812 34.7671 35.6829C34.7953 35.5852 34.8043 35.4829 34.7934 35.3817C34.7825 35.2805 34.7521 35.1825 34.7037 35.0933C34.6554 35.004 34.5901 34.9253 34.5117 34.8616C34.4333 34.7978 34.3432 34.7504 34.2466 34.7219C34.1501 34.6931 34.0488 34.6838 33.9487 34.6946C33.8486 34.7053 33.7515 34.7359 33.6631 34.7846C33.5747 34.8334 33.4966 34.8992 33.4333 34.9785C33.37 35.0577 33.3228 35.1488 33.2943 35.2465C33.2658 35.3442 33.2566 35.4466 33.2673 35.5479C33.2779 35.6492 33.3082 35.7474 33.3563 35.8369C33.4044 35.9264 33.4695 36.0054 33.5478 36.0694C33.6262 36.1334 33.7162 36.1812 33.8127 36.2101ZM31.3759 36.76C31.4842 36.7934 31.598 36.8048 31.7107 36.7933C31.8234 36.7818 31.9327 36.7478 32.0323 36.6932C32.1318 36.6386 32.2197 36.5645 32.2907 36.4753C32.3618 36.386 32.4145 36.2833 32.446 36.1733C32.4779 36.0632 32.4881 35.9478 32.4759 35.8337C32.4638 35.7196 32.4296 35.6091 32.3752 35.5084C32.2654 35.305 32.0802 35.1541 31.8605 35.0889C31.6407 35.0237 31.4044 35.0495 31.2034 35.1606C31.0024 35.2717 30.8533 35.459 30.7888 35.6814C30.7259 35.9032 30.7523 36.1411 30.8623 36.3433C30.9723 36.5454 31.157 36.6952 31.3759 36.76Z" fill="url(#paint1_linear_258_10922)"/>
<path d="M39.4869 21.1745C39.2547 21.4223 38.9348 21.5667 38.5975 21.5761C38.2602 21.5854 37.933 21.4589 37.6878 21.2243C37.5659 21.1085 37.4678 20.9694 37.3993 20.815C37.3307 20.6607 37.293 20.4941 37.2884 20.3249C37.2837 20.1558 37.3122 19.9874 37.3721 19.8294C37.432 19.6714 37.5223 19.527 37.6376 19.4044C37.7519 19.2811 37.8891 19.1819 38.0413 19.1123C38.1936 19.0427 38.3579 19.0042 38.5249 18.999C38.6919 18.9938 38.8582 19.022 39.0144 19.082C39.1706 19.1419 39.3136 19.2325 39.4351 19.3485C39.681 19.5839 39.8245 19.9083 39.8342 20.2507C39.8439 20.593 39.719 20.9253 39.4869 21.1745ZM26.8006 18.247C26.679 18.132 26.5175 18.0701 26.3512 18.075C26.1848 18.0798 26.0271 18.151 25.9123 18.2729C25.7987 18.3955 25.7376 18.5586 25.7424 18.7266C25.7472 18.8946 25.8175 19.0539 25.9379 19.1696C26.0594 19.2848 26.2211 19.3467 26.3875 19.3416C26.554 19.3365 26.7117 19.265 26.8262 19.1427C26.9397 19.0203 27.0007 18.8573 26.9959 18.6895C26.9911 18.5217 26.9209 18.3626 26.8006 18.247ZM29.9812 17.0227C29.8313 16.881 29.6321 16.805 29.427 16.8113C29.2219 16.8176 29.0276 16.9057 28.8865 17.0564C28.8166 17.1315 28.7621 17.2198 28.7259 17.3163C28.6898 17.4127 28.6728 17.5154 28.6758 17.6185C28.6789 17.7216 28.7021 17.8231 28.7439 17.9172C28.7858 18.0112 28.8456 18.096 28.9198 18.1667C29.07 18.3083 29.2694 18.384 29.4746 18.3774C29.6798 18.3708 29.8741 18.2824 30.015 18.1314C30.155 17.9794 30.23 17.7777 30.2237 17.57C30.2173 17.3624 30.1302 17.1657 29.9812 17.0227ZM33.3929 16.7703C33.2027 16.5898 32.9496 16.4928 32.6889 16.5004C32.4282 16.5081 32.1812 16.6198 32.0016 16.8112C31.8317 17.0052 31.743 17.2584 31.7544 17.5174C31.7659 17.7763 31.8765 18.0205 32.0628 18.1984C32.2492 18.3762 32.4966 18.4737 32.7527 18.4701C33.0089 18.4665 33.2536 18.3621 33.435 18.1791C33.6135 17.9864 33.7093 17.73 33.7014 17.4659C33.6936 17.2019 33.5826 16.9518 33.3929 16.7703ZM36.6207 17.6064C36.5151 17.5051 36.3908 17.4259 36.2548 17.3734C36.1189 17.3209 35.974 17.296 35.8285 17.3003C35.6831 17.3046 35.5399 17.3379 35.4072 17.3984C35.2745 17.4588 35.1549 17.5452 35.0553 17.6525C34.9554 17.7594 34.8773 17.8851 34.8255 18.0226C34.7736 18.16 34.7491 18.3064 34.7532 18.4535C34.7572 18.6005 34.7899 18.7453 34.8493 18.8796C34.9087 19.0138 34.9937 19.1349 35.0993 19.236C35.3134 19.4395 35.5984 19.5488 35.892 19.5402C36.1856 19.5315 36.4638 19.4056 36.6658 19.1899C36.8669 18.9736 36.975 18.6855 36.9666 18.3887C36.9581 18.0919 36.8338 17.8106 36.6207 17.6064ZM24.104 20.3908C24.0134 20.3053 23.8931 20.2594 23.7693 20.2631C23.6455 20.2668 23.5281 20.3198 23.4426 20.4105C23.4003 20.4555 23.3671 20.5086 23.3451 20.5666C23.323 20.6246 23.3125 20.6865 23.3142 20.7486C23.3159 20.8108 23.3297 20.8719 23.3548 20.9287C23.3799 20.9854 23.4159 21.0365 23.4606 21.0792C23.505 21.1222 23.5574 21.1559 23.6148 21.1782C23.6722 21.2006 23.7334 21.2113 23.7948 21.2095C23.8563 21.2078 23.9168 21.1937 23.9729 21.1681C24.0289 21.1426 24.0794 21.106 24.1214 21.0605C24.2067 20.9693 24.2528 20.8476 24.2495 20.722C24.2463 20.5965 24.1939 20.4774 24.104 20.3908ZM40.3931 32.0729C40.2788 32.1957 40.2174 32.3594 40.2222 32.5279C40.227 32.6965 40.2976 32.8563 40.4187 32.9722C40.5413 33.0826 40.7016 33.1402 40.8655 33.1328C41.0294 33.1255 41.184 33.0537 41.2964 32.9328C41.4088 32.8119 41.4702 32.6513 41.4675 32.4854C41.4648 32.3194 41.3982 32.161 41.2819 32.0439C41.16 31.929 40.9981 31.8675 40.8316 31.8729C40.665 31.8784 40.5074 31.9503 40.3931 32.0729ZM41.1973 28.7929C41.0578 28.9448 40.9833 29.1464 40.9899 29.3536C40.9965 29.5609 41.0838 29.7571 41.2327 29.8996C41.3067 29.9705 41.3937 30.0259 41.4889 30.0626C41.5841 30.0993 41.6856 30.1166 41.7874 30.1135C41.8892 30.1104 41.9894 30.087 42.0823 30.0446C42.1751 30.0022 42.2588 29.9416 42.3284 29.8664C42.3985 29.7916 42.4532 29.7035 42.4894 29.6072C42.5256 29.5109 42.5427 29.4083 42.5395 29.3053C42.5363 29.2023 42.5129 29.101 42.4708 29.0072C42.4287 28.9134 42.3687 28.8289 42.2941 28.7587C42.1439 28.6168 41.9442 28.5407 41.7388 28.5472C41.5333 28.5536 41.3387 28.6419 41.1973 28.7929ZM40.9504 25.3388C40.8617 25.4339 40.7924 25.5458 40.7464 25.6681C40.7005 25.7904 40.6789 25.9206 40.6829 26.0514C40.6868 26.1821 40.7162 26.3108 40.7695 26.43C40.8227 26.5492 40.8986 26.6566 40.993 26.7461C41.087 26.8358 41.1976 26.9059 41.3184 26.9523C41.4393 26.9987 41.568 27.0206 41.6972 27.0166C41.8264 27.0126 41.9535 26.9828 42.0713 26.929C42.1892 26.8752 42.2953 26.7984 42.3838 26.703C42.5571 26.5098 42.6485 26.2554 42.6383 25.9946C42.6281 25.7338 42.5172 25.4875 42.3293 25.3087C42.1414 25.1298 41.8916 25.0328 41.6338 25.0384C41.3759 25.0441 41.1305 25.1519 40.9504 25.3388ZM39.7589 22.1376C39.6087 22.299 39.5092 22.5019 39.473 22.7206C39.4368 22.9393 39.4655 23.164 39.5555 23.3661C39.6455 23.5683 39.7928 23.7389 39.9787 23.8563C40.1645 23.9738 40.3807 24.0328 40.5997 24.0259C40.8187 24.019 41.0308 23.9465 41.2091 23.8176C41.3874 23.6887 41.5239 23.5091 41.6014 23.3017C41.6788 23.0943 41.6936 22.8683 41.6441 22.6523C41.5945 22.4363 41.4827 22.24 41.3229 22.0884C40.8813 21.6644 40.1795 21.6887 39.7589 22.1376ZM38.6642 34.9181C38.5796 35.0099 38.5344 35.1317 38.5382 35.2572C38.542 35.3826 38.5947 35.5014 38.6847 35.5877C38.7295 35.6302 38.7821 35.6632 38.8396 35.685C38.8971 35.7068 38.9583 35.7168 39.0196 35.7145C39.0809 35.7123 39.1412 35.6978 39.197 35.6718C39.2527 35.6459 39.3029 35.609 39.3445 35.5634C39.387 35.5188 39.4203 35.4661 39.4424 35.4083C39.4645 35.3505 39.475 35.2888 39.4731 35.2269C39.4712 35.1649 39.4571 35.104 39.4316 35.0476C39.4061 34.9913 39.3697 34.9407 39.3245 34.8989C39.2802 34.8558 39.2278 34.822 39.1704 34.7996C39.113 34.7772 39.0518 34.7666 38.9904 34.7684C38.9289 34.7702 38.8684 34.7843 38.8124 34.81C38.7564 34.8357 38.706 34.8724 38.6642 34.9181ZM25.1526 36.5736C25.3807 36.3242 25.5023 35.9938 25.491 35.6543C25.4796 35.3147 25.3362 34.9933 25.0919 34.7602C24.8476 34.527 24.5223 34.4009 24.1865 34.4092C23.8508 34.4175 23.5319 34.5596 23.2992 34.8045C23.0791 35.0552 22.9641 35.3829 22.9787 35.7179C22.9933 36.0529 23.1364 36.369 23.3774 36.5991C23.6185 36.8292 23.9387 36.9553 24.2701 36.9505C24.6015 36.9458 24.9181 36.8106 25.1526 36.5736ZM22.3966 23.9046C22.4532 23.8439 22.4974 23.7725 22.5268 23.6944C22.5561 23.6164 22.57 23.5333 22.5676 23.4499C22.5652 23.3665 22.5466 23.2843 22.5128 23.2082C22.479 23.132 22.4307 23.0633 22.3707 23.0061C22.3107 22.9488 22.2401 22.904 22.163 22.8743C22.0859 22.8447 22.0038 22.8306 21.9214 22.8331C21.8389 22.8355 21.7577 22.8543 21.6825 22.8885C21.6072 22.9227 21.5393 22.9715 21.4827 23.0322C21.2419 23.2862 21.2563 23.6869 21.5109 23.9295C21.7604 24.1679 22.1569 24.158 22.3966 23.9046ZM21.5893 27.1861C21.7295 27.0342 21.8049 26.8325 21.799 26.6246C21.793 26.4168 21.7062 26.2198 21.5575 26.0764C21.4069 25.9399 21.2097 25.8684 21.0078 25.8769C20.8058 25.8854 20.6152 25.9733 20.4764 26.1219C20.3375 26.2706 20.2616 26.4682 20.2646 26.6726C20.2676 26.8771 20.3494 27.0723 20.4925 27.2167C20.6423 27.3591 20.8416 27.4358 21.0471 27.4301C21.2526 27.4243 21.4474 27.3367 21.5893 27.1861ZM21.8377 30.6387C22.0171 30.4459 22.1135 30.189 22.1057 29.9243C22.0979 29.6597 21.9866 29.409 21.7962 29.2273C21.6057 29.0464 21.352 28.9493 21.0909 28.9575C20.8297 28.9657 20.5825 29.0784 20.4034 29.2708C20.225 29.4636 20.1294 29.72 20.1374 29.984C20.1455 30.2479 20.2566 30.4979 20.4464 30.6791C20.8439 31.0591 21.4658 31.0389 21.8377 30.6387ZM23.0272 33.841C23.2283 33.6246 23.3365 33.3363 23.328 33.0394C23.3194 32.7425 23.1949 32.4611 22.9816 32.2569C22.876 32.156 22.7517 32.0772 22.616 32.0251C22.4802 31.9729 22.3356 31.9483 22.1904 31.9529C22.0452 31.9574 21.9024 31.9909 21.77 32.0514C21.6377 32.112 21.5184 32.1984 21.4192 32.3057C21.319 32.4123 21.2406 32.538 21.1885 32.6753C21.1364 32.8127 21.1115 32.9591 21.1154 33.1062C21.1193 33.2533 21.1519 33.3982 21.2112 33.5326C21.2705 33.6669 21.3555 33.7881 21.4612 33.8892C21.6759 34.0914 21.9608 34.1998 22.254 34.1908C22.5472 34.1818 22.8251 34.0561 23.0272 33.841ZM35.9876 37.7305C36.0475 37.7879 36.1181 37.8327 36.1952 37.8623C36.2723 37.892 36.3544 37.906 36.4369 37.9034C36.5193 37.9009 36.6004 37.8818 36.6756 37.8475C36.7508 37.8131 36.8185 37.764 36.8748 37.703C36.9314 37.6425 36.9756 37.5713 37.0048 37.4935C37.0341 37.4156 37.0478 37.3327 37.0453 37.2495C37.0428 37.1662 37.024 37.0843 36.9901 37.0085C36.9562 36.9326 36.9078 36.8642 36.8477 36.8074C36.7879 36.75 36.7176 36.7052 36.6407 36.6755C36.5638 36.6457 36.4818 36.6316 36.3995 36.634C36.3172 36.6365 36.2362 36.6553 36.1611 36.6895C36.086 36.7237 36.0183 36.7725 35.962 36.8333C35.8478 36.9557 35.7864 37.119 35.7912 37.2873C35.796 37.4555 35.8667 37.6149 35.9876 37.7305ZM32.8069 38.9532C33.1194 39.2513 33.6091 39.2316 33.9027 38.9185C33.9726 38.8439 34.0272 38.756 34.0635 38.66C34.0997 38.5639 34.1169 38.4616 34.1139 38.3588C34.111 38.256 34.088 38.1548 34.0463 38.0611C34.0046 37.9673 33.945 37.8828 33.8709 37.8124C33.7206 37.6699 33.5206 37.5934 33.3148 37.5998C33.1089 37.6062 32.9139 37.695 32.7726 37.8466C32.6328 37.9983 32.558 38.1998 32.5644 38.4071C32.5708 38.6144 32.658 38.8107 32.8069 38.9532ZM29.3932 39.2026C29.7927 39.5835 30.4115 39.5649 30.784 39.1647C30.8729 39.0699 30.9425 38.9581 30.9888 38.836C31.035 38.7138 31.0569 38.5837 31.0533 38.4529C31.0497 38.3222 31.0206 38.1934 30.9677 38.0741C30.9148 37.9547 30.8391 37.8471 30.745 37.7575C30.5546 37.5763 30.3011 37.4787 30.0398 37.4861C29.7785 37.4935 29.5308 37.6052 29.3506 37.7969C29.262 37.8919 29.1929 38.0037 29.147 38.1258C29.1012 38.248 29.0797 38.3781 29.0836 38.5086C29.0876 38.6392 29.1169 38.7677 29.1701 38.8868C29.2232 39.0059 29.299 39.1132 29.3932 39.2026ZM26.172 38.3712C26.2775 38.4721 26.4017 38.551 26.5374 38.6033C26.6731 38.6557 26.8176 38.6804 26.9628 38.676C27.1079 38.6717 27.2508 38.6384 27.3832 38.5781C27.5157 38.5178 27.635 38.4316 27.7344 38.3245C27.834 38.2174 27.9117 38.0915 27.9631 37.954C28.0146 37.8165 28.0387 37.6701 28.0343 37.5232C28.0298 37.3762 27.9968 37.2316 27.937 37.0976C27.8773 36.9636 27.7921 36.8428 27.6863 36.7421C27.5804 36.6413 27.456 36.5627 27.3201 36.5107C27.1842 36.4586 27.0396 36.4341 26.8943 36.4387C26.7491 36.4432 26.6062 36.4766 26.4737 36.537C26.3413 36.5974 26.2219 36.6837 26.1223 36.7908C26.0228 36.8977 25.9452 37.0235 25.8938 37.1609C25.8425 37.2983 25.8184 37.4446 25.823 37.5914C25.8277 37.7382 25.8609 37.8827 25.9207 38.0165C25.9806 38.1503 26.066 38.2708 26.172 38.3712Z" fill="url(#paint2_linear_258_10922)"/>
<path d="M44.6557 23.9021C44.2798 24.0655 43.8551 24.0713 43.475 23.9182C43.0949 23.765 42.7905 23.4654 42.6286 23.0852C42.5483 22.8969 42.5054 22.6945 42.5025 22.4895C42.4996 22.2845 42.5368 22.0809 42.6118 21.8904C42.6868 21.6999 42.7982 21.5263 42.9396 21.3794C43.081 21.2326 43.2497 21.1154 43.4359 21.0347C43.8099 20.8812 44.2284 20.8822 44.6017 21.0373C44.975 21.1923 45.2734 21.4892 45.4329 21.8643C45.5925 22.2393 45.6004 22.6627 45.4551 23.0436C45.3099 23.4245 45.0228 23.7327 44.6557 23.9021ZM33.8268 13.9703C33.8053 13.8593 33.7624 13.7537 33.7004 13.6595C33.6384 13.5654 33.5586 13.4846 33.4656 13.4218C33.3726 13.3589 33.2683 13.3153 33.1585 13.2935C33.0488 13.2716 32.9359 13.272 32.8264 13.2944C32.7166 13.3161 32.6121 13.3595 32.5189 13.4222C32.4258 13.4848 32.3458 13.5656 32.2837 13.6597C32.2215 13.7538 32.1784 13.8594 32.1568 13.9705C32.1352 14.0815 32.1356 14.1958 32.1579 14.3067C32.2084 14.5241 32.3405 14.7131 32.5261 14.8339C32.7117 14.9547 32.9365 14.9978 33.1529 14.9542C33.3694 14.9106 33.5606 14.7836 33.6863 14.6001C33.8121 14.4165 33.8624 14.1907 33.8268 13.9703ZM37.4798 14.7743C37.4466 14.6415 37.3878 14.5166 37.3067 14.4068C37.2257 14.2971 37.124 14.2046 37.0075 14.1347C36.891 14.0648 36.762 14.0189 36.628 13.9996C36.4939 13.9803 36.3574 13.988 36.2263 14.0222C36.0949 14.0556 35.9713 14.115 35.8627 14.197C35.7541 14.2789 35.6625 14.3818 35.5933 14.4997C35.5242 14.6176 35.4787 14.7481 35.4596 14.8839C35.4405 15.0196 35.4481 15.1578 35.482 15.2905C35.5155 15.4233 35.5745 15.548 35.6556 15.6577C35.7368 15.7673 35.8385 15.8597 35.9549 15.9296C36.0714 15.9995 36.2003 16.0455 36.3343 16.065C36.4683 16.0845 36.6048 16.077 36.736 16.0431C36.8672 16.0093 36.9905 15.9495 37.0988 15.8674C37.2072 15.7853 37.2985 15.6824 37.3676 15.5646C37.4367 15.4468 37.4821 15.3163 37.5014 15.1807C37.5206 15.0451 37.5133 14.907 37.4798 14.7743ZM40.848 16.4189C40.7981 16.2558 40.7168 16.1042 40.6088 15.9729C40.5008 15.8416 40.3682 15.7332 40.2187 15.6539C40.0692 15.5746 39.9057 15.526 39.7375 15.5109C39.5694 15.4958 39.3999 15.5144 39.2389 15.5658C39.0776 15.6163 38.9278 15.6986 38.798 15.8079C38.6681 15.9172 38.5609 16.0513 38.4824 16.2026C38.404 16.3539 38.3558 16.5194 38.3406 16.6896C38.3255 16.8598 38.3437 17.0313 38.3942 17.1944C38.5027 17.5151 38.7305 17.7803 39.0293 17.9336C39.3282 18.0869 39.6743 18.1161 39.9941 18.015C40.3139 17.914 40.582 17.6906 40.7415 17.3925C40.901 17.0944 40.9392 16.7451 40.848 16.4189ZM43.5343 18.8416C43.4699 18.6649 43.3717 18.5028 43.2452 18.3646C43.1188 18.2264 42.9667 18.1148 42.7976 18.0362C42.6285 17.9575 42.4457 17.9134 42.2597 17.9064C42.0737 17.8994 41.8882 17.9295 41.7137 17.9952C41.5388 18.06 41.3783 18.1592 41.2415 18.287C41.1046 18.4148 40.994 18.5688 40.9161 18.7399C40.8383 18.9111 40.7946 19.0962 40.7876 19.2845C40.7807 19.4729 40.8106 19.6607 40.8756 19.8373C41.0061 20.1941 41.2713 20.4837 41.6129 20.6426C41.9545 20.8015 42.3444 20.8166 42.697 20.6845C43.0496 20.5525 43.3358 20.2841 43.4929 19.9385C43.6499 19.5929 43.6648 19.1983 43.5343 18.8416ZM26.5045 14.9391C26.4722 14.8634 26.4256 14.7949 26.3672 14.7375C26.3087 14.6801 26.2397 14.635 26.1639 14.6046C26.0882 14.5743 26.0073 14.5594 25.9259 14.5607C25.8445 14.5621 25.7641 14.5797 25.6894 14.6126C25.5388 14.6783 25.4201 14.802 25.3595 14.9563C25.299 15.1106 25.3014 15.283 25.3665 15.4354C25.4315 15.5879 25.5537 15.7079 25.7062 15.7692C25.8587 15.8305 26.029 15.828 26.1797 15.7622C26.4937 15.6254 26.6402 15.2563 26.5045 14.9391ZM41.9555 35.6168C41.7768 35.7513 41.6573 35.9511 41.6225 36.1736C41.5876 36.3961 41.6402 36.6235 41.7691 36.8073C41.8979 36.991 42.0927 37.1164 42.3117 37.1566C42.5308 37.1969 42.7567 37.1487 42.9411 37.0225C43.0323 36.9571 43.1099 36.874 43.1694 36.7781C43.2288 36.6823 43.269 36.5755 43.2876 36.4638C43.3062 36.3522 43.3029 36.238 43.2778 36.1277C43.2527 36.0174 43.2064 35.9132 43.1414 35.8211C43.0768 35.7288 42.9949 35.6504 42.9003 35.5902C42.8057 35.53 42.7004 35.4893 42.5903 35.4703C42.4801 35.4514 42.3674 35.4545 42.2585 35.4797C42.1496 35.5048 42.0466 35.5514 41.9555 35.6168ZM43.648 32.257C43.5308 32.3289 43.4289 32.4236 43.3483 32.5358C43.2677 32.6479 43.21 32.7752 43.1786 32.9102C43.1471 33.0452 43.1426 33.1852 43.1653 33.3219C43.1879 33.4587 43.2373 33.5895 43.3105 33.7068C43.3837 33.824 43.4793 33.9253 43.5916 34.0047C43.704 34.0842 43.8308 34.1401 43.9648 34.1694C44.0988 34.1986 44.2372 34.2006 44.3719 34.1751C44.5066 34.1496 44.6349 34.0972 44.7494 34.0209C44.975 33.8706 45.1333 33.6367 45.1903 33.3695C45.2472 33.1023 45.1983 32.8232 45.0541 32.5922C44.9098 32.3611 44.6816 32.1965 44.4187 32.1339C44.1558 32.0712 43.8791 32.1154 43.648 32.257ZM44.4487 28.4763C44.1515 28.6456 43.9329 28.9273 43.8408 29.2596C43.7487 29.5918 43.7906 29.9475 43.9574 30.2485C44.0401 30.3973 44.151 30.5282 44.2837 30.6336C44.4164 30.7389 44.5684 30.8168 44.7309 30.8627C44.8934 30.9086 45.0632 30.9216 45.2307 30.9009C45.3982 30.8803 45.56 30.8265 45.7068 30.7425C45.8543 30.6593 45.984 30.5475 46.0886 30.4135C46.1932 30.2794 46.2706 30.1258 46.3163 29.9614C46.362 29.797 46.3751 29.6251 46.3549 29.4555C46.3347 29.286 46.2816 29.1221 46.1986 28.9734C46.1161 28.8244 46.0054 28.6932 45.8727 28.5876C45.7401 28.4819 45.5881 28.4037 45.4256 28.3576C45.263 28.3114 45.0931 28.2981 44.9254 28.3185C44.7578 28.3389 44.5958 28.3925 44.4487 28.4763ZM44.4 24.6853C44.0639 24.8542 43.8077 25.1512 43.6877 25.511C43.5676 25.8708 43.5935 26.2641 43.7597 26.6046C43.842 26.7738 43.9565 26.9249 44.0966 27.0491C44.2368 27.1734 44.3999 27.2683 44.5764 27.3286C44.753 27.3889 44.9396 27.4132 45.1255 27.4003C45.3114 27.3873 45.493 27.3373 45.6597 27.2531C45.8267 27.1699 45.9758 27.0542 46.0984 26.9126C46.221 26.771 46.3148 26.6062 46.3743 26.4278C46.4338 26.2494 46.4579 26.0608 46.4451 25.873C46.4324 25.6851 46.3831 25.5017 46.3 25.3332C46.1327 24.9926 45.8387 24.733 45.4825 24.6115C45.1263 24.4901 44.737 24.5166 44.4 24.6853ZM36.6038 40.2191C36.5292 40.2516 36.4616 40.2988 36.405 40.3578C36.3483 40.4168 36.3037 40.4865 36.2737 40.5629C36.2437 40.6393 36.2289 40.721 36.23 40.8032C36.2312 40.8855 36.2484 40.9667 36.2806 41.0422C36.3456 41.1947 36.4678 41.3149 36.6204 41.3762C36.6959 41.4066 36.7766 41.4216 36.8579 41.4204C36.9392 41.4192 37.0194 41.4018 37.0941 41.3692C37.4081 41.2324 37.5546 40.8639 37.4194 40.5451C37.3539 40.3925 37.2312 40.2724 37.0783 40.2113C36.9254 40.1502 36.7547 40.153 36.6038 40.2191ZM19.3491 34.9451C19.7244 34.7805 20.0197 34.4719 20.1702 34.0872C20.3208 33.7024 20.3141 33.2729 20.1518 32.893C20.072 32.705 19.9562 32.5347 19.8113 32.392C19.6663 32.2493 19.4949 32.137 19.3069 32.0614C19.119 31.9858 18.9181 31.9484 18.7159 31.9515C18.5137 31.9546 18.314 31.998 18.1284 32.0792C17.9421 32.16 17.7734 32.2772 17.632 32.424C17.4906 32.5709 17.3792 32.7445 17.3043 32.935C17.2293 33.1255 17.1923 33.3291 17.1952 33.5341C17.1982 33.7391 17.2411 33.9415 17.3215 34.1297C17.4838 34.5097 17.7885 34.809 18.1686 34.9618C18.5488 35.1147 18.9733 35.1087 19.3491 34.9451ZM20.8275 20.3634C20.9186 20.2982 20.9962 20.2154 21.0557 20.1199C21.1152 20.0243 21.1556 19.9178 21.1744 19.8065C21.1932 19.6952 21.1902 19.5812 21.1655 19.471C21.1408 19.3609 21.0949 19.2567 21.0304 19.1645C20.9662 19.0719 20.8845 18.993 20.7901 18.9324C20.6956 18.8719 20.5903 18.8308 20.48 18.8117C20.3698 18.7926 20.257 18.7957 20.148 18.821C20.039 18.8462 19.936 18.893 19.845 18.9588C19.7533 19.0239 19.6753 19.1067 19.6154 19.2025C19.5556 19.2982 19.515 19.405 19.4962 19.5167C19.4773 19.6284 19.4805 19.7428 19.5056 19.8533C19.5306 19.9637 19.577 20.068 19.6421 20.1602C19.7729 20.346 19.9711 20.4716 20.1933 20.5097C20.4155 20.5478 20.6436 20.4952 20.8275 20.3634ZM19.1365 23.7227C19.2512 23.6494 19.3504 23.5539 19.4286 23.4417C19.5067 23.3295 19.5623 23.2028 19.592 23.0689C19.6217 22.9349 19.6251 22.7964 19.6019 22.6612C19.5786 22.5259 19.5293 22.3967 19.4567 22.2807C19.3103 22.0471 19.0782 21.8819 18.8114 21.8214C18.5446 21.761 18.265 21.8102 18.0341 21.9583C17.8032 22.1065 17.6399 22.3413 17.5802 22.6113C17.5204 22.8812 17.5691 23.1641 17.7155 23.3977C17.8613 23.6315 18.093 23.7971 18.3595 23.858C18.626 23.919 18.9055 23.8703 19.1365 23.7227ZM18.3333 27.5039C18.4854 27.4231 18.62 27.3122 18.7291 27.1778C18.8382 27.0434 18.9195 26.8883 18.9683 26.7215C19.017 26.5548 19.0322 26.3798 19.013 26.207C18.9938 26.0342 18.9405 25.8671 18.8563 25.7155C18.7721 25.5639 18.6588 25.4309 18.5229 25.3244C18.387 25.2179 18.2314 25.1401 18.0653 25.0955C17.8992 25.0509 17.7259 25.0405 17.5558 25.0648C17.3856 25.0892 17.222 25.1478 17.0746 25.2373C16.7788 25.4068 16.5614 25.6881 16.4701 26.0194C16.3788 26.3508 16.421 26.7053 16.5876 27.0053C16.7541 27.3052 17.0314 27.5261 17.3586 27.6196C17.6858 27.713 18.0363 27.6715 18.3333 27.5039ZM18.383 31.296C18.7198 31.1271 18.9764 30.8297 19.0965 30.4692C19.2166 30.1088 19.1903 29.7149 19.0233 29.3741C18.9411 29.2048 18.8266 29.0536 18.6864 28.9293C18.5462 28.805 18.383 28.71 18.2064 28.6497C18.0297 28.5895 17.843 28.5653 17.657 28.5784C17.471 28.5915 17.2895 28.6417 17.1228 28.7262C16.956 28.8096 16.8071 28.9254 16.6845 29.0671C16.562 29.2088 16.4683 29.3735 16.4087 29.5519C16.3492 29.7302 16.3249 29.9187 16.3374 30.1065C16.3499 30.2944 16.3988 30.4779 16.4814 30.6466C16.6486 30.9877 16.9428 31.2477 17.2994 31.3694C17.6559 31.4912 18.0456 31.4648 18.383 31.296ZM28.9562 42.012C28.978 42.1231 29.0213 42.2287 29.0835 42.3229C29.1457 42.417 29.2257 42.4979 29.3188 42.5608C29.4119 42.6237 29.5163 42.6674 29.6261 42.6895C29.7359 42.7116 29.8489 42.7116 29.9587 42.6894C30.1802 42.6438 30.3747 42.5112 30.4998 42.3207C30.6248 42.1301 30.6701 41.8972 30.6257 41.673C30.5807 41.4494 30.45 41.2528 30.2623 41.1264C30.0745 40.9999 29.8449 40.9538 29.6237 40.9981C29.4024 41.0433 29.2079 41.1754 29.0828 41.3654C28.9576 41.5555 28.9121 41.788 28.9562 42.012ZM25.3052 41.206C25.3384 41.3388 25.3971 41.4638 25.4781 41.5736C25.559 41.6834 25.6606 41.776 25.7771 41.846C25.8935 41.916 26.0225 41.962 26.1565 41.9814C26.2906 42.0008 26.4271 41.9932 26.5582 41.9591C26.6894 41.9252 26.8126 41.8655 26.9209 41.7834C27.0292 41.7013 27.1205 41.5985 27.1895 41.4807C27.2585 41.3629 27.304 41.2325 27.3232 41.097C27.3424 40.9615 27.3351 40.8234 27.3015 40.6908C27.268 40.5581 27.2091 40.4334 27.1279 40.3238C27.0468 40.2142 26.9451 40.1219 26.8287 40.052C26.7123 39.9822 26.5835 39.9362 26.4495 39.9168C26.3156 39.8973 26.1791 39.9048 26.048 39.9387C25.917 39.9725 25.7939 40.0322 25.6856 40.1142C25.5774 40.1962 25.4862 40.299 25.4172 40.4167C25.3483 40.5343 25.3029 40.6646 25.2836 40.8C25.2644 40.9355 25.2718 41.0734 25.3052 41.206ZM21.9361 39.5608C21.9856 39.7241 22.0666 39.8758 22.1745 40.0073C22.2823 40.1387 22.4148 40.2472 22.5643 40.3265C22.7138 40.4058 22.8774 40.4544 23.0455 40.4694C23.2137 40.4844 23.3831 40.4656 23.5441 40.414C23.7054 40.3637 23.8553 40.2816 23.9852 40.1725C24.1152 40.0634 24.2225 39.9295 24.3011 39.7783C24.3797 39.6271 24.428 39.4617 24.4432 39.2916C24.4584 39.1214 24.4403 38.9499 24.3898 38.7869C24.2878 38.4577 24.0607 38.1828 23.7586 38.0228C23.4564 37.8627 23.1038 37.8305 22.7782 37.9332C22.6171 37.9838 22.4675 38.0661 22.3379 38.1754C22.2083 38.2847 22.1013 38.4188 22.023 38.57C21.9448 38.7212 21.8968 38.8866 21.8819 39.0566C21.867 39.2267 21.8854 39.398 21.9361 39.5608ZM19.2487 37.1366C19.3128 37.3135 19.4108 37.4759 19.5371 37.6143C19.6635 37.7528 19.8156 37.8646 19.9848 37.9433C20.1541 38.022 20.337 38.0661 20.5231 38.073C20.7092 38.0799 20.8948 38.0495 21.0693 37.9835C21.4144 37.8463 21.6926 37.5777 21.8442 37.2353C21.9958 36.893 22.0087 36.5041 21.8802 36.1522C21.7517 35.8003 21.492 35.5134 21.1568 35.353C20.8216 35.1926 20.4376 35.1716 20.0873 35.2944C19.7349 35.4266 19.4487 35.6947 19.2915 36.0401C19.1343 36.3854 19.1189 36.7797 19.2487 37.1366ZM39.5248 38.4008C39.3929 38.5136 39.3095 38.6738 39.2923 38.8477C39.2751 39.0216 39.3254 39.1954 39.4327 39.3324C39.5399 39.4694 39.6956 39.5588 39.8668 39.5817C40.038 39.6046 40.2113 39.5592 40.35 39.4551C40.4216 39.4014 40.4818 39.3336 40.5269 39.256C40.5721 39.1783 40.6014 39.0922 40.6131 39.0028C40.6248 38.9135 40.6186 38.8226 40.5949 38.7357C40.5712 38.6488 40.5304 38.5676 40.4751 38.497C40.4198 38.4263 40.351 38.3676 40.2729 38.3244C40.1947 38.2811 40.1087 38.2542 40.0201 38.2453C39.9314 38.2363 39.8419 38.2454 39.7568 38.2721C39.6717 38.2989 39.5928 38.3426 39.5248 38.4008ZM33.291 41.1199C33.1167 41.1466 32.9599 41.2419 32.8549 41.3852C32.7499 41.5285 32.7052 41.708 32.7306 41.8845C32.7432 41.9719 32.7727 42.0559 32.8174 42.1317C32.8621 42.2076 32.9212 42.2738 32.9913 42.3265C33.0613 42.3792 33.1409 42.4174 33.2256 42.439C33.3102 42.4605 33.3983 42.465 33.4846 42.452C33.5712 42.4395 33.6544 42.4097 33.7296 42.3646C33.8047 42.3194 33.8703 42.2597 33.9226 42.1888C33.9749 42.1179 34.0129 42.0373 34.0343 41.9515C34.0558 41.8658 34.0603 41.7766 34.0476 41.6891C34.0349 41.6014 34.0053 41.5171 33.9604 41.441C33.9155 41.3649 33.8562 41.2986 33.786 41.2457C33.7157 41.1928 33.6358 41.1545 33.5509 41.1329C33.4659 41.1114 33.3776 41.1069 33.291 41.1199ZM30.055 14.0963C30.0423 14.0087 30.0126 13.9245 29.9677 13.8486C29.9227 13.7727 29.8634 13.7064 29.7931 13.6538C29.7228 13.6011 29.6429 13.563 29.558 13.5416C29.4731 13.5202 29.3849 13.516 29.2984 13.5293C29.124 13.5552 28.967 13.6502 28.8618 13.7934C28.7567 13.9365 28.712 14.116 28.7377 14.2925C28.7634 14.4689 28.8573 14.6278 28.9987 14.7342C29.1402 14.8406 29.3176 14.8858 29.492 14.8598C29.6667 14.834 29.8241 14.7391 29.9297 14.596C30.0353 14.4528 30.0803 14.2731 30.055 14.0963ZM23.3678 16.6346C23.258 16.4948 23.098 16.4047 22.9227 16.384C22.7474 16.3633 22.5711 16.4137 22.4324 16.5242C22.3291 16.6068 22.2524 16.7187 22.2119 16.8455C22.1714 16.9723 22.169 17.1084 22.2049 17.2366C22.2409 17.3648 22.3136 17.4794 22.4139 17.5658C22.5142 17.6521 22.6376 17.7065 22.7684 17.7219C22.8992 17.7374 23.0317 17.7132 23.1489 17.6525C23.2662 17.5918 23.363 17.4973 23.4272 17.3809C23.4913 17.2645 23.5199 17.1315 23.5094 16.9986C23.4988 16.8658 23.4496 16.7391 23.3678 16.6346Z" fill="url(#paint3_linear_258_10922)"/>
<path d="M49.039 29.9881C48.5152 29.9874 48.013 29.7763 47.643 29.4011C47.273 29.0259 47.0653 28.5174 47.0658 27.9874C47.0653 27.7248 47.1162 27.4648 47.2154 27.2223C47.3146 26.9797 47.4601 26.7594 47.6437 26.5739C47.8273 26.3884 48.0453 26.2415 48.2852 26.1415C48.5251 26.0415 48.7821 25.9904 49.0416 25.9913C49.301 25.9908 49.558 26.0421 49.7978 26.1424C50.0376 26.2427 50.2554 26.3898 50.4388 26.5755C50.6223 26.7611 50.7677 26.9816 50.8667 27.2242C50.9657 27.4669 51.0164 27.7269 51.0159 27.9894C51.0156 28.5197 50.8072 29.0281 50.4365 29.4029C50.0657 29.7778 49.5631 29.9882 49.039 29.9881ZM41.2843 12.7505C41.3144 12.609 41.3166 12.4628 41.2906 12.3203C41.2647 12.1779 41.2112 12.0421 41.1333 11.9207C41.0553 11.7992 40.9544 11.6946 40.8363 11.6127C40.7182 11.5309 40.5853 11.4735 40.4452 11.4438C40.3053 11.413 40.1608 11.4105 40.0199 11.4364C39.8791 11.4623 39.7447 11.5162 39.6245 11.5948C39.5043 11.6735 39.4006 11.7754 39.3195 11.8948C39.2383 12.0141 39.1813 12.1485 39.1517 12.2903C39.0914 12.5764 39.1459 12.8751 39.3032 13.1206C39.4605 13.3661 39.7078 13.5383 39.9906 13.5993C40.2734 13.6603 40.5685 13.6052 40.8112 13.446C41.0538 13.2869 41.224 13.0367 41.2843 12.7505ZM45.1765 15.5702C45.2039 15.397 45.1972 15.22 45.1569 15.0494C45.1165 14.8788 45.0433 14.7179 44.9415 14.576C44.8396 14.434 44.711 14.3138 44.5632 14.2222C44.4153 14.1306 44.251 14.0695 44.0797 14.0422C43.7375 13.9953 43.3908 14.0858 43.1137 14.2944C42.8366 14.5029 42.6512 14.8128 42.5971 15.158C42.543 15.5031 42.6245 15.8559 42.8243 16.1409C43.024 16.4259 43.3261 16.6206 43.6658 16.6831C44.0119 16.7377 44.3653 16.6512 44.6485 16.4426C44.9317 16.234 45.1216 15.9203 45.1765 15.5702ZM50.2572 23.4618C50.27 23.2209 50.2356 22.9799 50.1562 22.7525C50.0767 22.525 49.9537 22.3157 49.7941 22.1365C49.6345 21.9573 49.4416 21.8117 49.2263 21.708C49.011 21.6044 48.7776 21.5448 48.5396 21.5326C48.3014 21.5193 48.063 21.5538 47.8381 21.634C47.6132 21.7142 47.4061 21.8385 47.2288 21.9999C47.0515 22.1613 46.9074 22.3565 46.8049 22.5744C46.7024 22.7923 46.6434 23.0285 46.6314 23.2695C46.6167 23.5117 46.6495 23.7544 46.728 23.9836C46.8066 24.2129 46.9292 24.4241 47.0888 24.6051C47.2485 24.7861 47.442 24.9334 47.6582 25.0383C47.8744 25.1432 48.1089 25.2038 48.3484 25.2165C48.5878 25.2292 48.8274 25.1938 49.0533 25.1123C49.2791 25.0308 49.4868 24.9048 49.6642 24.7417C49.8417 24.5786 49.9855 24.3815 50.0872 24.1618C50.189 23.9421 50.2468 23.7042 50.2572 23.4618ZM32.1859 10.1314C32.1859 9.68617 31.8299 9.33008 31.3914 9.33008C31.1861 9.33755 30.9918 9.4253 30.8492 9.57486C30.7066 9.72442 30.6269 9.92412 30.6269 10.1319C30.6269 10.3397 30.7066 10.5394 30.8492 10.689C30.9918 10.8386 31.1861 10.9263 31.3914 10.9338C31.8299 10.9338 32.1859 10.5756 32.1859 10.1314ZM39.9918 42.3798C39.8517 42.41 39.7188 42.4678 39.6007 42.5499C39.4826 42.632 39.3816 42.7369 39.3036 42.8585C39.146 43.1041 39.0913 43.4029 39.1515 43.6894C39.2117 43.9758 39.3818 44.2263 39.6245 44.3857C39.8673 44.5452 40.1626 44.6006 40.4457 44.5397C40.7288 44.4788 40.9764 44.3066 41.134 44.061C41.2916 43.8154 41.3463 43.5165 41.2861 43.2301C41.2259 42.9437 41.0557 42.6932 40.813 42.5337C40.5703 42.3743 40.2749 42.3189 39.9918 42.3798ZM43.6658 39.2978C43.4932 39.3236 43.3273 39.3837 43.1778 39.4748C43.0283 39.5658 42.8981 39.6859 42.7947 39.8281C42.6913 39.9704 42.6168 40.132 42.5755 40.3035C42.5342 40.4751 42.5269 40.6532 42.5541 40.8276C42.5812 41.002 42.6423 41.1693 42.7337 41.3197C42.8251 41.4701 42.945 41.6007 43.0866 41.7039C43.2282 41.8071 43.3886 41.8809 43.5585 41.921C43.7285 41.9612 43.9046 41.9668 44.0767 41.9377C44.4199 41.8795 44.7266 41.6866 44.9301 41.4009C45.1336 41.1152 45.2173 40.7598 45.1632 40.4119C45.1091 40.064 44.9214 39.7518 44.641 39.5432C44.3606 39.3346 44.0101 39.2464 43.6658 39.2978ZM46.5033 35.2621C46.0692 35.3083 45.671 35.5271 45.3964 35.8703C45.1217 36.2135 44.9931 36.6531 45.0387 37.0923C45.0844 37.5315 45.3006 37.9344 45.6398 38.2123C45.979 38.4902 46.4135 38.6204 46.8475 38.5742C47.0627 38.5518 47.2713 38.4866 47.4615 38.3824C47.6516 38.2782 47.8196 38.137 47.9557 37.967C48.0918 37.7969 48.1934 37.6014 48.2547 37.3915C48.3159 37.1816 48.3356 36.9616 48.3126 36.744C48.2668 36.3048 48.0505 35.9019 47.7112 35.624C47.3719 35.3461 46.9374 35.216 46.5033 35.2621ZM48.3464 30.778C47.8663 30.8046 47.4161 31.0226 47.0946 31.3845C46.7731 31.7463 46.6065 32.2224 46.6314 32.7083C46.6433 32.9493 46.7023 33.1856 46.8048 33.4035C46.9073 33.6214 47.0513 33.8167 47.2287 33.9781C47.406 34.1395 47.6131 34.2638 47.838 34.344C48.063 34.4242 48.3014 34.4586 48.5396 34.4452C48.7776 34.4329 49.0109 34.3733 49.2261 34.2696C49.4414 34.166 49.6343 34.0204 49.7938 33.8411C49.9533 33.6619 50.0763 33.4526 50.1557 33.2252C50.2351 32.9978 50.2695 32.7568 50.2567 32.516C50.2306 32.0294 50.0148 31.5732 49.6567 31.2473C49.2986 30.9215 48.8274 30.7528 48.3464 30.778ZM31.3914 45.0456C31.1846 45.0509 30.9881 45.1377 30.8437 45.2876C30.6993 45.4374 30.6185 45.6384 30.6185 45.8477C30.6185 46.057 30.6993 46.258 30.8437 46.4078C30.9881 46.5576 31.1846 46.6445 31.3914 46.6498C31.6016 46.6498 31.8033 46.5653 31.9519 46.4149C32.1006 46.2644 32.1841 46.0604 32.1841 45.8477C32.1841 45.635 32.1006 45.4309 31.9519 45.2805C31.8033 45.1301 31.6016 45.0456 31.3914 45.0456ZM13.7427 29.9881C14.2663 29.987 14.7681 29.7757 15.1379 29.4006C15.5077 29.0254 15.7152 28.5172 15.7149 27.9874C15.7153 27.7251 15.6646 27.4654 15.5657 27.2231C15.4667 26.9808 15.3214 26.7606 15.1382 26.5752C14.955 26.3897 14.7374 26.2427 14.498 26.1425C14.2585 26.0423 14.0018 25.9909 13.7427 25.9913C13.4831 25.9909 13.2261 26.0424 12.9862 26.1427C12.7463 26.243 12.5283 26.3902 12.3447 26.5758C12.1611 26.7614 12.0154 26.9819 11.9161 27.2246C11.8168 27.4672 11.7657 27.7273 11.7659 27.9899C11.767 28.5199 11.9756 29.0278 12.3462 29.4024C12.7167 29.7769 13.2189 29.9876 13.7427 29.9881ZM22.7909 13.5985C23.0738 13.5377 23.3213 13.3656 23.4789 13.1202C23.6364 12.8747 23.6911 12.576 23.631 12.2897C23.6014 12.148 23.5444 12.0137 23.4633 11.8943C23.3822 11.775 23.2787 11.673 23.1585 11.5942C23.0384 11.5155 22.9041 11.4615 22.7633 11.4355C22.6225 11.4094 22.478 11.4117 22.3381 11.4423C22.1981 11.4724 22.0654 11.53 21.9475 11.612C21.8296 11.694 21.7289 11.7987 21.6509 11.92C21.573 12.0414 21.5195 12.1772 21.4934 12.3195C21.4673 12.4618 21.4692 12.6079 21.499 12.7495C21.5287 12.8911 21.5857 13.0253 21.6667 13.1446C21.7477 13.2639 21.8512 13.3659 21.9712 13.4447C22.0911 13.5236 22.2253 13.5777 22.3659 13.6041C22.5066 13.6305 22.651 13.6286 22.7909 13.5985ZM19.1179 16.6821C19.4642 16.6264 19.7745 16.4339 19.9806 16.1469C20.1867 15.8599 20.2718 15.5019 20.2173 15.1514C20.1902 14.978 20.1295 14.8116 20.0387 14.6619C19.948 14.5122 19.829 14.3821 19.6884 14.279C19.5479 14.1759 19.3887 14.1019 19.2199 14.0612C19.051 14.0205 18.8759 14.0138 18.7045 14.0417C18.5333 14.069 18.3691 14.1302 18.2213 14.2218C18.0735 14.3135 17.945 14.4337 17.8432 14.5756C17.7413 14.7176 17.6682 14.8784 17.6279 15.049C17.5876 15.2196 17.5809 15.3965 17.6083 15.5697C17.6627 15.9198 17.8524 16.2336 18.1355 16.4422C18.4186 16.6508 18.772 16.7371 19.1179 16.6821ZM16.2784 20.7167C16.7048 20.6609 17.0926 20.4386 17.3592 20.0973C17.6257 19.756 17.7498 19.3228 17.7049 18.8902C17.66 18.4576 17.4497 18.0599 17.119 17.782C16.7882 17.5041 16.3632 17.3681 15.9347 17.4031C15.7195 17.4256 15.5108 17.4908 15.3206 17.5952C15.1303 17.6995 14.9624 17.8408 14.8263 18.0111C14.6902 18.1813 14.5887 18.377 14.5276 18.587C14.4664 18.797 14.4469 19.0172 14.4701 19.2348C14.4926 19.4523 14.5572 19.6632 14.6602 19.8554C14.7633 20.0477 14.9027 20.2174 15.0707 20.3551C15.2386 20.4927 15.4317 20.5955 15.639 20.6576C15.8462 20.7196 16.0635 20.7397 16.2784 20.7167ZM14.4353 25.2003C14.9161 25.1744 15.3671 24.9565 15.6892 24.5944C16.0112 24.2322 16.1781 23.7555 16.1529 23.269C16.1408 23.0278 16.0817 22.7913 15.979 22.5733C15.8763 22.3552 15.732 22.1599 15.5545 21.9984C15.3769 21.837 15.1696 21.7126 14.9444 21.6325C14.7192 21.5524 14.4805 21.5181 14.2422 21.5316C14.0041 21.544 13.7709 21.6038 13.5557 21.7076C13.3406 21.8114 13.1477 21.957 12.9883 22.1363C12.8288 22.3155 12.7058 22.5248 12.6263 22.7521C12.5468 22.9795 12.5124 23.2205 12.5251 23.4613C12.5506 23.9482 12.7662 24.4048 13.1244 24.7309C13.4826 25.057 13.9541 25.2259 14.4353 25.2003ZM21.499 43.2288C21.4692 43.3705 21.4673 43.5167 21.4934 43.6592C21.5195 43.8016 21.573 43.9374 21.651 44.0589C21.729 44.1804 21.8298 44.2851 21.9478 44.3672C22.0658 44.4492 22.1985 44.507 22.3386 44.5371C22.4786 44.5672 22.6231 44.5691 22.7639 44.5427C22.9046 44.5163 23.0389 44.4622 23.1589 44.3833C23.279 44.3044 23.3825 44.2023 23.4636 44.083C23.5447 43.9636 23.6018 43.8292 23.6315 43.6876C23.6914 43.4014 23.6365 43.1028 23.479 42.8576C23.3215 42.6123 23.0742 42.4403 22.7914 42.3793C22.5087 42.3192 22.2141 42.3748 21.9718 42.534C21.7296 42.6933 21.5596 42.9431 21.499 43.2288ZM17.6088 40.4081C17.5811 40.5813 17.5876 40.7584 17.6278 40.9291C17.6679 41.0999 17.7411 41.2609 17.8429 41.4029C17.9448 41.5449 18.0734 41.6652 18.2214 41.7568C18.3693 41.8484 18.5337 41.9095 18.7051 41.9366C18.9629 41.9782 19.2272 41.9414 19.4644 41.831C19.7016 41.7205 19.9011 41.5414 20.0377 41.3162C20.1743 41.091 20.2418 40.8299 20.2317 40.5659C20.2216 40.3019 20.1344 40.0468 19.981 39.833C19.8277 39.6192 19.6151 39.4561 19.3701 39.3646C19.1252 39.273 18.8589 39.257 18.605 39.3185C18.3511 39.3801 18.1209 39.5165 17.9436 39.7104C17.7662 39.9043 17.6497 40.1471 17.6088 40.4081ZM14.4701 36.745C14.447 36.9625 14.4666 37.1825 14.5277 37.3924C14.5888 37.6022 14.6903 37.7977 14.8264 37.9677C14.9624 38.1378 15.1303 38.2789 15.3204 38.3831C15.5106 38.4872 15.7191 38.5524 15.9342 38.5748C16.1492 38.598 16.3666 38.5781 16.574 38.5162C16.7814 38.4543 16.9746 38.3516 17.1427 38.214C17.3108 38.0764 17.4504 37.9066 17.5535 37.7143C17.6566 37.522 17.7212 37.311 17.7435 37.0934C17.7661 36.8758 17.7461 36.6558 17.6847 36.4461C17.6232 36.2363 17.5216 36.0409 17.3855 35.8709C17.2494 35.7009 17.0815 35.5596 16.8915 35.4553C16.7015 35.3509 16.493 35.2855 16.2779 35.2626C16.063 35.2396 15.8457 35.2597 15.6384 35.3217C15.4311 35.3838 15.238 35.4866 15.0701 35.6243C14.9021 35.762 14.7627 35.9319 14.6598 36.1242C14.5568 36.3165 14.4924 36.5275 14.4701 36.745ZM12.5251 32.5155C12.5123 32.7563 12.5466 32.9973 12.626 33.2247C12.7055 33.4521 12.8285 33.6614 12.988 33.8406C13.1475 34.0198 13.3404 34.1654 13.5556 34.2691C13.7708 34.3728 14.0041 34.4324 14.2422 34.4447C14.4805 34.4584 14.7192 34.4243 14.9445 34.3443C15.1697 34.2642 15.3771 34.1399 15.5547 33.9785C15.7323 33.8171 15.8766 33.6217 15.9793 33.4036C16.0819 33.1855 16.141 32.949 16.1529 32.7078C16.1776 32.2215 16.0107 31.7451 15.6886 31.3832C15.3666 31.0213 14.9159 30.8035 14.4353 30.7775C13.9545 30.7526 13.4835 30.9216 13.1254 31.2473C12.7674 31.573 12.5515 32.029 12.5251 32.5155ZM35.7385 44.407C35.5203 44.4664 35.3344 44.6109 35.2214 44.8088C35.1083 45.0067 35.0775 45.2419 35.1355 45.4628C35.1943 45.6834 35.3373 45.8713 35.5329 45.9853C35.7286 46.0993 35.961 46.1301 36.179 46.0708C36.2873 46.0419 36.3888 45.9917 36.4779 45.923C36.5669 45.8543 36.6416 45.7685 36.6978 45.6705C36.754 45.5725 36.7904 45.4642 36.8052 45.3519C36.8199 45.2396 36.8125 45.1255 36.7835 45.016C36.7247 44.7951 36.5816 44.6068 36.3856 44.4926C36.1897 44.3784 35.9569 44.3476 35.7385 44.407ZM27.0432 44.407C26.827 44.3535 26.5987 44.3878 26.4072 44.5025C26.2157 44.6172 26.0762 44.8033 26.0186 45.0208C25.961 45.2384 25.9898 45.4701 26.099 45.6664C26.2082 45.8626 26.389 46.0078 26.6027 46.0708C26.7115 46.1029 26.8256 46.1127 26.9382 46.0996C27.0509 46.0865 27.1598 46.0508 27.2586 45.9945C27.3574 45.9382 27.4441 45.8625 27.5136 45.7719C27.5831 45.6813 27.634 45.5775 27.6633 45.4667C27.6927 45.3559 27.6998 45.2403 27.6844 45.1266C27.669 45.013 27.6313 44.9036 27.5736 44.8049C27.5158 44.7062 27.4391 44.6201 27.3481 44.5518C27.257 44.4835 27.1534 44.4342 27.0432 44.407ZM36.784 10.9633C36.8129 10.8539 36.8201 10.7397 36.8053 10.6275C36.7905 10.5152 36.7539 10.4069 36.6977 10.309C36.6416 10.211 36.5668 10.1252 36.4778 10.0565C36.3888 9.98777 36.2873 9.93749 36.179 9.90853C35.9646 9.86034 35.7401 9.89778 35.5524 10.013C35.3646 10.1283 35.2281 10.3125 35.1713 10.5272C35.1145 10.7418 35.1419 10.9704 35.2477 11.1651C35.3534 11.3599 35.5295 11.5058 35.739 11.5724C35.8471 11.6019 35.96 11.6096 36.0711 11.595C36.1821 11.5804 36.2893 11.5437 36.3863 11.4872C36.4834 11.4306 36.5685 11.3552 36.6367 11.2653C36.705 11.1754 36.755 11.0728 36.784 10.9633ZM27.6477 10.516C27.6187 10.4066 27.5686 10.3041 27.5003 10.2143C27.432 10.1245 27.3469 10.0492 27.2498 9.9928C27.1527 9.93636 27.0456 9.89987 26.9346 9.88541C26.8235 9.87095 26.7107 9.87881 26.6027 9.90853C26.4947 9.93754 26.3934 9.98781 26.3047 10.0565C26.2159 10.1251 26.1414 10.2108 26.0854 10.3086C26.0294 10.4065 25.993 10.5145 25.9783 10.6266C25.9636 10.7387 25.9709 10.8526 25.9998 10.9618C26.0287 11.0713 26.0786 11.1739 26.1468 11.2639C26.2149 11.3538 26.2999 11.4293 26.3969 11.486C26.4938 11.5428 26.6009 11.5796 26.7119 11.5945C26.823 11.6093 26.9358 11.6019 27.044 11.5726C27.1522 11.5434 27.2537 11.4928 27.3426 11.4239C27.4315 11.3549 27.5061 11.269 27.5621 11.1708C27.6182 11.0727 27.6546 10.9644 27.6693 10.852C27.684 10.7397 27.6766 10.6255 27.6477 10.516Z" fill="url(#paint4_linear_258_10922)"/>
</g>
<defs>
<linearGradient id="paint0_linear_258_10922" x1="36.3211" y1="25.1333" x2="25.5395" y2="30.8892" gradientUnits="userSpaceOnUse">
<stop stop-color="#FF9100"/>
<stop offset="0.05" stop-color="#FF8D00"/>
<stop offset="0.25" stop-color="#FF8300"/>
<stop offset="0.5" stop-color="#FF8000"/>
<stop offset="0.75" stop-color="#FF8300"/>
<stop offset="0.95" stop-color="#FF8D00"/>
<stop offset="1" stop-color="#FF9100"/>
</linearGradient>
<linearGradient id="paint1_linear_258_10922" x1="39.2669" y1="30.3287" x2="23.4888" y2="25.7491" gradientUnits="userSpaceOnUse">
<stop stop-color="#FF9100"/>
<stop offset="0.05" stop-color="#FF8D00"/>
<stop offset="0.25" stop-color="#FF8300"/>
<stop offset="0.5" stop-color="#FF8000"/>
<stop offset="0.75" stop-color="#FF8300"/>
<stop offset="0.95" stop-color="#FF8D00"/>
<stop offset="1" stop-color="#FF9100"/>
</linearGradient>
<linearGradient id="paint2_linear_258_10922" x1="39.1164" y1="35.7992" x2="23.495" y2="20.3603" gradientUnits="userSpaceOnUse">
<stop stop-color="#FF9100"/>
<stop offset="0.05" stop-color="#FF8D00"/>
<stop offset="0.25" stop-color="#FF8300"/>
<stop offset="0.5" stop-color="#FF8000"/>
<stop offset="0.75" stop-color="#FF8300"/>
<stop offset="0.95" stop-color="#FF8D00"/>
<stop offset="1" stop-color="#FF9100"/>
</linearGradient>
<linearGradient id="paint3_linear_258_10922" x1="37.0941" y1="41.3699" x2="25.4596" y2="14.7132" gradientUnits="userSpaceOnUse">
<stop stop-color="#FF9100"/>
<stop offset="0.05" stop-color="#FF8D00"/>
<stop offset="0.25" stop-color="#FF8300"/>
<stop offset="0.5" stop-color="#FF8000"/>
<stop offset="0.75" stop-color="#FF8300"/>
<stop offset="0.95" stop-color="#FF8D00"/>
<stop offset="1" stop-color="#FF9100"/>
</linearGradient>
<linearGradient id="paint4_linear_258_10922" x1="31.3909" y1="46.6498" x2="31.3909" y2="9.33008" gradientUnits="userSpaceOnUse">
<stop stop-color="#FF9100"/>
<stop offset="0.05" stop-color="#FF8D00"/>
<stop offset="0.25" stop-color="#FF8300"/>
<stop offset="0.5" stop-color="#FF8000"/>
<stop offset="0.75" stop-color="#FF8300"/>
<stop offset="0.95" stop-color="#FF8D00"/>
<stop offset="1" stop-color="#FF9100"/>
</linearGradient>
<clipPath id="clip0_258_10922">
<rect width="128.424" height="37.3197" fill="white" transform="translate(11.7444 9.33008)"/>
</clipPath>
</defs>
</svg>
