<svg width="152" height="56" viewBox="0 0 152 56" fill="none" xmlns="http://www.w3.org/2000/svg">
<g clip-path="url(#clip0_258_10930)">
<path d="M52.4324 46.5003H15.2622V9.33008H52.4324V46.5003Z" fill="#FCD0AF"/>
<path d="M24.766 28.7204C24.766 30.4817 25.2313 30.6644 27.2418 30.7475V31.3955H19.2827V30.7475C20.9443 30.6811 21.4096 30.4817 21.4096 28.7204V17.2719C21.4096 15.5106 20.9443 15.3112 19.3326 15.2447V14.5967H33.3565L33.4562 18.3021H32.7584C32.1602 16.4244 31.5288 15.8263 28.2388 15.8263H25.6965C24.9322 15.8263 24.766 15.9924 24.766 16.6903V21.9908H26.0122C28.6376 21.9908 29.2025 21.5256 29.5182 19.7643H30.1663V25.6962H29.5182C29.1693 23.7189 28.1889 23.2204 26.0122 23.2204H24.766V28.7204ZM49.2415 14.5967H34.5363L34.1873 18.3021H35.0348C35.5665 16.4909 36.364 15.8263 38.142 15.8263H40.219V28.7204C40.219 30.4817 39.7537 30.6644 37.8429 30.7475V31.3955H45.9349V30.7475C44.0407 30.6811 43.5588 30.4817 43.5588 28.7204V15.8429H45.6358C47.4137 15.8429 48.1947 16.4909 48.743 18.3187H49.5905L49.2415 14.5967Z" fill="#3E474F"/>
<path d="M59.4601 30.2159C59.4601 31.163 59.7094 31.2793 60.806 31.3292V31.6615H56.4692V31.3292C57.3665 31.2793 57.6324 31.1796 57.6324 30.2159V23.9683C57.6324 23.0045 57.3831 22.9048 56.5025 22.855V22.506H64.1459L64.1957 24.5166H63.8136C63.4978 23.503 63.1489 23.1707 61.3544 23.1707H59.9586C59.5432 23.1707 59.4435 23.2704 59.4435 23.6359V26.5271H61.0054C62.4344 26.5271 62.7335 26.2779 62.9163 25.3142H63.2652V28.5543H62.9163C62.7335 27.4743 62.1852 27.2084 61.0054 27.2084H59.4601V30.2159ZM68.4827 30.2159C68.4827 31.163 68.7319 31.2793 69.8286 31.3292V31.6615H65.309V31.3292C66.4057 31.2793 66.6549 31.1796 66.6549 30.2159V23.9683C66.6549 23.0045 66.4057 22.9048 65.309 22.855V22.506H69.8286V22.855C68.7319 22.8882 68.4827 23.0045 68.4827 23.9683V30.2159ZM79.2665 24.2175C79.2665 23.3202 79.0173 22.9713 78.0203 22.855V22.506H81.2438V22.855C80.2469 22.9713 80.0142 23.3202 80.0142 24.2175V31.8775H79.5656L73.3179 24.6661V29.9501C73.3179 30.8473 73.5506 31.1963 74.5475 31.3126V31.6449H71.3074V31.3126C72.3044 31.1963 72.5536 30.8473 72.5536 29.9501V23.8021C72.2379 23.2538 71.8723 23.0045 71.3074 22.8716V22.5227H73.7998L79.2499 28.8202V24.2175H79.2665ZM84.1516 28.3881L85.5308 24.7658L86.8933 28.3881H84.1516ZM90.715 31.6615V31.3292C90.0337 31.3458 89.851 31.0467 89.502 30.1827L86.2785 22.29H85.8299L82.4734 30.4485C82.2408 31.0135 81.9417 31.1796 81.3601 31.3126V31.6449H84.268V31.3126C83.6365 31.3126 83.3208 31.1796 83.3208 30.731C83.3208 30.3488 83.7362 29.3353 83.8525 29.0528H87.1592C87.2588 29.3519 87.7075 30.3655 87.7075 30.731C87.7075 31.1796 87.3752 31.3126 86.7437 31.3126V31.6449L90.715 31.6615ZM99.588 24.2175C99.588 23.3202 99.3387 22.9713 98.3584 22.855V22.506H101.582V22.855C100.585 22.9713 100.336 23.3202 100.336 24.2175V31.8775H99.8871L93.6394 24.6661V29.9501C93.6394 30.8473 93.8887 31.1963 94.8856 31.3126V31.6449H91.6455V31.3126C92.6425 31.1963 92.8917 30.8473 92.8917 29.9501V23.8021C92.576 23.2538 92.2104 23.0045 91.6455 22.8716V22.5227H94.1379L99.588 28.8202V24.2175ZM111.153 29.5014C110.189 31.1298 108.943 31.8775 107.049 31.8775C104.074 31.8775 102.313 29.9168 102.313 26.9924C102.313 24.9154 103.958 22.29 107.148 22.29C108.095 22.29 109.458 22.8218 109.657 22.8218C109.923 22.8218 110.006 22.6722 110.222 22.29H110.671L110.854 25.3474H110.455C109.907 23.935 108.959 22.9048 107.364 22.9048C105.204 22.9048 104.274 25.2311 104.274 26.9924C104.274 29.4682 105.337 31.1132 107.614 31.1132C109.391 31.1132 110.372 29.8005 110.787 29.2189L111.153 29.5014ZM115.589 30.2159C115.589 31.163 115.839 31.2793 116.935 31.3292V31.6615H112.416V31.3292C113.512 31.2793 113.762 31.1796 113.762 30.2159V23.9683C113.762 23.0045 113.512 22.9048 112.416 22.855V22.506H116.935V22.855C115.839 22.8882 115.589 23.0045 115.589 23.9683V30.2159ZM120.674 28.3881L122.053 24.7658L123.415 28.3881H120.674ZM127.237 31.6615V31.3292C126.556 31.3458 126.373 31.0467 126.024 30.1827L122.801 22.29H122.352L118.996 30.4485C118.763 31.0135 118.464 31.1796 117.882 31.3126V31.6449H120.79V31.3126C120.159 31.3126 119.843 31.1796 119.843 30.731C119.843 30.3488 120.258 29.3353 120.375 29.0528H123.681C123.781 29.3519 124.23 30.3655 124.23 30.731C124.23 31.1796 123.897 31.3126 123.266 31.3126V31.6449L127.237 31.6615ZM128.035 31.6615V31.3292C128.915 31.296 129.165 31.1796 129.165 30.2159V23.9683C129.165 23.0045 128.915 22.9048 128.035 22.855V22.506H132.255V22.855C131.242 22.8882 130.992 23.0045 130.992 23.9683V30.3987C130.992 30.947 131.159 31.1298 132.172 31.1298C133.817 31.1298 134.781 30.8307 135.562 29.2189H135.911L135.296 31.6615C135.313 31.6615 128.035 31.6615 128.035 31.6615ZM58.4798 46.0843C59.5266 46.0344 59.7758 45.9347 59.7758 44.971V37.9424H58.6459C57.5825 37.9424 57.1671 38.3744 56.868 39.604H56.4692L56.6852 37.2611H64.7108L64.9268 39.604H64.528C64.229 38.3578 63.8135 37.9424 62.7501 37.9424H61.6202V44.971C61.6202 45.9181 61.8695 46.0344 62.9163 46.0843V46.4166H58.4964V46.0843H58.4798ZM69.0476 44.9876C69.0476 45.9347 69.2969 46.051 70.3935 46.0843V46.4332H65.8739V46.0843C66.9706 46.051 67.2198 45.9347 67.2198 44.9876V38.74C67.2198 37.7928 66.9706 37.6765 65.8739 37.6433V37.2944H70.3935V37.6433C69.2969 37.6765 69.0476 37.7928 69.0476 38.74C69.0476 38.7233 69.0476 44.9876 69.0476 44.9876ZM79.9976 37.2777H83.1547V37.6267C82.274 37.6599 82.0248 37.7762 82.0248 38.7233V44.971C82.0248 45.9181 82.274 46.0344 83.1547 46.0843V46.4166H79.0339V46.0843C79.9312 46.0344 80.197 45.9347 80.197 44.971V38.5406H80.1638L77.1064 46.5495H76.691L73.7001 38.5572H73.6669V44.7218C73.6669 45.619 73.9161 45.968 74.9131 46.0843V46.4166H71.6896V46.0843C72.6865 45.968 72.9192 45.619 72.9192 44.7218V38.5073C72.9192 37.8759 72.6533 37.6267 71.6896 37.6267V37.2777H75.0128L77.4554 43.6251C77.4387 43.6251 79.9976 37.2777 79.9976 37.2777ZM84.4507 46.4332V46.1009C85.3314 46.051 85.5806 45.9513 85.5806 44.9876V38.74C85.5806 37.7928 85.3314 37.6765 84.4507 37.6433V37.2944H92.0941L92.144 39.3049H91.7618C91.4295 38.2913 91.0805 37.959 89.3026 37.959H87.9235C87.5081 37.959 87.4084 38.0587 87.4084 38.4243V41.3155H88.9703C90.3993 41.3155 90.6984 41.0662 90.8812 40.1025H91.2301V43.326H90.8812C90.6984 42.246 90.15 41.9801 88.9703 41.9801H87.4084V45.1538C87.4084 45.7021 87.5746 45.8849 89.1863 45.8849C90.8313 45.8849 91.795 45.5858 92.576 43.974H92.9249L92.3101 46.4166H84.4507V46.4332ZM94.1213 43.5586H94.4702C94.8524 44.7716 96.0155 46.0344 97.3614 46.0344C98.5246 46.0344 98.94 45.2369 98.94 44.5057C98.94 42.4121 94.2044 42.0133 94.2044 39.4046C94.2044 38.1418 95.434 37.0617 96.8297 37.0617C98.2088 37.0617 98.6907 37.5436 99.2889 37.5436C99.5381 37.5436 99.7043 37.3442 99.7708 37.0617H100.12V39.9696H99.7708C99.3886 38.6569 98.4581 37.6765 97.2119 37.6765C96.1983 37.6765 95.8161 38.3412 95.8161 38.956C95.8161 40.817 100.552 40.8834 100.552 44.0903C100.552 45.5359 99.372 46.6326 97.727 46.6326C96.1152 46.6326 95.6998 46.0677 95.0684 46.0677C94.8358 46.0677 94.6696 46.2338 94.6198 46.5163H94.1379L94.1213 43.5586Z" fill="#3E474F"/>
</g>
<defs>
<clipPath id="clip0_258_10930">
<rect width="120.666" height="37.3197" fill="white" transform="translate(15.2622 9.33008)"/>
</clipPath>
</defs>
</svg>
