<svg width="203" height="57" viewBox="0 0 203 57" fill="none" xmlns="http://www.w3.org/2000/svg">
<g clip-path="url(#clip0_258_10982)">
<path d="M18.2026 34.8047L20.3111 34.4694V15.056L17.9583 14.7512L18.0804 12.6484H32.8082L32.4415 18.5305L29.5083 18.439L29.325 14.7512H24.7722V23.4979H26.7582L27.2166 21.4866L29.2638 21.5476V27.5819H27.2166L26.7278 25.5094H24.7417V34.7742H29.325L29.7528 30.7514L32.8388 30.8429L33.0831 36.9685H18.1112L18.2026 34.8047ZM34.4583 36.999L34.5501 35.201L36.1999 34.8657V22.6143L34.2749 22.4313V20.6028L39.1028 19.9019L39.4695 20.938V21.6389C40.6305 20.42 42.036 19.6884 43.8388 19.6884C46.4668 19.6884 48.4221 21.2733 48.4221 24.4123V34.8352L50.164 35.1705L50.0722 36.9685H44.3277V25.3266C44.3277 23.6502 43.7167 22.7056 42.1888 22.7056C41.6693 22.7056 41.3027 22.7971 40.9056 22.9493C40.6613 23.1628 40.4165 23.4676 40.2028 23.7419V34.8962L41.9445 35.2315L41.8223 37.0295H34.4583V36.999ZM126.767 36.999L126.828 35.201L128.478 34.8657V22.6143L126.553 22.4313V20.6028L131.381 19.9019L131.747 20.938V21.6389C132.908 20.42 134.314 19.6884 136.117 19.6884C138.745 19.6884 140.7 21.2733 140.7 24.4123V34.8352L142.442 35.1705L142.35 36.9685H136.636V25.3266C136.636 23.6502 136.025 22.7056 134.497 22.7056C133.978 22.7056 133.611 22.7971 133.214 22.9493C132.97 23.1628 132.725 23.4676 132.511 23.7419V34.8962L134.253 35.2315L134.131 37.0295H126.767V36.999ZM59.2694 36.6637C58.5972 36.938 57.4056 37.243 55.8473 37.243C53.8 37.243 51.9054 36.3286 51.9054 33.342V22.6141L49.9501 22.3095L50.0416 20.1762L52.2417 20.0847L53.1888 16.8237L56.0001 16.7017V20.2065H59.0251L58.8112 22.34L56.0305 22.6448V33.3722C56.0305 34.2561 56.5195 34.8352 57.4362 34.8352H59.0861L59.2694 36.6637ZM173.639 36.999L173.7 35.2315L175.258 34.8657V22.6143L173.425 22.4313V20.6028L178.436 19.9019L178.773 21.0903V21.4866C180.087 20.5113 181.859 19.8714 183.998 19.8714L184.731 20.5113L184.211 25.1436L181.461 25.0524L181.186 22.5838C180.545 22.6751 179.934 22.8581 179.414 23.2236V34.8962L181.156 35.262L181.034 37.0295H173.639V36.999ZM101.681 36.999L101.772 35.2315L103.331 34.8657V22.6143L101.497 22.4313V20.6028L106.508 19.9019L106.845 21.0903V21.4866C108.159 20.5113 109.931 19.8714 112.07 19.8714L112.803 20.5113L112.222 25.1436L109.472 25.0524L109.197 22.5838C108.556 22.6751 107.945 22.8581 107.425 23.2236V34.8962L109.167 35.262L109.045 37.0295H101.681V36.999ZM60.4916 36.999L60.5834 35.2315L62.1417 34.8657V22.6143L60.3083 22.4313V20.6028L65.3194 19.9019L65.6555 21.0903V21.4866C66.9695 20.5113 68.7417 19.8714 70.8501 19.8714L71.5834 20.5113L71.064 25.1436L68.3139 25.0524L68.0387 22.5838C67.3972 22.6751 66.7862 22.8581 66.2667 23.2236V34.8962L68.0084 35.262L67.8862 37.0295H60.4916V36.999ZM76.3195 29.5322C76.3195 32.4581 77.6026 34.7134 80.139 34.7134C81.453 34.7134 82.4919 34.4391 83.7141 33.8598L84.4168 35.4753C83.1641 36.4809 81.3306 37.2428 79.039 37.2428C74.5778 37.2428 72.0113 33.4027 72.0113 28.4656C72.0113 24.26 73.8751 19.6579 78.9778 19.6579C83.4392 19.6579 85.1196 23.7722 85.1196 28.3438L84.6917 29.4409L76.3195 29.5322ZM76.2585 27.5819L81.3918 27.3379C81.3001 25.2961 80.8724 22.0657 78.8556 22.0657C78.3668 22.0657 78.0307 22.157 77.4195 22.4618C76.5946 23.8639 76.2585 26.3933 76.2585 27.5819ZM147.331 29.5322C147.331 32.4581 148.614 34.7134 151.15 34.7134C152.464 34.7134 153.503 34.4391 154.725 33.8598L155.428 35.4753C154.175 36.4809 152.342 37.2428 150.05 37.2428C145.589 37.2428 143.023 33.4027 143.023 28.4656C143.023 24.26 144.886 19.6579 149.989 19.6579C154.45 19.6579 156.131 23.7722 156.131 28.3438L155.703 29.4409L147.331 29.5322ZM147.27 27.5819L152.403 27.3379C152.311 25.2961 151.883 22.0657 149.867 22.0657C149.378 22.0657 149.042 22.157 148.431 22.4618C147.606 23.8639 147.27 26.3933 147.27 27.5819ZM117.508 29.5322C117.508 32.4581 118.792 34.7134 121.328 34.7134C122.642 34.7134 123.681 34.4391 124.903 33.8598L125.606 35.4753C124.353 36.4809 122.52 37.2428 120.228 37.2428C115.767 37.2428 113.2 33.4027 113.2 28.4656C113.2 24.26 115.064 19.6579 120.167 19.6579C124.628 19.6579 126.309 23.7722 126.309 28.3438L125.881 29.4409L117.508 29.5322ZM117.447 27.5819L122.581 27.3379C122.489 25.2961 122.061 22.0657 120.045 22.0657C119.556 22.0657 119.22 22.157 118.609 22.4618C117.784 23.8639 117.417 26.3933 117.447 27.5819ZM167.681 36.999L167.253 35.5363C166.122 36.6027 165.022 37.2428 163.311 37.2428C160.683 37.2428 158.331 35.9323 158.331 32.3056V22.1877L156.406 22.0047V20.3895L161.967 19.7494L162.395 21.2123V31.8178C162.395 33.6768 163.158 34.6522 164.656 34.6522C165.084 34.6522 165.634 34.5912 166.122 34.4084C166.41 34.1212 166.666 33.8045 166.886 33.4635V22.1875L164.9 22.0047V20.3895L170.522 19.7494L170.95 21.2123V34.8657L172.692 35.201L172.478 36.999H167.681ZM93.4613 34.8047C92.5752 34.8047 91.8722 34.6524 91.3224 34.3476V23.5892C91.5667 23.2234 91.8418 22.8883 92.117 22.5836C92.6364 22.4005 93.0946 22.3398 93.6444 22.3398C95.9363 22.3398 96.3334 24.6558 96.3334 28.8006C96.3334 32.7932 95.7224 33.8903 95.5696 34.3474C94.9278 34.6522 94.2556 34.8045 93.4611 34.8045L93.4613 34.8047ZM100.306 28.0695C100.306 22.9191 98.778 19.6884 94.9584 19.6884C92.4222 19.6884 91.2306 21.1513 90.7418 21.7609V21.1816L90.3139 19.7189L85.3333 20.42V22.1875L87.2585 22.4313V43.2163L85.6085 43.5514L85.5167 45.2886H92.8807L93.0028 43.5514L91.2612 43.2163V36.6334C91.964 37.0295 92.9419 37.2733 94.0111 37.2733C100.244 37.2733 100.306 30.9647 100.306 28.0695Z" fill="black"/>
</g>
<defs>
<clipPath id="clip0_258_10982">
<rect width="166.773" height="32.6548" fill="white" transform="translate(17.9583 12.6416)"/>
</clipPath>
</defs>
</svg>
