<svg width="43" height="43" viewBox="0 0 43 43" fill="none" xmlns="http://www.w3.org/2000/svg">
<circle cx="21.5" cy="21.5" r="21.5" fill="#FF0000"/>
<path d="M32.7767 16.5478C32.5085 15.5516 31.7231 14.7662 30.7269 14.4981C28.9071 14 21.6278 14 21.6278 14C21.6278 14 14.3484 14 12.5286 14.4789C11.5516 14.7471 10.7471 15.5516 10.4789 16.5478C10 18.3676 10 22.1414 10 22.1414C10 22.1414 10 25.9343 10.4789 27.735C10.7471 28.7311 11.5325 29.5165 12.5286 29.7847C14.3676 30.2827 21.6278 30.2827 21.6278 30.2827C21.6278 30.2827 28.9071 30.2827 30.7269 29.8038C31.7231 29.5356 32.5085 28.7502 32.7767 27.7541C33.2556 25.9343 33.2556 22.1605 33.2556 22.1605C33.2556 22.1605 33.2747 18.3676 32.7767 16.5478Z" fill="white"/>
<path d="M19.3096 18.6553V25.6281L25.3629 22.1417L19.3096 18.6553Z" fill="#FF0000"/>
</svg>
