<svg width="270" height="180" viewBox="0 0 270 180" fill="none" xmlns="http://www.w3.org/2000/svg">
<g clip-path="url(#clip0_258_10812)">
<path d="M217.146 132.69V44.6409C217.146 34.4839 208.912 26.25 198.755 26.25L70.5445 26.25C60.3875 26.25 52.1536 34.4839 52.1536 44.6409V132.69C52.1536 142.847 60.3875 151.081 70.5445 151.081H198.755C208.912 151.081 217.146 142.847 217.146 132.69Z" fill="white" stroke="#E1E4E5" stroke-width="3.3"/>
<path d="M244.201 144.819H25.5771C23.8841 144.819 22.5117 146.192 22.5117 147.885V150.407C22.5117 152.1 23.8841 153.472 25.5771 153.472H244.201C245.894 153.472 247.266 152.1 247.266 150.407V147.885C247.266 146.192 245.894 144.819 244.201 144.819Z" fill="white" stroke="#E1E4E5" stroke-width="3.3"/>
<path d="M134.892 131.14C157.672 131.14 176.138 112.674 176.138 89.8939C176.138 67.1141 157.672 48.6475 134.892 48.6475C112.112 48.6475 93.6455 67.1141 93.6455 89.8939C93.6455 112.674 112.112 131.14 134.892 131.14Z" fill="#A762FE"/>
<path d="M108.312 100.735L130.31 86.3313L141.309 97.254M141.309 97.3305L163.307 82.665" stroke="white" stroke-width="7.2" stroke-linecap="round" stroke-linejoin="round"/>
<path fill-rule="evenodd" clip-rule="evenodd" d="M66.5435 44.1584C65.8279 44.1659 65.1441 44.4554 64.6407 44.9641C64.1373 45.4729 63.855 46.1596 63.855 46.8753C63.855 47.591 64.1373 48.2778 64.6407 48.7865C65.1441 49.2952 65.8279 49.5847 66.5435 49.5923H93.7136C94.0728 49.596 94.4292 49.5285 94.7621 49.3937C95.0951 49.2588 95.398 49.0593 95.6533 48.8067C95.9086 48.554 96.1114 48.2532 96.2497 47.9217C96.388 47.5902 96.4593 47.2345 96.4593 46.8753C96.4593 46.5161 96.388 46.1604 96.2497 45.8289C96.1114 45.4974 95.9086 45.1966 95.6533 44.944C95.398 44.6913 95.0951 44.4918 94.7621 44.3569C94.4292 44.2221 94.0728 44.1546 93.7136 44.1584H66.5435ZM66.5435 55.0265C66.1843 55.0227 65.8279 55.0902 65.495 55.225C65.162 55.3599 64.8591 55.5594 64.6038 55.8121C64.3485 56.0647 64.1458 56.3655 64.0074 56.697C63.8691 57.0285 63.7979 57.3842 63.7979 57.7434C63.7979 58.1026 63.8691 58.4583 64.0074 58.7898C64.1458 59.1213 64.3485 59.4221 64.6038 59.6748C64.8591 59.9274 65.162 60.1269 65.495 60.2618C65.8279 60.3966 66.1843 60.4641 66.5435 60.4604H77.4113C78.1269 60.4528 78.8107 60.1633 79.3141 59.6546C79.8175 59.1459 80.0999 58.4591 80.0999 57.7434C80.0999 57.0277 79.8175 56.341 79.3141 55.8322C78.8107 55.3235 78.1269 55.034 77.4113 55.0265H66.5435ZM203.05 44.1584C203.766 44.1659 204.45 44.4554 204.953 44.9641C205.456 45.4729 205.739 46.1596 205.739 46.8753C205.739 47.591 205.456 48.2778 204.953 48.7865C204.45 49.2952 203.766 49.5847 203.05 49.5923H175.88C175.521 49.596 175.164 49.5285 174.831 49.3937C174.499 49.2588 174.196 49.0593 173.94 48.8067C173.685 48.554 173.482 48.2532 173.344 47.9217C173.206 47.5902 173.134 47.2345 173.134 46.8753C173.134 46.5161 173.206 46.1604 173.344 45.8289C173.482 45.4974 173.685 45.1966 173.94 44.944C174.196 44.6913 174.499 44.4918 174.831 44.3569C175.164 44.2221 175.521 44.1546 175.88 44.1584H203.05ZM203.05 55.0265C203.409 55.0227 203.766 55.0902 204.099 55.225C204.432 55.3599 204.734 55.5594 204.99 55.8121C205.245 56.0647 205.448 56.3655 205.586 56.697C205.725 57.0285 205.796 57.3842 205.796 57.7434C205.796 58.1026 205.725 58.4583 205.586 58.7898C205.448 59.1213 205.245 59.4221 204.99 59.6748C204.734 59.9274 204.432 60.1269 204.099 60.2618C203.766 60.3966 203.409 60.4641 203.05 60.4604H192.182C191.466 60.4528 190.783 60.1633 190.279 59.6546C189.776 59.1459 189.493 58.4591 189.493 57.7434C189.493 57.0277 189.776 56.341 190.279 55.8322C190.783 55.3235 191.466 55.034 192.182 55.0265H203.05Z" fill="#A762FE"/>
<path d="M107.206 44.6785C112.323 47.2171 119.115 43.9528 119.115 43.9528C119.115 43.9528 117.606 36.5746 112.486 34.0396C107.368 31.501 100.579 34.7617 100.579 34.7617C100.579 34.7617 102.089 42.1399 107.206 44.6785Z" fill="url(#paint0_linear_258_10812)"/>
<path d="M80.0241 93.2154C82.0632 93.2154 83.7162 94.8684 83.7162 96.9075C83.7162 98.9466 82.0632 100.6 80.0241 100.6C77.985 100.6 76.332 98.9466 76.332 96.9075C76.332 94.8684 77.985 93.2154 80.0241 93.2154Z" fill="#A762FE"/>
<path d="M195.197 89.3683C198.334 89.3683 200.878 91.9118 200.878 95.0494C200.878 98.187 198.334 100.73 195.197 100.73C192.059 100.73 189.516 98.187 189.516 95.0494C189.516 91.9118 192.059 89.3683 195.197 89.3683Z" fill="#A762FE"/>
<path d="M152.165 44.1648C154.203 44.1648 155.855 42.5126 155.855 40.4745C155.855 38.4364 154.203 36.7842 152.165 36.7842C150.127 36.7842 148.475 38.4364 148.475 40.4745C148.475 42.5126 150.127 44.1648 152.165 44.1648Z" fill="#A762FE"/>
<path d="M200.824 128.337C203.704 128.337 206.04 126.001 206.04 123.12C206.04 120.24 203.704 117.904 200.824 117.904C197.943 117.904 195.607 120.24 195.607 123.12C195.607 126.001 197.943 128.337 200.824 128.337Z" fill="#E1E4E5"/>
<path d="M98.1632 135.598C100.658 135.598 102.681 133.575 102.681 131.08C102.681 128.585 100.658 126.562 98.1632 126.562C95.6681 126.562 93.6455 128.585 93.6455 131.08C93.6455 133.575 95.6681 135.598 98.1632 135.598Z" fill="#E1E4E5"/>
<path d="M73.6199 87.1462C75.1326 87.1462 76.3589 86.1362 76.3589 84.8905C76.3589 83.6447 75.1326 82.6348 73.6199 82.6348C72.1072 82.6348 70.8809 83.6447 70.8809 84.8905C70.8809 86.1362 72.1072 87.1462 73.6199 87.1462Z" fill="#E1E4E5"/>
<path d="M67.3536 128.502C67.3536 130.282 68.7964 131.724 70.5762 131.724C72.356 131.724 73.7988 130.282 73.7988 128.502C73.7988 126.722 72.356 125.279 70.5762 125.279C68.7964 125.279 67.3536 126.722 67.3536 128.502Z" fill="#E1E4E5"/>
</g>
<defs>
<linearGradient id="paint0_linear_258_10812" x1="126.857" y1="52.5967" x2="84.6491" y2="19.2097" gradientUnits="userSpaceOnUse">
<stop stop-color="white"/>
<stop offset="1" stop-color="#EEEEEE"/>
</linearGradient>
<clipPath id="clip0_258_10812">
<rect width="270" height="180" fill="white"/>
</clipPath>
</defs>
</svg>
