<svg width="420" height="280" viewBox="0 0 420 280" fill="none" xmlns="http://www.w3.org/2000/svg">
<g clip-path="url(#clip0_258_10888)">
<path d="M381.088 23.0637H70.9333C69.9024 23.0637 69.0667 23.8995 69.0667 24.9304V255.253C69.0667 256.284 69.9024 257.119 70.9333 257.119H381.088C382.119 257.119 382.955 256.284 382.955 255.253V24.9304C382.955 23.8995 382.119 23.0637 381.088 23.0637Z" fill="white" stroke="#E1E4E5" stroke-width="1.86667"/>
<path d="M323.049 78.2409C325.177 77.0121 327.591 76.3652 330.049 76.3652C332.507 76.3652 334.921 77.0121 337.049 78.2409L354.673 88.4156C356.801 89.6444 358.568 91.4117 359.797 93.54C361.026 95.6683 361.673 98.0825 361.673 100.54V120.89C361.673 123.347 361.026 125.762 359.797 127.89C358.568 130.018 356.801 131.785 354.673 133.014L337.049 143.189C334.921 144.418 332.507 145.065 330.049 145.065C327.591 145.065 325.177 144.418 323.049 143.189L305.426 133.014C303.298 131.785 301.53 130.018 300.301 127.89C299.073 125.762 298.426 123.347 298.426 120.89V100.54C298.426 98.0825 299.073 95.6683 300.301 93.54C301.53 91.4117 303.297 89.6444 305.426 88.4156L323.049 78.2409Z" fill="#A762FE"/>
<path d="M341.343 103.895L328.014 117.117L320.017 109.183" stroke="white" stroke-width="3.94333" stroke-linecap="round" stroke-linejoin="round"/>
<path d="M240.801 213.93H220.734C219.703 213.93 218.867 214.765 218.867 215.796V240.996C218.867 242.027 219.703 242.863 220.734 242.863H240.801C241.831 242.863 242.667 242.027 242.667 240.996V215.796C242.667 214.765 241.831 213.93 240.801 213.93Z" fill="#A762FE"/>
<path d="M272.066 198.063H251.999C250.969 198.063 250.133 198.899 250.133 199.93V240.997C250.133 242.028 250.969 242.863 251.999 242.863H272.066C273.097 242.863 273.933 242.028 273.933 240.997V199.93C273.933 198.899 273.097 198.063 272.066 198.063Z" fill="white" stroke="#E1E4E5" stroke-width="1.86667"/>
<path d="M303.334 184.996H283.267C282.236 184.996 281.4 185.832 281.4 186.863V240.996C281.4 242.027 282.236 242.863 283.267 242.863H303.334C304.365 242.863 305.2 242.027 305.2 240.996V186.863C305.2 185.832 304.365 184.996 303.334 184.996Z" fill="#A762FE"/>
<path d="M334.6 172.396H314.534C313.503 172.396 312.667 173.232 312.667 174.263V240.996C312.667 242.027 313.503 242.863 314.534 242.863H334.6C335.631 242.863 336.467 242.027 336.467 240.996V174.263C336.467 173.232 335.631 172.396 334.6 172.396Z" fill="white" stroke="#E1E4E5" stroke-width="1.86667"/>
<path d="M365.867 157.463H345.8C344.769 157.463 343.934 158.299 343.934 159.33V240.996C343.934 242.027 344.769 242.863 345.8 242.863H365.867C366.898 242.863 367.734 242.027 367.734 240.996V159.33C367.734 158.299 366.898 157.463 365.867 157.463Z" fill="#A762FE"/>
<path d="M381.267 22.8662H71.1118C70.0809 22.8662 69.2451 23.7019 69.2451 24.7329V48.2151C69.2451 49.246 70.0809 50.0817 71.1118 50.0817H381.267C382.298 50.0817 383.134 49.246 383.134 48.2151V24.7329C383.134 23.7019 382.298 22.8662 381.267 22.8662Z" fill="white" stroke="#E1E4E5" stroke-width="1.86667"/>
<path d="M89.203 36.4745C89.203 33.9693 87.1721 31.9385 84.667 31.9385C82.1618 31.9385 80.131 33.9693 80.131 36.4745C80.131 38.9796 82.1618 41.0105 84.667 41.0105C87.1721 41.0105 89.203 38.9796 89.203 36.4745Z" fill="white" stroke="#E1E4E5" stroke-width="1.86667"/>
<path d="M105.533 36.4745C105.533 33.9693 103.502 31.9385 100.997 31.9385C98.4918 31.9385 96.4609 33.9693 96.4609 36.4745C96.4609 38.9796 98.4918 41.0105 100.997 41.0105C103.502 41.0105 105.533 38.9796 105.533 36.4745Z" fill="white" stroke="#E1E4E5" stroke-width="1.86667"/>
<path d="M121.862 36.4745C121.862 33.9693 119.831 31.9385 117.326 31.9385C114.821 31.9385 112.79 33.9693 112.79 36.4745C112.79 38.9796 114.821 41.0105 117.326 41.0105C119.831 41.0105 121.862 38.9796 121.862 36.4745Z" fill="white" stroke="#E1E4E5" stroke-width="1.86667"/>
<path d="M88.469 115.236H152.368V167.128H88.469V115.236Z" fill="#E1E4E5"/>
<path fill-rule="evenodd" clip-rule="evenodd" d="M146.937 119.239H94.3303C93.4583 119.239 92.6221 119.585 92.0055 120.202C91.389 120.818 91.0426 121.655 91.0426 122.527V161.981C91.0425 162.413 91.1275 162.84 91.2927 163.239C91.4579 163.638 91.7001 164.001 92.0054 164.306C92.3107 164.611 92.6731 164.853 93.072 165.019C93.4709 165.184 93.8985 165.269 94.3303 165.269H146.937C147.368 165.269 147.796 165.184 148.195 165.019C148.594 164.853 148.956 164.611 149.262 164.306C149.567 164.001 149.809 163.638 149.974 163.239C150.139 162.84 150.224 162.413 150.224 161.981V122.527C150.224 121.655 149.878 120.818 149.261 120.202C148.645 119.585 147.809 119.239 146.937 119.239ZM94.3303 112.663C88.8829 112.663 84.4668 117.079 84.4668 122.527V161.981C84.4668 167.429 88.8829 171.845 94.3303 171.845H146.937C152.384 171.845 156.8 167.429 156.8 161.981V122.527C156.8 117.079 152.384 112.663 146.937 112.663H94.3303Z" fill="#E1E4E5"/>
<path fill-rule="evenodd" clip-rule="evenodd" d="M98.3802 126.998C98.9385 126.329 99.74 125.908 100.608 125.829C101.477 125.75 102.341 126.019 103.011 126.577L118.529 139.509C119.119 140.001 119.864 140.271 120.633 140.271C121.402 140.271 122.147 140.001 122.738 139.509L138.255 126.577C138.927 126.031 139.786 125.771 140.648 125.854C141.51 125.937 142.304 126.357 142.858 127.022C143.412 127.687 143.682 128.544 143.608 129.406C143.535 130.269 143.124 131.067 142.465 131.629L126.948 144.56C123.29 147.609 117.976 147.609 114.319 144.56L98.8011 131.629C98.1313 131.071 97.7106 130.269 97.6317 129.401C97.5527 128.532 97.822 127.668 98.3802 126.998Z" fill="white"/>
<path d="M277.667 129.93C277.667 101.579 254.684 78.5967 226.333 78.5967C197.983 78.5967 175 101.579 175 129.93C175 158.281 197.983 181.263 226.333 181.263C254.684 181.263 277.667 158.281 277.667 129.93Z" stroke="#E1E4E5" stroke-width="1.9796" stroke-linecap="round" stroke-linejoin="bevel" stroke-dasharray="4.95 12.37"/>
<path d="M88.4688 186.169H152.368V238.06H88.4688V186.169Z" fill="#E1E4E5"/>
<path fill-rule="evenodd" clip-rule="evenodd" d="M146.937 190.172H94.3303C93.4583 190.172 92.6221 190.519 92.0055 191.135C91.389 191.752 91.0426 192.588 91.0426 193.46V232.914C91.0425 233.346 91.1275 233.774 91.2927 234.173C91.4579 234.572 91.7001 234.934 92.0054 235.24C92.3107 235.545 92.6731 235.787 93.072 235.952C93.4709 236.118 93.8985 236.203 94.3303 236.203H146.937C147.368 236.203 147.796 236.118 148.195 235.952C148.594 235.787 148.956 235.545 149.262 235.24C149.567 234.934 149.809 234.572 149.974 234.173C150.139 233.774 150.224 233.346 150.224 232.914V193.46C150.224 192.588 149.878 191.752 149.261 191.135C148.645 190.519 147.809 190.172 146.937 190.172ZM94.3303 183.597C88.8829 183.597 84.4668 188.013 84.4668 193.46V232.914C84.4668 238.362 88.8829 242.778 94.3303 242.778H146.937C152.384 242.778 156.8 238.362 156.8 232.914V193.46C156.8 188.013 152.384 183.597 146.937 183.597H94.3303Z" fill="#E1E4E5"/>
<path fill-rule="evenodd" clip-rule="evenodd" d="M98.3802 197.931C98.9385 197.261 99.74 196.84 100.608 196.762C101.477 196.683 102.341 196.952 103.011 197.51L118.529 210.441C119.119 210.934 119.864 211.203 120.633 211.203C121.402 211.203 122.147 210.934 122.738 210.441L138.255 197.51C138.927 196.963 139.786 196.704 140.648 196.787C141.51 196.87 142.304 197.29 142.858 197.955C143.412 198.62 143.682 199.476 143.608 200.339C143.535 201.201 143.124 202 142.465 202.562L126.948 215.493C123.29 218.541 117.976 218.541 114.319 215.493L98.8011 202.562C98.1313 202.003 97.7106 201.202 97.6317 200.334C97.5527 199.465 97.822 198.601 98.3802 197.931Z" fill="white"/>
<path d="M40.8691 81.1699H104.768V133.061H40.8691V81.1699Z" fill="#A762FE"/>
<path fill-rule="evenodd" clip-rule="evenodd" d="M99.3371 85.1725H46.7307C45.8587 85.1725 45.0225 85.5189 44.4059 86.1354C43.7894 86.752 43.443 87.5882 43.443 88.4601V127.914C43.4429 128.346 43.5279 128.774 43.6931 129.173C43.8583 129.572 44.1005 129.934 44.4058 130.24C44.7111 130.545 45.0735 130.787 45.4724 130.952C45.8713 131.118 46.2989 131.203 46.7307 131.203H99.3371C99.7688 131.203 100.196 131.118 100.595 130.952C100.994 130.787 101.357 130.545 101.662 130.24C101.967 129.934 102.209 129.572 102.375 129.173C102.54 128.774 102.625 128.346 102.625 127.914V88.4601C102.625 87.5882 102.278 86.752 101.662 86.1354C101.045 85.5189 100.209 85.1725 99.3371 85.1725ZM46.7307 78.5967C41.2833 78.5967 36.8672 83.0127 36.8672 88.4601V127.914C36.8672 133.362 41.2833 137.778 46.7307 137.778H99.3371C104.784 137.778 109.201 133.362 109.201 127.914V88.4601C109.201 83.0127 104.784 78.5967 99.3371 78.5967H46.7307Z" fill="#A762FE"/>
<path fill-rule="evenodd" clip-rule="evenodd" d="M50.7796 92.931C51.3379 92.2612 52.1394 91.8405 53.0078 91.7616C53.8762 91.6826 54.7404 91.9519 55.4103 92.5101L70.9279 105.441C71.5188 105.934 72.2635 106.203 73.0326 106.203C73.8017 106.203 74.5464 105.934 75.1373 105.441L90.6549 92.5101C91.3261 91.9634 92.1858 91.7036 93.0474 91.7868C93.909 91.87 94.703 92.2897 95.2572 92.9547C95.8114 93.6197 96.0809 94.4763 96.0075 95.3388C95.934 96.2013 95.5233 97.0001 94.8647 97.5617L79.3471 110.493C75.6893 113.541 70.3759 113.541 66.7181 110.493L51.2005 97.5617C50.5307 97.0034 50.11 96.2019 50.0311 95.3335C49.9521 94.4651 50.2214 93.6009 50.7796 92.931Z" fill="white"/>
<path d="M225.99 121.53C221.283 121.53 217.466 125.346 217.466 130.053C217.466 134.761 221.283 138.577 225.99 138.577C230.697 138.577 234.514 134.761 234.514 130.053C234.514 125.346 230.697 121.53 225.99 121.53Z" fill="#A762FE"/>
<path d="M196.99 244.183C192.577 244.183 188.999 240.605 188.999 236.191C188.999 231.778 192.577 228.2 196.99 228.2C201.404 228.2 204.981 231.778 204.981 236.191C204.981 240.605 201.404 244.183 196.99 244.183Z" fill="#A762FE"/>
<path d="M180.665 158.349C181.989 156.056 184.921 155.27 187.215 156.594C189.508 157.918 190.294 160.851 188.97 163.144C187.646 165.437 184.713 166.223 182.42 164.899C180.127 163.575 179.341 160.642 180.665 158.349Z" fill="#E1E4E5"/>
<path d="M174.925 200.247C171.1 200.247 168 197.147 168 193.322C168 189.497 171.1 186.396 174.925 186.396C178.75 186.396 181.85 189.497 181.85 193.322C181.85 197.147 178.75 200.247 174.925 200.247Z" fill="#E1E4E5"/>
<path d="M152.601 80.9316C148.735 80.9316 145.601 77.7974 145.601 73.9311C145.601 70.0649 148.735 66.9307 152.601 66.9307C156.467 66.9307 159.602 70.0649 159.602 73.9311C159.602 77.7974 156.467 80.9316 152.601 80.9316Z" fill="#E1E4E5"/>
<path d="M120.804 165.863H120.926C121.649 171.625 129.267 171.713 129.267 171.713C129.267 171.713 120.867 171.806 120.867 178.463C120.867 171.806 112.467 171.713 112.467 171.713C112.467 171.713 120.081 171.625 120.804 165.863Z" fill="#E1E4E5"/>
</g>
<defs>
<clipPath id="clip0_258_10888">
<rect width="420" height="280" fill="white"/>
</clipPath>
</defs>
</svg>
