<svg width="250" height="167" viewBox="0 0 250 167" fill="none" xmlns="http://www.w3.org/2000/svg">
<g clip-path="url(#clip0_258_10208)">
<path d="M201.154 65.5523C197.428 72.2039 189.265 73.1178 176.188 71.8539C166.354 70.9014 157.385 70.1645 147.549 64.802C140.666 61.0514 135.216 55.9767 131.239 51.0484C126.929 45.7089 120.913 39.6153 123.862 33.5614C127.915 25.2453 151.352 18.2414 174.109 29.6953C199.109 42.2809 204.801 59.0514 201.154 65.5523Z" fill="url(#paint0_linear_258_10208)"/>
<path d="M226.443 79.594C219.421 83.0768 210.103 78.5984 210.103 78.5984C210.103 78.5984 212.174 68.4751 219.199 64.997C226.22 61.5143 235.535 65.9876 235.535 65.9876C235.535 65.9876 233.464 76.1109 226.443 79.594Z" fill="url(#paint1_linear_258_10208)"/>
<path d="M27.0044 105.049C36.1783 110.547 49.3402 105.465 49.3402 105.465C49.3402 105.465 47.6191 91.4693 38.4397 85.9771C29.2655 80.4787 16.1094 85.5551 16.1094 85.5551C16.1094 85.5551 17.8305 99.5507 27.0044 105.049Z" fill="url(#paint2_linear_258_10208)"/>
<path d="M212.627 52.4216C210.51 52.4216 208.794 54.138 208.794 56.2553C208.794 58.3725 210.51 60.0889 212.627 60.0889C214.745 60.0889 216.461 58.3725 216.461 56.2553C216.461 54.138 214.745 52.4216 212.627 52.4216Z" fill="#A762FE"/>
<path d="M68.2328 73.6581C65.8508 73.6581 63.9198 75.5891 63.9198 77.9711C63.9198 80.3532 65.8508 82.2842 68.2328 82.2842C70.6149 82.2842 72.5459 80.3532 72.5459 77.9711C72.5459 75.5891 70.6149 73.6581 68.2328 73.6581Z" fill="#A762FE"/>
<path d="M39.3385 56.2147C37.3534 56.2147 35.7443 54.6055 35.7443 52.6205C35.7443 50.6355 37.3534 49.0264 39.3385 49.0264C41.3235 49.0264 42.9326 50.6355 42.9326 52.6205C42.9326 54.6055 41.3235 56.2147 39.3385 56.2147Z" fill="#A762FE"/>
<path d="M179.749 72.9873C178.822 72.9873 178.071 72.2363 178.071 71.31C178.071 70.3837 178.822 69.6328 179.749 69.6328C180.675 69.6328 181.426 70.3837 181.426 71.31C181.426 72.2363 180.675 72.9873 179.749 72.9873Z" fill="#A762FE"/>
<path d="M189.429 148.308C188.238 148.308 187.272 147.342 187.272 146.152C187.272 144.961 188.238 143.995 189.429 143.995C190.62 143.995 191.585 144.961 191.585 146.152C191.585 147.342 190.62 148.308 189.429 148.308Z" fill="#E1E4E5"/>
<path d="M38.6955 126.875C36.9752 126.875 35.5805 125.48 35.5805 123.76C35.5805 122.039 36.9752 120.645 38.6955 120.645C40.4159 120.645 41.8105 122.039 41.8105 123.76C41.8105 125.48 40.4159 126.875 38.6955 126.875Z" fill="#E1E4E5"/>
<path d="M74.718 46.5415C73.4087 46.5415 72.3472 45.48 72.3472 44.1706C72.3472 42.8613 73.4087 41.7998 74.718 41.7998C76.0274 41.7998 77.0889 42.8613 77.0889 44.1706C77.0889 45.48 76.0274 46.5415 74.718 46.5415Z" fill="#E1E4E5"/>
<path d="M189.817 47.2457C188.361 47.2457 187.181 46.0657 187.181 44.6102C187.181 43.1546 188.361 41.9746 189.817 41.9746C191.272 41.9746 192.452 43.1546 192.452 44.6102C192.452 46.0657 191.272 47.2457 189.817 47.2457Z" fill="#E1E4E5"/>
<path d="M48.1188 73.9087C48.4571 75.1714 47.7078 76.4693 46.4451 76.8076C45.1824 77.146 43.8845 76.3966 43.5462 75.1339C43.2079 73.8713 43.9572 72.5734 45.2199 72.235C46.4826 71.8967 47.7805 72.646 48.1188 73.9087Z" fill="#E1E4E5"/>
<path d="M105.934 27.431C104.195 27.431 102.786 26.0213 102.786 24.2824C102.786 22.5435 104.195 21.1338 105.934 21.1338C107.673 21.1338 109.083 22.5435 109.083 24.2824C109.083 26.0213 107.673 27.431 105.934 27.431Z" fill="#E1E4E5"/>
<path d="M206.346 106.704C205.008 106.704 203.924 105.837 203.924 104.767C203.924 103.697 205.008 102.829 206.346 102.829C207.683 102.829 208.767 103.697 208.767 104.767C208.767 105.837 207.683 106.704 206.346 106.704Z" fill="#E1E4E5"/>
<path d="M165.421 22.8615C166.125 25.4893 164.565 28.1903 161.938 28.8944C159.31 29.5985 156.609 28.0391 155.905 25.4113C155.201 22.7835 156.76 20.0825 159.388 19.3784C162.016 18.6743 164.717 20.2337 165.421 22.8615Z" fill="#E1E4E5"/>
<path d="M224.713 91.3838H224.777C225.152 96.6999 229.106 96.7816 229.106 96.7816C229.106 96.7816 224.746 96.8668 224.746 103.009C224.746 96.8668 220.386 96.7816 220.386 96.7816C220.386 96.7816 224.338 96.6999 224.713 91.3838ZM65.4657 143.066H65.5218C65.8549 147.877 69.3629 147.951 69.3629 147.951C69.3629 147.951 65.4946 148.029 65.4946 153.588C65.4946 148.029 61.626 147.951 61.626 147.951C61.626 147.951 65.1326 147.877 65.4657 143.066Z" fill="#E1E4E5"/>
<path d="M149.278 118.729C151.652 118.8 154.049 117.929 155.861 116.117C159.348 112.63 159.348 106.976 155.861 103.489C152.374 100.002 146.72 100.002 143.233 103.489C141.724 104.992 140.806 106.987 140.644 109.111C140.499 110.981 140.103 112.932 138.777 114.259C138.284 114.752 137.615 115.029 136.918 115.029C136.221 115.029 135.553 114.752 135.06 114.259L127.447 106.646C125.704 104.902 122.877 104.902 121.133 106.646L114.002 113.777C112.558 115.221 112.828 116.647 114.87 116.659C117.138 116.672 119.403 117.544 121.133 119.274C124.62 122.761 124.62 128.415 121.133 131.902C117.646 135.39 111.992 135.39 108.505 131.902C106.964 130.366 106.04 128.319 105.907 126.147C105.887 125.825 105.928 125.487 105.982 125.148C106.277 123.322 104.484 123.295 103.176 124.603L99.0337 128.745C97.29 130.489 97.29 133.316 99.0337 135.06L124.29 160.316C126.034 162.06 128.861 162.06 130.604 160.316L134.38 156.539L152.703 138.216C154.447 136.472 154.447 133.645 152.703 131.902L145.77 124.969C144.369 123.568 144.369 121.295 145.77 119.893C146.676 118.987 147.998 118.69 149.278 118.729ZM100.488 47.7983C98.1145 47.7274 95.7178 48.598 93.9059 50.4096C90.4187 53.8969 90.4187 59.5508 93.9059 63.038C97.3931 66.5252 103.047 66.5252 106.534 63.038C108.042 61.5343 108.961 59.5395 109.123 57.416C109.267 55.5455 109.663 53.5946 110.99 52.268C112.016 51.2416 113.68 51.2416 114.706 52.268L122.319 59.881C124.063 61.6246 126.89 61.6246 128.634 59.881L135.764 52.7499C137.208 51.3063 136.938 49.8794 134.897 49.868C132.628 49.8552 130.364 48.9833 128.634 47.2527C125.146 43.7655 125.146 38.1116 128.634 34.6244C132.121 31.1371 137.774 31.1371 141.262 34.6244C142.802 36.1605 143.727 38.2079 143.86 40.3794C143.88 40.7013 143.839 41.0402 143.784 41.3788C143.49 43.2049 145.283 43.2319 146.591 41.9238L150.733 37.7816C152.476 36.038 152.476 33.211 150.733 31.4674L125.477 6.21103C123.733 4.46742 120.906 4.46742 119.162 6.21103L115.387 9.98742L97.0634 28.311C95.32 30.0546 95.32 32.8813 97.0636 34.6249L103.996 41.5577C105.398 42.9594 105.398 45.2319 103.996 46.6335C103.09 47.5394 101.769 47.8366 100.488 47.7983ZM158.284 61.3463C158.355 58.9724 157.484 56.5755 155.673 54.7638C152.185 51.2766 146.531 51.2766 143.044 54.7638C139.557 58.2508 139.557 63.9046 143.044 67.3919C144.548 68.9 146.543 69.8185 148.666 69.9805C150.537 70.1252 152.488 70.5213 153.814 71.848C154.841 72.8741 154.841 74.538 153.814 75.5644L146.201 83.1771C144.458 84.9208 144.458 87.7477 146.201 89.4913L153.332 96.6224C154.776 98.066 156.203 97.796 156.214 95.7546C156.227 93.4863 157.099 91.2219 158.829 89.4913C162.317 86.0041 167.971 86.0041 171.458 89.4913C174.945 92.9785 174.945 98.6324 171.458 102.12C169.922 103.66 167.874 104.584 165.703 104.717C165.381 104.738 165.042 104.697 164.703 104.642C162.877 104.347 162.85 106.14 164.158 107.449L168.301 111.591C170.044 113.334 172.871 113.334 174.615 111.591L199.871 86.3344C201.615 84.5908 201.615 81.7638 199.871 80.0202L196.095 76.2446L177.771 57.9213C176.028 56.1777 173.201 56.1777 171.457 57.9213L164.524 64.8541C163.123 66.2558 160.85 66.2558 159.449 64.8541C158.543 63.948 158.246 62.6269 158.284 61.3463ZM91.4828 105.181C91.412 107.555 92.2823 109.951 94.0942 111.763C97.5814 115.25 103.235 115.25 106.723 111.763C110.21 108.276 110.21 102.622 106.723 99.1349C105.219 97.6269 103.224 96.7084 101.101 96.5463C99.23 96.4019 97.2789 96.0058 95.9525 94.6791C94.9261 93.6527 94.9261 91.9888 95.9525 90.9627L103.565 83.3496C105.309 81.606 105.309 78.7791 103.565 77.0355L96.4345 69.9046C94.9909 68.461 93.5639 68.7308 93.5525 70.7724C93.5395 73.0408 92.6678 75.3049 90.9373 77.0355C87.45 80.5227 81.7962 80.5227 78.3089 77.0355C74.8217 73.5485 74.8217 67.8946 78.3089 64.4074C79.845 62.8668 81.8924 61.9425 84.0639 61.8094C84.3859 61.7894 84.7248 61.8299 85.0634 61.8846C86.8895 62.1794 86.9164 60.3866 85.6084 59.0785L81.4659 54.9363C79.7223 53.1927 76.8956 53.1927 75.152 54.9363L49.8956 80.1927C48.152 81.9363 48.152 84.7633 49.8956 86.5069L53.672 90.2822L71.9956 108.606C73.7392 110.349 76.5659 110.349 78.3095 108.605L85.2423 101.673C86.6439 100.271 88.9164 100.271 90.3181 101.673C91.2239 102.579 91.5211 103.9 91.4828 105.181Z" fill="#A762FE"/>
<path fill-rule="evenodd" clip-rule="evenodd" d="M134.443 84.2412H133.187C133.041 84.2411 132.902 84.1833 132.799 84.0806C132.696 83.9778 132.639 83.8384 132.639 83.6931V82.4373C132.639 82.1334 132.886 81.889 133.187 81.889H134.443C134.744 81.889 134.991 82.1362 134.991 82.4373V83.6931C134.991 83.7651 134.977 83.8365 134.949 83.903C134.922 83.9696 134.882 84.0301 134.831 84.081C134.78 84.1319 134.719 84.1723 134.653 84.1998C134.586 84.2272 134.515 84.2413 134.443 84.2412ZM130.088 84.2412H128.832C128.687 84.2407 128.548 84.1828 128.445 84.0801C128.343 83.9774 128.285 83.8383 128.284 83.6931V82.4373C128.284 82.1334 128.531 81.889 128.832 81.889H130.088C130.389 81.889 130.636 82.1362 130.636 82.4373V83.6931C130.636 83.8383 130.578 83.9774 130.475 84.0801C130.373 84.1828 130.234 84.2407 130.088 84.2412ZM125.731 84.2412H124.476C124.33 84.2407 124.191 84.1828 124.089 84.0801C123.986 83.9774 123.928 83.8383 123.927 83.6931V82.4373C123.927 82.1334 124.174 81.889 124.476 81.889H125.731C126.032 81.889 126.28 82.1362 126.28 82.4373V83.6931C126.28 83.7651 126.266 83.8365 126.238 83.903C126.211 83.9696 126.17 84.0301 126.119 84.081C126.068 84.1319 126.008 84.1723 125.941 84.1998C125.875 84.2272 125.803 84.2413 125.731 84.2412ZM121.377 84.2412H120.121C119.976 84.2407 119.837 84.1828 119.734 84.0801C119.631 83.9774 119.574 83.8383 119.573 83.6931V82.4373C119.573 82.1334 119.82 81.889 120.121 81.889H121.377C121.681 81.889 121.928 82.1362 121.928 82.4373V83.6931C121.926 83.8385 121.868 83.9773 121.764 84.0799C121.661 84.1824 121.522 84.2403 121.377 84.2412ZM117.022 84.2412H115.767C115.621 84.2412 115.481 84.1835 115.378 84.0808C115.275 83.9781 115.217 83.8387 115.216 83.6931V82.4373C115.216 82.1334 115.463 81.889 115.767 81.889H117.022C117.324 81.889 117.571 82.1362 117.571 82.4373V83.6931C117.57 83.8383 117.512 83.9774 117.409 84.0801C117.307 84.1828 117.168 84.2407 117.022 84.2412ZM129.929 79.4934H128.673C128.528 79.4928 128.388 79.4348 128.286 79.3321C128.183 79.2294 128.125 79.0903 128.125 78.9451V77.6867C128.125 77.5415 128.183 77.4024 128.286 77.2998C128.388 77.1971 128.528 77.1392 128.673 77.1387H129.929C130.232 77.1387 130.477 77.3856 130.477 77.6867V78.9426C130.477 79.0148 130.463 79.0864 130.436 79.1533C130.409 79.2201 130.368 79.2809 130.317 79.3321C130.266 79.3833 130.206 79.4239 130.139 79.4516C130.072 79.4793 130.001 79.4935 129.929 79.4934ZM125.574 79.4934H124.318C124.173 79.4928 124.034 79.4348 123.931 79.3321C123.829 79.2294 123.771 79.0903 123.77 78.9451V77.6867C123.771 77.5415 123.829 77.4024 123.931 77.2998C124.034 77.1971 124.173 77.1392 124.318 77.1387H125.574C125.875 77.1387 126.122 77.3856 126.122 77.6867V78.9426C126.123 79.0148 126.109 79.0864 126.082 79.1533C126.054 79.2201 126.014 79.2809 125.963 79.3321C125.912 79.3833 125.851 79.4239 125.785 79.4516C125.718 79.4793 125.646 79.4935 125.574 79.4934ZM121.22 79.4934H119.964C119.819 79.4933 119.679 79.4356 119.576 79.3329C119.472 79.2301 119.414 79.0907 119.413 78.9451V77.6867C119.413 77.3856 119.661 77.1387 119.964 77.1387H121.22C121.365 77.1392 121.504 77.1971 121.607 77.2998C121.71 77.4024 121.768 77.5415 121.768 77.6867V78.9426C121.768 79.0882 121.71 79.2279 121.608 79.3311C121.505 79.4343 121.366 79.4927 121.22 79.4934ZM125.731 89.342H124.476C124.33 89.3415 124.191 89.2836 124.089 89.1809C123.986 89.0782 123.928 88.9391 123.927 88.794V87.5381C123.927 87.2345 124.174 86.9901 124.476 86.9901H125.731C126.032 86.9901 126.28 87.237 126.28 87.5381V88.794C126.28 88.866 126.266 88.9373 126.238 89.0039C126.211 89.0704 126.17 89.1309 126.119 89.1818C126.068 89.2327 126.008 89.2731 125.941 89.3006C125.875 89.3281 125.803 89.3422 125.731 89.342ZM130.007 89.342H128.751C128.606 89.3415 128.467 89.2836 128.364 89.1809C128.261 89.0782 128.204 88.9391 128.203 88.794V87.5381C128.203 87.2345 128.45 86.9901 128.751 86.9901H130.007C130.308 86.9901 130.555 87.237 130.555 87.5381V88.794C130.555 88.866 130.541 88.9373 130.514 89.0039C130.486 89.0705 130.446 89.131 130.395 89.1819C130.344 89.2328 130.284 89.2732 130.217 89.3007C130.15 89.3281 130.079 89.3422 130.007 89.342ZM121.377 89.342H120.121C119.976 89.3415 119.837 89.2836 119.734 89.1809C119.631 89.0782 119.574 88.9391 119.573 88.794V87.5381C119.573 87.2345 119.82 86.9901 120.121 86.9901H121.377C121.681 86.9901 121.928 87.237 121.928 87.5381V88.794C121.926 88.9393 121.868 89.0782 121.764 89.1807C121.661 89.2832 121.522 89.3411 121.377 89.342Z" fill="#E1E4E5"/>
</g>
<defs>
<linearGradient id="paint0_linear_258_10208" x1="176.047" y1="108.661" x2="142.828" y2="-40.6136" gradientUnits="userSpaceOnUse">
<stop stop-color="white"/>
<stop offset="1" stop-color="#EEEEEE"/>
</linearGradient>
<linearGradient id="paint1_linear_258_10208" x1="199.481" y1="90.4581" x2="257.392" y2="44.6501" gradientUnits="userSpaceOnUse">
<stop stop-color="white"/>
<stop offset="1" stop-color="#EEEEEE"/>
</linearGradient>
<linearGradient id="paint2_linear_258_10208" x1="62.5052" y1="122.748" x2="-11.312" y2="54.1618" gradientUnits="userSpaceOnUse">
<stop stop-color="white"/>
<stop offset="1" stop-color="#EEEEEE"/>
</linearGradient>
<clipPath id="clip0_258_10208">
<rect width="250" height="166.667" fill="white"/>
</clipPath>
</defs>
</svg>
