<svg width="292" height="194" viewBox="0 0 292 194" fill="none" xmlns="http://www.w3.org/2000/svg">
<g clip-path="url(#clip0_258_10719)">
<path d="M104.26 66.1089C108.052 66.1089 111.125 63.0356 111.125 59.2444C111.125 55.4532 108.052 52.3799 104.26 52.3799H81.7308C77.9395 52.3799 74.8661 55.4532 74.8661 59.2444C74.8661 63.0356 77.9395 66.1089 81.7308 66.1089H104.26Z" fill="#E1E4E5"/>
<path d="M104.093 64.6931C107.107 64.6931 109.55 62.2502 109.55 59.2367C109.55 56.2232 107.107 53.7803 104.093 53.7803C101.08 53.7803 98.637 56.2232 98.637 59.2367C98.637 62.2502 101.08 64.6931 104.093 64.6931Z" fill="white"/>
<path d="M160.594 143.385C164.386 143.385 167.459 140.312 167.459 136.521C167.459 132.73 164.386 129.656 160.594 129.656H138.065C134.273 129.656 131.2 132.73 131.2 136.521C131.2 140.312 134.273 143.385 138.065 143.385H160.594Z" fill="#E1E4E5"/>
<path d="M160.426 141.97C163.44 141.97 165.883 139.528 165.883 136.514C165.883 133.501 163.44 131.058 160.426 131.058C157.413 131.058 154.97 133.501 154.97 136.514C154.97 139.528 157.413 141.97 160.426 141.97Z" fill="white"/>
<path d="M98.5263 120.28C98.5263 105.875 86.8488 94.1973 72.4438 94.1973C58.0389 94.1973 46.3613 105.875 46.3613 120.28C46.3613 134.685 58.0389 146.362 72.4438 146.362C86.8488 146.362 98.5263 134.685 98.5263 120.28Z" fill="#A762FE"/>
<path fill-rule="evenodd" clip-rule="evenodd" d="M84.2983 131.222V132.966C84.2983 133.928 83.5272 134.71 82.5772 134.71H61.924C60.9737 134.71 60.2029 133.928 60.2029 132.966V131.194C60.2029 125.916 66.1545 122.488 72.2506 122.488C78.3467 122.488 84.2983 125.918 84.2983 131.194M76.5703 107.166C78.9569 109.552 78.9569 113.422 76.5703 115.808C74.1838 118.195 70.3142 118.195 67.9276 115.808C65.5411 113.422 65.5411 109.552 67.9276 107.166C70.3142 104.779 74.1838 104.779 76.5703 107.166Z" fill="white"/>
<path d="M241.803 128.729C241.803 114.324 230.125 102.646 215.72 102.646C201.315 102.646 189.638 114.324 189.638 128.729C189.638 143.134 201.315 154.811 215.72 154.811C230.125 154.811 241.803 143.134 241.803 128.729Z" fill="#A762FE"/>
<path fill-rule="evenodd" clip-rule="evenodd" d="M227.574 139.671V141.415C227.574 142.378 226.803 143.159 225.853 143.159H205.2C204.25 143.159 203.479 142.378 203.479 141.415V139.643C203.479 134.366 209.43 130.937 215.526 130.937C221.623 130.937 227.574 134.367 227.574 139.643M219.846 115.615C222.233 118.002 222.233 121.871 219.846 124.257C217.459 126.644 213.59 126.644 211.204 124.257C208.817 121.871 208.817 118.002 211.204 115.615C213.59 113.229 217.459 113.229 219.846 115.615Z" fill="white"/>
<path d="M172.298 84.6059C172.298 70.201 160.62 58.5234 146.215 58.5234C131.81 58.5234 120.133 70.201 120.133 84.6059C120.133 99.0109 131.81 110.688 146.215 110.688C160.62 110.688 172.298 99.0109 172.298 84.6059Z" fill="#A762FE"/>
<path fill-rule="evenodd" clip-rule="evenodd" d="M158.07 95.547V97.291C158.07 98.2539 157.299 99.0351 156.349 99.0351H135.696C134.746 99.0351 133.975 98.2539 133.975 97.291V95.5192C133.975 90.2417 139.926 86.8128 146.022 86.8128C152.118 86.8128 158.07 90.2433 158.07 95.5192M150.342 71.4913C152.729 73.8778 152.729 77.7472 150.342 80.1337C147.955 82.5202 144.086 82.5202 141.699 80.1337C139.313 77.7472 139.313 73.8778 141.699 71.4913C144.086 69.1045 147.955 69.1045 150.342 71.4913Z" fill="white"/>
<path d="M84.4703 75.189H84.5179C84.8004 79.25 87.7767 79.3124 87.7767 79.3124C87.7767 79.3124 84.4949 79.3774 84.4949 84.07C84.4949 79.3774 81.2127 79.3124 81.2127 79.3124C81.2127 79.3124 84.1877 79.25 84.4703 75.189ZM182.686 104.055H182.734C183.017 108.116 185.993 108.179 185.993 108.179C185.993 108.179 182.711 108.244 182.711 112.936C182.711 108.244 179.429 108.179 179.429 108.179C179.429 108.179 182.404 108.116 182.686 104.055ZM111.928 113.56H111.976C112.259 117.621 115.235 117.684 115.235 117.684C115.235 117.684 111.953 117.749 111.953 122.441C111.953 117.749 108.671 117.684 108.671 117.684C108.671 117.684 111.646 117.621 111.928 113.56ZM120.805 44.7578H120.852C121.135 48.8186 124.111 48.8813 124.111 48.8813C124.111 48.8813 120.829 48.9463 120.829 53.6385C120.829 48.9463 117.547 48.8813 117.547 48.8813C117.547 48.8813 120.522 48.8186 120.805 44.7578ZM192.881 62.2143H192.904C193.041 64.1743 194.477 64.2044 194.477 64.2044C194.477 64.2044 192.893 64.2357 192.893 66.5007C192.893 64.2357 191.309 64.2044 191.309 64.2044C191.309 64.2044 192.745 64.1743 192.881 62.2143ZM41.2455 99.8309H41.2688C41.4049 101.791 42.8415 101.821 42.8415 101.821C42.8415 101.821 41.2575 101.853 41.2575 104.118C41.2575 101.853 39.6735 101.821 39.6735 101.821C39.6735 101.821 41.1094 101.791 41.2455 99.8309ZM38.0775 139.258H38.1005C38.2369 141.218 39.6735 141.249 39.6735 141.249C39.6735 141.249 38.0891 141.28 38.0891 143.545C38.0891 141.28 36.5051 141.249 36.5051 141.249C36.5051 141.249 37.941 141.218 38.0775 139.258ZM250.703 116.024H250.726C250.862 117.984 252.299 118.014 252.299 118.014C252.299 118.014 250.714 118.046 250.714 120.311C250.714 118.046 249.13 118.014 249.13 118.014C249.13 118.014 250.566 117.984 250.703 116.024Z" fill="#E1E4E5"/>
<path fill-rule="evenodd" clip-rule="evenodd" d="M238.373 96.1062H239.536C239.817 96.1062 240.043 96.3351 240.043 96.6138V97.7772C240.043 98.0582 239.815 98.2848 239.536 98.2848H238.373C238.094 98.2848 237.865 98.0559 237.865 97.7772V96.6138C237.863 96.3351 238.092 96.1062 238.373 96.1062ZM242.405 96.1062H243.568C243.848 96.1062 244.076 96.3351 244.076 96.6138V97.7772C244.076 98.0582 243.848 98.2848 243.568 98.2848H242.405C242.127 98.2848 241.898 98.0559 241.898 97.7772V96.6138C241.898 96.3351 242.127 96.1062 242.405 96.1062ZM246.441 96.1062H247.604C247.883 96.1062 248.112 96.3351 248.112 96.6138V97.7772C248.112 98.0582 247.883 98.2848 247.604 98.2848H246.441C246.306 98.2843 246.178 98.2307 246.082 98.1356C245.987 98.0405 245.934 97.9117 245.933 97.7772V96.6138C245.933 96.5471 245.946 96.4811 245.971 96.4194C245.997 96.3578 246.034 96.3018 246.082 96.2546C246.129 96.2074 246.185 96.1701 246.247 96.1446C246.308 96.1191 246.374 96.1061 246.441 96.1062ZM250.474 96.1062H251.637C251.916 96.1062 252.144 96.3351 252.144 96.6138V97.7772C252.144 98.0582 251.916 98.2848 251.637 98.2848H250.474C250.192 98.2848 249.963 98.0559 249.963 97.7772V96.6138C249.965 96.4792 250.019 96.3506 250.115 96.2557C250.21 96.1607 250.339 96.1071 250.474 96.1062ZM254.507 96.1062H255.67C255.951 96.1062 256.18 96.3351 256.18 96.6138V97.7772C256.18 98.0582 255.951 98.2848 255.67 98.2848H254.507C254.227 98.2848 253.999 98.0559 253.999 97.7772V96.6138C253.999 96.3351 254.227 96.1062 254.507 96.1062ZM242.553 100.504H243.717C243.995 100.504 244.224 100.732 244.224 101.012V102.177C244.224 102.456 243.995 102.685 243.717 102.685H242.553C242.272 102.685 242.046 102.456 242.046 102.177V101.014C242.045 100.947 242.058 100.881 242.083 100.819C242.109 100.757 242.146 100.701 242.193 100.653C242.24 100.606 242.297 100.568 242.358 100.543C242.42 100.517 242.486 100.504 242.553 100.504ZM246.586 100.504H247.749C248.028 100.504 248.257 100.732 248.257 101.012V102.177C248.257 102.456 248.028 102.685 247.749 102.685H246.586C246.307 102.685 246.079 102.456 246.079 102.177V101.014C246.076 100.732 246.305 100.504 246.586 100.504ZM250.619 100.504H251.782C252.063 100.504 252.292 100.732 252.292 101.012V102.177C252.292 102.456 252.063 102.685 251.782 102.685H250.619C250.34 102.685 250.111 102.456 250.111 102.177V101.014C250.111 100.732 250.34 100.504 250.619 100.504ZM246.441 91.382H247.604C247.883 91.382 248.112 91.6109 248.112 91.89V93.053C248.112 93.3343 247.883 93.5606 247.604 93.5606H246.441C246.306 93.5601 246.178 93.5065 246.082 93.4114C245.987 93.3163 245.934 93.1875 245.933 93.053V91.89C245.933 91.8232 245.946 91.7571 245.971 91.6954C245.997 91.6337 246.034 91.5777 246.081 91.5305C246.129 91.4833 246.185 91.4459 246.246 91.4204C246.308 91.3949 246.374 91.3819 246.441 91.382ZM250.474 91.382H251.637C251.916 91.382 252.144 91.6109 252.144 91.89V93.053C252.144 93.3343 251.916 93.5606 251.637 93.5606H250.474C250.192 93.5606 249.963 93.3317 249.963 93.053V91.89C249.965 91.7553 250.019 91.6266 250.115 91.5316C250.21 91.4365 250.339 91.3828 250.474 91.382ZM103.546 142.222H104.709C104.99 142.222 105.217 142.451 105.217 142.73V143.893C105.217 144.174 104.988 144.401 104.709 144.401H103.546C103.267 144.401 103.038 144.172 103.038 143.893V142.73C103.038 142.663 103.051 142.597 103.077 142.535C103.102 142.474 103.139 142.418 103.187 142.37C103.234 142.323 103.29 142.286 103.351 142.26C103.413 142.235 103.479 142.222 103.546 142.222ZM107.579 142.222H108.742C109.02 142.222 109.249 142.451 109.249 142.73V143.893C109.249 144.174 109.02 144.401 108.742 144.401H107.579C107.3 144.401 107.071 144.172 107.071 143.893V142.73C107.071 142.451 107.3 142.222 107.579 142.222ZM111.614 142.222H112.777C113.056 142.222 113.285 142.451 113.285 142.73V143.893C113.285 144.174 113.056 144.401 112.777 144.401H111.614C111.335 144.401 111.106 144.172 111.106 143.893V142.73C111.104 142.451 111.333 142.222 111.614 142.222ZM115.646 142.222H116.81C117.089 142.222 117.317 142.451 117.317 142.73V143.893C117.317 144.174 117.089 144.401 116.81 144.401H115.646C115.365 144.401 115.137 144.172 115.137 143.893V142.73C115.138 142.595 115.192 142.466 115.288 142.371C115.383 142.276 115.512 142.223 115.646 142.222ZM119.679 142.222H120.843C121.124 142.222 121.353 142.451 121.353 142.73V143.893C121.353 144.174 121.124 144.401 120.843 144.401H119.679C119.401 144.401 119.172 144.172 119.172 143.893V142.73C119.172 142.451 119.401 142.222 119.679 142.222ZM107.726 146.62H108.889C109.168 146.62 109.397 146.848 109.397 147.127V148.293C109.397 148.572 109.168 148.8 108.889 148.8H107.726C107.445 148.8 107.219 148.572 107.219 148.293V147.13C107.216 146.848 107.445 146.62 107.726 146.62ZM111.759 146.62H112.922C113.201 146.62 113.43 146.848 113.43 147.127V148.293C113.43 148.572 113.201 148.8 112.922 148.8H111.759C111.48 148.8 111.251 148.572 111.251 148.293V147.13C111.249 146.848 111.478 146.62 111.759 146.62ZM115.792 146.62H116.955C117.236 146.62 117.465 146.848 117.465 147.127V148.293C117.465 148.572 117.236 148.8 116.955 148.8H115.792C115.513 148.8 115.284 148.572 115.284 148.293V147.13C115.284 146.848 115.513 146.62 115.792 146.62ZM111.614 137.498H112.777C113.056 137.498 113.285 137.727 113.285 138.006V139.169C113.285 139.45 113.056 139.676 112.777 139.676H111.614C111.335 139.676 111.106 139.447 111.106 139.169V138.006C111.106 137.939 111.119 137.873 111.145 137.811C111.17 137.749 111.207 137.693 111.255 137.646C111.302 137.599 111.358 137.562 111.419 137.536C111.481 137.511 111.547 137.498 111.614 137.498ZM115.646 137.498H116.81C117.089 137.498 117.317 137.727 117.317 138.006V139.169C117.317 139.45 117.089 139.676 116.81 139.676H115.646C115.365 139.676 115.137 139.447 115.137 139.169V138.006C115.138 137.871 115.192 137.742 115.288 137.647C115.383 137.552 115.512 137.499 115.646 137.498ZM175.623 45.4645H176.786C177.068 45.4645 177.294 45.6931 177.294 45.9721V47.1351C177.294 47.4164 177.065 47.6428 176.786 47.6428H175.623C175.344 47.6428 175.116 47.4142 175.116 47.1351V45.9721C175.113 45.6931 175.342 45.4645 175.623 45.4645ZM179.656 45.4645H180.819C181.098 45.4645 181.326 45.6931 181.326 45.9721V47.1351C181.326 47.4164 181.098 47.6428 180.819 47.6428H179.656C179.521 47.6423 179.392 47.5887 179.297 47.4936C179.202 47.3985 179.148 47.2697 179.148 47.1351V45.9721C179.148 45.6931 179.377 45.4645 179.656 45.4645ZM183.691 45.4645H184.854C185.133 45.4645 185.362 45.6931 185.362 45.9721V47.1351C185.362 47.4164 185.133 47.6428 184.854 47.6428H183.691C183.412 47.6428 183.183 47.4142 183.183 47.1351V45.9721C183.181 45.6931 183.41 45.4645 183.691 45.4645ZM187.724 45.4645H188.887C189.166 45.4645 189.395 45.6931 189.395 45.9721V47.1351C189.395 47.4164 189.166 47.6428 188.887 47.6428H187.724C187.442 47.6428 187.214 47.4142 187.214 47.1351V45.9721C187.215 45.8375 187.269 45.7089 187.365 45.6139C187.46 45.519 187.589 45.4653 187.724 45.4645ZM191.757 45.4645H192.92C193.201 45.4645 193.43 45.6931 193.43 45.9721V47.1351C193.43 47.4164 193.201 47.6428 192.92 47.6428H191.757C191.478 47.6428 191.249 47.4142 191.249 47.1351V45.9721C191.249 45.6931 191.478 45.4645 191.757 45.4645ZM179.804 49.8618H180.967C181.246 49.8618 181.475 50.0907 181.475 50.3694V51.535C181.475 51.8138 181.246 52.0427 180.967 52.0427H179.804C179.522 52.0427 179.296 51.8138 179.296 51.535V50.372C179.294 50.0907 179.522 49.8618 179.804 49.8618ZM183.836 49.8618H185C185.278 49.8618 185.507 50.0907 185.507 50.3694V51.535C185.507 51.8138 185.278 52.0427 185 52.0427H183.836C183.557 52.0427 183.329 51.8138 183.329 51.535V50.372C183.326 50.0907 183.555 49.8618 183.836 49.8618ZM187.869 49.8618H189.032C189.314 49.8618 189.542 50.0907 189.542 50.3694V51.535C189.542 51.8138 189.314 52.0427 189.032 52.0427H187.869C187.59 52.0427 187.361 51.8138 187.361 51.535V50.372C187.361 50.0907 187.59 49.8618 187.869 49.8618ZM183.691 40.7402H184.854C185.133 40.7402 185.362 40.9692 185.362 41.2479V42.4109C185.362 42.6922 185.133 42.9189 184.854 42.9189H183.691C183.412 42.9189 183.183 42.6899 183.183 42.4109V41.2479C183.181 40.9692 183.41 40.7402 183.691 40.7402ZM187.724 40.7402H188.887C189.166 40.7402 189.395 40.9692 189.395 41.2479V42.4109C189.395 42.6922 189.166 42.9189 188.887 42.9189H187.724C187.442 42.9189 187.214 42.6899 187.214 42.4109V41.2479C187.215 41.1133 187.269 40.9847 187.365 40.8897C187.46 40.7948 187.589 40.7411 187.724 40.7402Z" fill="#E1E4E5"/>
<path d="M35.0967 79.8914C39.8131 74.3821 48.0986 65.3921 43.5095 73.5059C37.7736 83.6479 48.2897 76.8863 51.9226 73.5059C55.5553 70.1251 64.1595 67.6836 58.0411 76.5109C51.9226 85.3379 69.5133 80.0792 72.7637 73.5059" stroke="#E1E4E5" stroke-width="1.40812"/>
<path fill-rule="evenodd" clip-rule="evenodd" d="M202.662 61.1831C202.662 50.6424 211.207 42.0977 221.748 42.0977H238.141C248.682 42.0977 257.227 50.6424 257.227 61.1831C257.227 71.7237 248.682 80.2688 238.141 80.2688H232.657L224.06 87.1771C223.424 87.6886 222.478 87.2356 222.478 86.4189V80.2688H221.748C211.207 80.2688 202.662 71.7237 202.662 61.1831Z" fill="#A762FE"/>
<path d="M230.115 54.2578H241.945C242.573 54.2578 243.082 54.7671 243.082 55.3953C243.082 56.0235 242.573 56.5328 241.945 56.5328H230.115C229.487 56.5328 228.977 56.0235 228.977 55.3953C228.977 54.7671 229.487 54.2578 230.115 54.2578Z" fill="white"/>
<path d="M222.608 60.1729H241.946C242.574 60.1729 243.083 60.6821 243.083 61.3103C243.083 61.9386 242.574 62.4478 241.946 62.4478H222.608C221.98 62.4478 221.471 61.9386 221.471 61.3103C221.471 60.6821 221.98 60.1729 222.608 60.1729Z" fill="white"/>
<path d="M214.646 66.0879H241.946C242.574 66.0879 243.083 66.5972 243.083 67.2254C243.083 67.8536 242.574 68.3629 241.946 68.3629H214.646C214.018 68.3629 213.508 67.8536 213.508 67.2254C213.508 66.5972 214.018 66.0879 214.646 66.0879Z" fill="white"/>
<path d="M212.071 35.4648C210.224 35.4648 208.727 33.9676 208.727 32.1206C208.727 30.2736 210.224 28.7764 212.071 28.7764C213.918 28.7764 215.415 30.2736 215.415 32.1206C215.415 33.9676 213.918 35.4648 212.071 35.4648Z" fill="#E1E4E5"/>
<path d="M159.257 47.8533C158.542 47.8533 157.963 47.2742 157.963 46.5599C157.963 45.8456 158.542 45.2666 159.257 45.2666C159.971 45.2666 160.55 45.8456 160.55 46.5599C160.55 47.2742 159.971 47.8533 159.257 47.8533Z" fill="#E1E4E5"/>
<path d="M50.762 97.3662C48.915 97.3662 47.4177 95.8689 47.4177 94.022C47.4177 92.175 48.915 90.6777 50.762 90.6777C52.6089 90.6777 54.1062 92.175 54.1062 94.022C54.1062 95.8689 52.6089 97.3662 50.762 97.3662Z" fill="#E1E4E5"/>
<path d="M179.252 143.482C177.405 143.482 175.908 141.985 175.908 140.138C175.908 138.291 177.405 136.794 179.252 136.794C181.099 136.794 182.597 138.291 182.597 140.138C182.597 141.985 181.099 143.482 179.252 143.482Z" fill="#E1E4E5"/>
<path d="M201.959 94.5497C200.987 94.5497 200.199 93.7617 200.199 92.7895C200.199 91.8174 200.987 91.0293 201.959 91.0293C202.931 91.0293 203.719 91.8174 203.719 92.7895C203.719 93.7617 202.931 94.5497 201.959 94.5497Z" fill="#E1E4E5"/>
<path d="M64.3152 158.62C63.3431 158.62 62.555 157.832 62.555 156.86C62.555 155.888 63.3431 155.1 64.3152 155.1C65.2874 155.1 66.0754 155.888 66.0754 156.86C66.0754 157.832 65.2874 158.62 64.3152 158.62Z" fill="#E1E4E5"/>
<path d="M157.951 50.3809C159.432 49.8491 161.043 49.816 162.54 50.2812L162.838 50.3809L167.524 52.0645C168.679 52.4796 169.449 53.5727 169.448 54.7969V62.3076C169.448 64.179 168.132 65.835 166.458 67.1787C164.999 68.3501 163.299 69.261 162.057 69.8457L161.555 70.0762C161.189 70.2408 160.792 70.3262 160.392 70.3262C160.041 70.3262 159.693 70.2604 159.367 70.1338L159.229 70.0762L158.727 69.8457C157.485 69.2613 155.784 68.3514 154.325 67.1807C152.652 65.8377 151.335 64.1821 151.335 62.3076V54.7969L151.344 54.5693C151.427 53.5152 152.08 52.5875 153.047 52.1523L153.259 52.0674L157.951 50.3809Z" fill="#A762FE" stroke="white" stroke-width="0.323333"/>
<path d="M163.772 58.1064L159.904 61.8539L157.584 59.6055" stroke="white" stroke-width="1.86708" stroke-linecap="round" stroke-linejoin="round"/>
</g>
<defs>
<clipPath id="clip0_258_10719">
<rect width="291" height="194" fill="white" transform="translate(0.5)"/>
</clipPath>
</defs>
</svg>
