<svg width="420" height="280" viewBox="0 0 420 280" fill="none" xmlns="http://www.w3.org/2000/svg">
<g clip-path="url(#clip0_258_10857)">
<path d="M301.752 201.405C297.318 226.606 236.901 265.902 181.283 233.232C155.415 218.038 161.139 204.127 144.359 180.14C134.357 165.843 118.189 153.032 116.975 135.348C115.923 120.083 122.159 105.387 132.041 97.1825C154.265 78.731 192.184 71.3726 217.827 114.543C243.47 157.713 313.18 136.408 301.752 201.405Z" fill="url(#paint0_linear_258_10857)"/>
<path d="M326.117 110.927C320.355 121.212 307.734 122.625 287.514 120.67C272.307 119.197 258.44 118.058 243.232 109.767C232.588 103.967 224.162 96.1207 218.012 88.5001C211.348 80.2443 202.047 70.8227 206.606 61.4619C212.873 48.6033 249.111 37.7739 284.299 55.4839C322.954 74.9439 331.755 100.875 326.117 110.927Z" fill="url(#paint1_linear_258_10857)"/>
<path d="M365.072 132.43C354.215 137.815 339.807 130.89 339.807 130.89C339.807 130.89 343.009 115.238 353.871 109.86C364.727 104.474 379.13 111.391 379.13 111.391C379.13 111.391 375.928 127.044 365.072 132.43Z" fill="url(#paint2_linear_258_10857)"/>
<path d="M56.0398 171.051C67.6146 177.988 84.2204 171.575 84.2204 171.575C84.2204 171.575 82.049 153.917 70.4673 146.988C58.8926 140.051 42.2937 146.456 42.2937 146.456C42.2937 146.456 44.4651 164.114 56.0398 171.051Z" fill="url(#paint3_linear_258_10857)"/>
<path d="M343.711 90.4143C340.437 90.4143 337.783 93.0682 337.783 96.3419C337.783 99.6156 340.437 102.27 343.711 102.27C346.985 102.27 349.639 99.6156 349.639 96.3419C349.639 93.0682 346.985 90.4143 343.711 90.4143Z" fill="#A762FE"/>
<path d="M162.479 109.153C159.784 109.153 157.6 111.338 157.6 114.033C157.6 116.728 159.784 118.913 162.479 118.913C165.175 118.913 167.359 116.728 167.359 114.033C167.359 111.338 165.175 109.153 162.479 109.153Z" fill="#A762FE"/>
<path d="M98.9991 161.761C95.9298 161.761 93.4416 159.272 93.4416 156.203C93.4416 153.134 95.9298 150.646 98.9991 150.646C102.068 150.646 104.557 153.134 104.557 156.203C104.557 159.272 102.068 161.761 98.9991 161.761Z" fill="#A762FE"/>
<path d="M331.857 129.7C330.425 129.7 329.264 128.539 329.264 127.107C329.264 125.675 330.425 124.514 331.857 124.514C333.289 124.514 334.45 125.675 334.45 127.107C334.45 128.539 333.289 129.7 331.857 129.7Z" fill="#A762FE"/>
<path d="M330.36 227.956C328.519 227.956 327.026 226.463 327.026 224.621C327.026 222.78 328.519 221.287 330.36 221.287C332.202 221.287 333.694 222.78 333.694 224.621C333.694 226.463 332.202 227.956 330.36 227.956Z" fill="#E1E4E5"/>
<path d="M72.4376 209.362C71.0683 209.362 69.9582 208.252 69.9582 206.883C69.9582 205.513 71.0683 204.403 72.4376 204.403C73.8069 204.403 74.917 205.513 74.917 206.883C74.917 208.252 73.8069 209.362 72.4376 209.362Z" fill="#E1E4E5"/>
<path d="M347.339 195.322C345.315 195.322 343.674 193.68 343.674 191.656C343.674 189.631 345.315 187.99 347.339 187.99C349.364 187.99 351.005 189.631 351.005 191.656C351.005 193.68 349.364 195.322 347.339 195.322Z" fill="#E1E4E5"/>
<path d="M308.44 82.4115C306.189 82.4115 304.365 80.5869 304.365 78.3361C304.365 76.0854 306.189 74.2607 308.44 74.2607C310.691 74.2607 312.516 76.0854 312.516 78.3361C312.516 80.5869 310.691 82.4115 308.44 82.4115Z" fill="#E1E4E5"/>
<path d="M89.3453 123.638C89.8685 125.59 88.7099 127.597 86.7576 128.12C84.8053 128.643 82.7987 127.484 82.2755 125.532C81.7524 123.58 82.911 121.573 84.8633 121.05C86.8155 120.527 88.8222 121.685 89.3453 123.638Z" fill="#E1E4E5"/>
<path d="M182.352 52.0015C180.492 52.0015 178.984 50.4939 178.984 48.6341C178.984 46.7743 180.492 45.2666 182.352 45.2666C184.211 45.2666 185.719 46.7743 185.719 48.6341C185.719 50.4939 184.211 52.0015 182.352 52.0015Z" fill="#E1E4E5"/>
<path d="M333.998 174.346C331.93 174.346 330.253 173.005 330.253 171.35C330.253 169.696 331.93 168.354 333.998 168.354C336.066 168.354 337.743 169.696 337.743 171.35C337.743 173.005 336.066 174.346 333.998 174.346Z" fill="#E1E4E5"/>
<path d="M270.718 44.7093C271.807 48.7724 269.396 52.9488 265.333 54.0375C261.27 55.1262 257.093 52.715 256.004 48.6519C254.916 44.5887 257.327 40.4123 261.39 39.3236C265.453 38.2349 269.63 40.6462 270.718 44.7093Z" fill="#E1E4E5"/>
<path d="M102.481 99.3594H102.535C102.851 103.835 106.179 103.904 106.179 103.904C106.179 103.904 102.509 103.976 102.509 109.148C102.509 103.976 98.8378 103.904 98.8378 103.904C98.8378 103.904 102.165 103.835 102.481 99.3594ZM96.9044 216.527H96.9557C97.2591 220.989 100.455 221.059 100.455 221.059C100.455 221.059 96.9305 221.13 96.9305 226.287C96.9305 221.13 93.4062 221.059 93.4062 221.059C93.4062 221.059 96.6011 220.989 96.9044 216.527Z" fill="#E1E4E5"/>
<path fill-rule="evenodd" clip-rule="evenodd" d="M125.389 105.13L107.661 87.4815C105.306 85.139 102.119 83.8241 98.7974 83.8242H53.8382C46.9115 83.8242 41.3008 89.4097 41.3008 96.3061V183.678C41.3008 190.574 46.9115 196.159 53.8382 196.159H116.526C123.452 196.159 129.063 190.574 129.063 183.678V113.955C129.061 112.315 128.736 110.691 128.106 109.176C127.476 107.662 126.553 106.287 125.389 105.13Z" fill="white" stroke="#E1E4E5" stroke-width="2.27876"/>
<path d="M63.0098 174.97H106.641M63.0098 162.7H106.641" stroke="#E1E4E5" stroke-width="4.91111" stroke-linecap="round" stroke-linejoin="round"/>
<path fill-rule="evenodd" clip-rule="evenodd" d="M104.539 145.583V148.403C104.539 149.959 103.286 151.222 101.741 151.222H68.1673C66.6226 151.222 65.3691 149.959 65.3691 148.403V145.538C65.3691 137.007 75.0441 131.464 84.9542 131.464C94.8643 131.464 104.539 137.009 104.539 145.538M91.6439 110.837C95.4341 114.762 95.4341 121.127 91.6439 125.053C87.8536 128.979 81.7081 128.979 77.9178 125.053C74.1275 121.127 74.1275 114.762 77.9178 110.837C81.7081 106.911 87.8536 106.911 91.6439 110.837Z" fill="#A762FE"/>
<path fill-rule="evenodd" clip-rule="evenodd" d="M267.329 90.4963L242.159 65.4377C238.815 62.112 234.29 60.2452 229.574 60.2451H165.74C155.905 60.2451 147.939 68.1757 147.939 77.9668V202.018C147.939 211.809 155.905 219.74 165.74 219.74H254.744C264.579 219.74 272.545 211.809 272.545 202.018V103.025C272.543 100.696 272.081 98.3908 271.186 96.2407C270.291 94.0906 268.981 92.1385 267.329 90.4963Z" fill="white" stroke="#E1E4E5" stroke-width="2.27876"/>
<path d="M178.762 172.232H240.709" stroke="#E1E4E5" stroke-width="4.91111" stroke-linecap="round" stroke-linejoin="round"/>
<path fill-rule="evenodd" clip-rule="evenodd" d="M237.726 147.931V151.934C237.726 154.143 235.946 155.936 233.754 155.936H186.085C183.892 155.936 182.112 154.143 182.112 151.934V147.867C182.112 135.753 195.849 127.884 209.919 127.884C223.989 127.884 237.726 135.758 237.726 147.867M219.417 98.5974C224.799 104.171 224.799 113.208 219.417 118.782C214.036 124.356 205.31 124.356 199.929 118.782C194.547 113.208 194.547 104.171 199.929 98.5974C205.31 93.0235 214.036 93.0235 219.417 98.5974Z" fill="#A762FE"/>
<path fill-rule="evenodd" clip-rule="evenodd" d="M375.51 105.13L357.782 87.4815C355.427 85.1391 352.24 83.8242 348.918 83.8242H303.959C297.032 83.8242 291.422 89.4097 291.422 96.3061V183.678C291.422 190.574 297.032 196.159 303.959 196.159H366.646C373.573 196.159 379.184 190.574 379.184 183.678V113.955C379.183 112.315 378.857 110.691 378.227 109.176C377.597 107.662 376.673 106.287 375.51 105.13Z" fill="white" stroke="#E1E4E5" stroke-width="2.27876"/>
<path d="M313.131 174.97H356.762M313.131 162.7H356.762" stroke="#E1E4E5" stroke-width="4.91111" stroke-linecap="round" stroke-linejoin="round"/>
<path fill-rule="evenodd" clip-rule="evenodd" d="M354.66 145.583V148.403C354.66 149.959 353.406 151.222 351.862 151.222H318.288C316.744 151.222 315.49 149.959 315.49 148.403V145.538C315.49 137.007 325.165 131.464 335.075 131.464C344.985 131.464 354.66 137.009 354.66 145.538M341.765 110.837C345.555 114.762 345.555 121.127 341.765 125.053C337.974 128.979 331.829 128.979 328.039 125.053C324.248 121.127 324.248 114.762 328.039 110.837C331.829 106.911 337.974 106.911 341.765 110.837Z" fill="#A762FE"/>
<path d="M277.356 204.47L254.014 181.127" stroke="#A762FE" stroke-width="13.8425" stroke-linecap="round" stroke-linejoin="round"/>
<path d="M209.898 194.828C247.074 194.828 277.212 164.69 277.212 127.514C277.212 90.3376 247.074 60.2002 209.898 60.2002C172.721 60.2002 142.584 90.3376 142.584 127.514C142.584 164.69 172.721 194.828 209.898 194.828Z" stroke="#A762FE" stroke-width="12.6972" stroke-linecap="round" stroke-linejoin="round"/>
</g>
<defs>
<linearGradient id="paint0_linear_258_10857" x1="208.926" y1="337.065" x2="213.351" y2="-94.7108" gradientUnits="userSpaceOnUse">
<stop stop-color="white"/>
<stop offset="1" stop-color="#EEEEEE"/>
</linearGradient>
<linearGradient id="paint1_linear_258_10857" x1="287.295" y1="177.582" x2="235.931" y2="-53.2289" gradientUnits="userSpaceOnUse">
<stop stop-color="white"/>
<stop offset="1" stop-color="#EEEEEE"/>
</linearGradient>
<linearGradient id="paint2_linear_258_10857" x1="323.382" y1="149.228" x2="412.926" y2="78.3984" gradientUnits="userSpaceOnUse">
<stop stop-color="white"/>
<stop offset="1" stop-color="#EEEEEE"/>
</linearGradient>
<linearGradient id="paint3_linear_258_10857" x1="100.83" y1="193.381" x2="7.6969" y2="106.847" gradientUnits="userSpaceOnUse">
<stop stop-color="white"/>
<stop offset="1" stop-color="#EEEEEE"/>
</linearGradient>
<clipPath id="clip0_258_10857">
<rect width="420" height="280" fill="white"/>
</clipPath>
</defs>
</svg>
