<svg width="1280" height="440" viewBox="0 0 1280 440" fill="none" xmlns="http://www.w3.org/2000/svg">
<g opacity="0.7" clip-path="url(#clip0_258_10073)">
<path d="M50 15L-37 102" stroke="url(#paint0_linear_258_10073)" stroke-linecap="round"/>
<path d="M50 228.5L-37 315.5" stroke="url(#paint1_linear_258_10073)" stroke-linecap="round"/>
<path d="M-37 124.5L50 211.5" stroke="url(#paint2_linear_258_10073)" stroke-linecap="round"/>
<path d="M-37 338L50 425" stroke="url(#paint3_linear_258_10073)" stroke-linecap="round"/>
<path d="M136.5 124.5L49.5 211.5" stroke="url(#paint4_linear_258_10073)" stroke-linecap="round"/>
<path d="M136.5 338L49.5 425" stroke="url(#paint5_linear_258_10073)" stroke-linecap="round"/>
<path d="M742.5 15L655.5 102" stroke="url(#paint6_linear_258_10073)" stroke-linecap="round"/>
<path d="M742.5 228.5L655.5 315.5" stroke="url(#paint7_linear_258_10073)" stroke-linecap="round"/>
<path d="M829 124.5L742 211.5" stroke="url(#paint8_linear_258_10073)" stroke-linecap="round"/>
<path d="M829 338L742 425" stroke="url(#paint9_linear_258_10073)" stroke-linecap="round"/>
<path d="M396.5 15L309.5 102" stroke="url(#paint10_linear_258_10073)" stroke-linecap="round"/>
<path d="M396.5 228.5L309.5 315.5" stroke="url(#paint11_linear_258_10073)" stroke-linecap="round"/>
<path d="M483 124.5L396 211.5" stroke="url(#paint12_linear_258_10073)" stroke-linecap="round"/>
<path d="M483 338L396 425" stroke="url(#paint13_linear_258_10073)" stroke-linecap="round"/>
<path d="M1089 15L1002 102" stroke="url(#paint14_linear_258_10073)" stroke-linecap="round"/>
<path d="M1089 228.5L1002 315.5" stroke="url(#paint15_linear_258_10073)" stroke-linecap="round"/>
<path d="M1175.5 124.5L1088.5 211.5" stroke="url(#paint16_linear_258_10073)" stroke-linecap="round"/>
<path d="M1175.5 338L1088.5 425" stroke="url(#paint17_linear_258_10073)" stroke-linecap="round"/>
<path d="M223.5 15L136.5 102" stroke="url(#paint18_linear_258_10073)" stroke-linecap="round"/>
<path d="M223.5 228.5L136.5 315.5" stroke="url(#paint19_linear_258_10073)" stroke-linecap="round"/>
<path d="M310 124.5L223 211.5" stroke="url(#paint20_linear_258_10073)" stroke-linecap="round"/>
<path d="M310 338L223 425" stroke="url(#paint21_linear_258_10073)" stroke-linecap="round"/>
<path d="M916 15L829 102" stroke="url(#paint22_linear_258_10073)" stroke-linecap="round"/>
<path d="M916 228.5L829 315.5" stroke="url(#paint23_linear_258_10073)" stroke-linecap="round"/>
<path d="M1002.5 124.5L915.5 211.5" stroke="url(#paint24_linear_258_10073)" stroke-linecap="round"/>
<path d="M1002.5 338L915.5 425" stroke="url(#paint25_linear_258_10073)" stroke-linecap="round"/>
<path d="M570 15L483 102" stroke="url(#paint26_linear_258_10073)" stroke-linecap="round"/>
<path d="M570 228.5L483 315.5" stroke="url(#paint27_linear_258_10073)" stroke-linecap="round"/>
<path d="M656.5 124.5L569.5 211.5" stroke="url(#paint28_linear_258_10073)" stroke-linecap="round"/>
<path d="M656.5 338L569.5 425" stroke="url(#paint29_linear_258_10073)" stroke-linecap="round"/>
<path d="M1262.5 15L1175.5 102" stroke="url(#paint30_linear_258_10073)" stroke-linecap="round"/>
<path d="M1262.5 228.5L1175.5 315.5" stroke="url(#paint31_linear_258_10073)" stroke-linecap="round"/>
<path d="M1349 124.5L1262 211.5" stroke="url(#paint32_linear_258_10073)" stroke-linecap="round"/>
<path d="M1349 338L1262 425" stroke="url(#paint33_linear_258_10073)" stroke-linecap="round"/>
<path d="M49.5 15L136.5 102" stroke="url(#paint34_linear_258_10073)" stroke-linecap="round"/>
<path d="M49.5 228.5L136.5 315.5" stroke="url(#paint35_linear_258_10073)" stroke-linecap="round"/>
<path d="M136 124.5L223 211.5" stroke="url(#paint36_linear_258_10073)" stroke-linecap="round"/>
<path d="M136 338L223 425" stroke="url(#paint37_linear_258_10073)" stroke-linecap="round"/>
<path d="M742 15L829 102" stroke="url(#paint38_linear_258_10073)" stroke-linecap="round"/>
<path d="M742 228.5L829 315.5" stroke="url(#paint39_linear_258_10073)" stroke-linecap="round"/>
<path d="M828.5 124.5L915.5 211.5" stroke="url(#paint40_linear_258_10073)" stroke-linecap="round"/>
<path d="M828.5 338L915.5 425" stroke="url(#paint41_linear_258_10073)" stroke-linecap="round"/>
<path d="M396 15L483 102" stroke="url(#paint42_linear_258_10073)" stroke-linecap="round"/>
<path d="M396 228.5L483 315.5" stroke="url(#paint43_linear_258_10073)" stroke-linecap="round"/>
<path d="M482.5 124.5L569.5 211.5" stroke="url(#paint44_linear_258_10073)" stroke-linecap="round"/>
<path d="M482.5 338L569.5 425" stroke="url(#paint45_linear_258_10073)" stroke-linecap="round"/>
<path d="M1088.5 15L1175.5 102" stroke="url(#paint46_linear_258_10073)" stroke-linecap="round"/>
<path d="M1088.5 228.5L1175.5 315.5" stroke="url(#paint47_linear_258_10073)" stroke-linecap="round"/>
<path d="M1175 124.5L1262 211.5" stroke="url(#paint48_linear_258_10073)" stroke-linecap="round"/>
<path d="M1175 338L1262 425" stroke="url(#paint49_linear_258_10073)" stroke-linecap="round"/>
<path d="M223 15L310 102" stroke="url(#paint50_linear_258_10073)" stroke-linecap="round"/>
<path d="M223 228.5L310 315.5" stroke="url(#paint51_linear_258_10073)" stroke-linecap="round"/>
<path d="M309.5 124.5L396.5 211.5" stroke="url(#paint52_linear_258_10073)" stroke-linecap="round"/>
<path d="M309.5 338L396.5 425" stroke="url(#paint53_linear_258_10073)" stroke-linecap="round"/>
<path d="M915.5 15L1002.5 102" stroke="url(#paint54_linear_258_10073)" stroke-linecap="round"/>
<path d="M915.5 228.5L1002.5 315.5" stroke="url(#paint55_linear_258_10073)" stroke-linecap="round"/>
<path d="M1002 124.5L1089 211.5" stroke="url(#paint56_linear_258_10073)" stroke-linecap="round"/>
<path d="M1002 338L1089 425" stroke="url(#paint57_linear_258_10073)" stroke-linecap="round"/>
<path d="M569.5 15L656.5 102" stroke="url(#paint58_linear_258_10073)" stroke-linecap="round"/>
<path d="M569.5 228.5L656.5 315.5" stroke="url(#paint59_linear_258_10073)" stroke-linecap="round"/>
<path d="M656 124.5L743 211.5" stroke="url(#paint60_linear_258_10073)" stroke-linecap="round"/>
<path d="M656 338L743 425" stroke="url(#paint61_linear_258_10073)" stroke-linecap="round"/>
<path d="M1262 15L1349 102" stroke="url(#paint62_linear_258_10073)" stroke-linecap="round"/>
<path d="M1262 228.5L1349 315.5" stroke="url(#paint63_linear_258_10073)" stroke-linecap="round"/>
<path d="M-37 15L50 102" stroke="url(#paint64_linear_258_10073)" stroke-linecap="round"/>
<path d="M-37 228.5L50 315.5" stroke="url(#paint65_linear_258_10073)" stroke-linecap="round"/>
<path d="M50 124.5L-37 211.5" stroke="url(#paint66_linear_258_10073)" stroke-linecap="round"/>
<path d="M50 338L-37 425" stroke="url(#paint67_linear_258_10073)" stroke-linecap="round"/>
<path d="M49.5 124.5L136.5 211.5" stroke="url(#paint68_linear_258_10073)" stroke-linecap="round"/>
<path d="M49.5 338L136.5 425" stroke="url(#paint69_linear_258_10073)" stroke-linecap="round"/>
<path d="M655.5 15L742.5 102" stroke="url(#paint70_linear_258_10073)" stroke-linecap="round"/>
<path d="M655.5 228.5L742.5 315.5" stroke="url(#paint71_linear_258_10073)" stroke-linecap="round"/>
<path d="M742 124.5L829 211.5" stroke="url(#paint72_linear_258_10073)" stroke-linecap="round"/>
<path d="M742 338L829 425" stroke="url(#paint73_linear_258_10073)" stroke-linecap="round"/>
<path d="M309.5 15L396.5 102" stroke="url(#paint74_linear_258_10073)" stroke-linecap="round"/>
<path d="M309.5 228.5L396.5 315.5" stroke="url(#paint75_linear_258_10073)" stroke-linecap="round"/>
<path d="M396 124.5L483 211.5" stroke="url(#paint76_linear_258_10073)" stroke-linecap="round"/>
<path d="M396 338L483 425" stroke="url(#paint77_linear_258_10073)" stroke-linecap="round"/>
<path d="M1002 15L1089 102" stroke="url(#paint78_linear_258_10073)" stroke-linecap="round"/>
<path d="M1002 228.5L1089 315.5" stroke="url(#paint79_linear_258_10073)" stroke-linecap="round"/>
<path d="M1088.5 124.5L1175.5 211.5" stroke="url(#paint80_linear_258_10073)" stroke-linecap="round"/>
<path d="M1088.5 338L1175.5 425" stroke="url(#paint81_linear_258_10073)" stroke-linecap="round"/>
<path d="M136.5 15L223.5 102" stroke="url(#paint82_linear_258_10073)" stroke-linecap="round"/>
<path d="M136.5 228.5L223.5 315.5" stroke="url(#paint83_linear_258_10073)" stroke-linecap="round"/>
<path d="M223 124.5L310 211.5" stroke="url(#paint84_linear_258_10073)" stroke-linecap="round"/>
<path d="M223 338L310 425" stroke="url(#paint85_linear_258_10073)" stroke-linecap="round"/>
<path d="M829 15L916 102" stroke="url(#paint86_linear_258_10073)" stroke-linecap="round"/>
<path d="M829 228.5L916 315.5" stroke="url(#paint87_linear_258_10073)" stroke-linecap="round"/>
<path d="M915.5 124.5L1002.5 211.5" stroke="url(#paint88_linear_258_10073)" stroke-linecap="round"/>
<path d="M915.5 338L1002.5 425" stroke="url(#paint89_linear_258_10073)" stroke-linecap="round"/>
<path d="M483 15L570 102" stroke="url(#paint90_linear_258_10073)" stroke-linecap="round"/>
<path d="M483 228.5L570 315.5" stroke="url(#paint91_linear_258_10073)" stroke-linecap="round"/>
<path d="M569.5 124.5L656.5 211.5" stroke="url(#paint92_linear_258_10073)" stroke-linecap="round"/>
<path d="M569.5 338L656.5 425" stroke="url(#paint93_linear_258_10073)" stroke-linecap="round"/>
<path d="M1175.5 15L1262.5 102" stroke="url(#paint94_linear_258_10073)" stroke-linecap="round"/>
<path d="M1175.5 228.5L1262.5 315.5" stroke="url(#paint95_linear_258_10073)" stroke-linecap="round"/>
<path d="M1262 124.5L1349 211.5" stroke="url(#paint96_linear_258_10073)" stroke-linecap="round"/>
<path d="M1262 338L1349 425" stroke="url(#paint97_linear_258_10073)" stroke-linecap="round"/>
<path d="M136.5 15L49.5 102" stroke="url(#paint98_linear_258_10073)" stroke-linecap="round"/>
<path d="M136.5 228.5L49.5 315.5" stroke="url(#paint99_linear_258_10073)" stroke-linecap="round"/>
<path d="M223 124.5L136 211.5" stroke="url(#paint100_linear_258_10073)" stroke-linecap="round"/>
<path d="M223 338L136 425" stroke="url(#paint101_linear_258_10073)" stroke-linecap="round"/>
<path d="M829 15L742 102" stroke="url(#paint102_linear_258_10073)" stroke-linecap="round"/>
<path d="M829 228.5L742 315.5" stroke="url(#paint103_linear_258_10073)" stroke-linecap="round"/>
<path d="M915.5 124.5L828.5 211.5" stroke="url(#paint104_linear_258_10073)" stroke-linecap="round"/>
<path d="M915.5 338L828.5 425" stroke="url(#paint105_linear_258_10073)" stroke-linecap="round"/>
<path d="M483 15L396 102" stroke="url(#paint106_linear_258_10073)" stroke-linecap="round"/>
<path d="M483 228.5L396 315.5" stroke="url(#paint107_linear_258_10073)" stroke-linecap="round"/>
<path d="M569.5 124.5L482.5 211.5" stroke="url(#paint108_linear_258_10073)" stroke-linecap="round"/>
<path d="M569.5 338L482.5 425" stroke="url(#paint109_linear_258_10073)" stroke-linecap="round"/>
<path d="M1175.5 15L1088.5 102" stroke="url(#paint110_linear_258_10073)" stroke-linecap="round"/>
<path d="M1175.5 228.5L1088.5 315.5" stroke="url(#paint111_linear_258_10073)" stroke-linecap="round"/>
<path d="M1262 124.5L1175 211.5" stroke="url(#paint112_linear_258_10073)" stroke-linecap="round"/>
<path d="M1262 338L1175 425" stroke="url(#paint113_linear_258_10073)" stroke-linecap="round"/>
<path d="M310 15L223 102" stroke="url(#paint114_linear_258_10073)" stroke-linecap="round"/>
<path d="M310 228.5L223 315.5" stroke="url(#paint115_linear_258_10073)" stroke-linecap="round"/>
<path d="M396.5 124.5L309.5 211.5" stroke="url(#paint116_linear_258_10073)" stroke-linecap="round"/>
<path d="M396.5 338L309.5 425" stroke="url(#paint117_linear_258_10073)" stroke-linecap="round"/>
<path d="M1002.5 15L915.5 102" stroke="url(#paint118_linear_258_10073)" stroke-linecap="round"/>
<path d="M1002.5 228.5L915.5 315.5" stroke="url(#paint119_linear_258_10073)" stroke-linecap="round"/>
<path d="M1089 124.5L1002 211.5" stroke="url(#paint120_linear_258_10073)" stroke-linecap="round"/>
<path d="M1089 338L1002 425" stroke="url(#paint121_linear_258_10073)" stroke-linecap="round"/>
<path d="M656.5 15L569.5 102" stroke="url(#paint122_linear_258_10073)" stroke-linecap="round"/>
<path d="M656.5 228.5L569.5 315.5" stroke="url(#paint123_linear_258_10073)" stroke-linecap="round"/>
<path d="M743 124.5L656 211.5" stroke="url(#paint124_linear_258_10073)" stroke-linecap="round"/>
<path d="M743 338L656 425" stroke="url(#paint125_linear_258_10073)" stroke-linecap="round"/>
<path d="M1349 15L1262 102" stroke="url(#paint126_linear_258_10073)" stroke-linecap="round"/>
<path d="M1349 228.5L1262 315.5" stroke="url(#paint127_linear_258_10073)" stroke-linecap="round"/>
</g>
<defs>
<linearGradient id="paint0_linear_258_10073" x1="-32.5" y1="102.5" x2="49.5" y2="15.5" gradientUnits="userSpaceOnUse">
<stop/>
<stop offset="1" stop-color="#666666"/>
</linearGradient>
<linearGradient id="paint1_linear_258_10073" x1="-32.5" y1="316" x2="49.5" y2="229" gradientUnits="userSpaceOnUse">
<stop/>
<stop offset="1" stop-color="#666666"/>
</linearGradient>
<linearGradient id="paint2_linear_258_10073" x1="45.5" y1="212" x2="-36.5" y2="125" gradientUnits="userSpaceOnUse">
<stop/>
<stop offset="1" stop-color="#666666"/>
</linearGradient>
<linearGradient id="paint3_linear_258_10073" x1="45.5" y1="425.5" x2="-36.5" y2="338.5" gradientUnits="userSpaceOnUse">
<stop/>
<stop offset="1" stop-color="#666666"/>
</linearGradient>
<linearGradient id="paint4_linear_258_10073" x1="54" y1="212" x2="136" y2="125" gradientUnits="userSpaceOnUse">
<stop/>
<stop offset="1" stop-color="#666666"/>
</linearGradient>
<linearGradient id="paint5_linear_258_10073" x1="54" y1="425.5" x2="136" y2="338.5" gradientUnits="userSpaceOnUse">
<stop/>
<stop offset="1" stop-color="#666666"/>
</linearGradient>
<linearGradient id="paint6_linear_258_10073" x1="660" y1="102.5" x2="742" y2="15.5" gradientUnits="userSpaceOnUse">
<stop/>
<stop offset="1" stop-color="#666666"/>
</linearGradient>
<linearGradient id="paint7_linear_258_10073" x1="660" y1="316" x2="742" y2="229" gradientUnits="userSpaceOnUse">
<stop/>
<stop offset="1" stop-color="#666666"/>
</linearGradient>
<linearGradient id="paint8_linear_258_10073" x1="746.5" y1="212" x2="828.5" y2="125" gradientUnits="userSpaceOnUse">
<stop/>
<stop offset="1" stop-color="#666666"/>
</linearGradient>
<linearGradient id="paint9_linear_258_10073" x1="746.5" y1="425.5" x2="828.5" y2="338.5" gradientUnits="userSpaceOnUse">
<stop/>
<stop offset="1" stop-color="#666666"/>
</linearGradient>
<linearGradient id="paint10_linear_258_10073" x1="314" y1="102.5" x2="396" y2="15.5" gradientUnits="userSpaceOnUse">
<stop/>
<stop offset="1" stop-color="#666666"/>
</linearGradient>
<linearGradient id="paint11_linear_258_10073" x1="314" y1="316" x2="396" y2="229" gradientUnits="userSpaceOnUse">
<stop/>
<stop offset="1" stop-color="#666666"/>
</linearGradient>
<linearGradient id="paint12_linear_258_10073" x1="400.5" y1="212" x2="482.5" y2="125" gradientUnits="userSpaceOnUse">
<stop/>
<stop offset="1" stop-color="#666666"/>
</linearGradient>
<linearGradient id="paint13_linear_258_10073" x1="400.5" y1="425.5" x2="482.5" y2="338.5" gradientUnits="userSpaceOnUse">
<stop/>
<stop offset="1" stop-color="#666666"/>
</linearGradient>
<linearGradient id="paint14_linear_258_10073" x1="1006.5" y1="102.5" x2="1088.5" y2="15.5" gradientUnits="userSpaceOnUse">
<stop/>
<stop offset="1" stop-color="#666666"/>
</linearGradient>
<linearGradient id="paint15_linear_258_10073" x1="1006.5" y1="316" x2="1088.5" y2="229" gradientUnits="userSpaceOnUse">
<stop/>
<stop offset="1" stop-color="#666666"/>
</linearGradient>
<linearGradient id="paint16_linear_258_10073" x1="1093" y1="212" x2="1175" y2="125" gradientUnits="userSpaceOnUse">
<stop/>
<stop offset="1" stop-color="#666666"/>
</linearGradient>
<linearGradient id="paint17_linear_258_10073" x1="1093" y1="425.5" x2="1175" y2="338.5" gradientUnits="userSpaceOnUse">
<stop/>
<stop offset="1" stop-color="#666666"/>
</linearGradient>
<linearGradient id="paint18_linear_258_10073" x1="141" y1="102.5" x2="223" y2="15.5" gradientUnits="userSpaceOnUse">
<stop/>
<stop offset="1" stop-color="#666666"/>
</linearGradient>
<linearGradient id="paint19_linear_258_10073" x1="141" y1="316" x2="223" y2="229" gradientUnits="userSpaceOnUse">
<stop/>
<stop offset="1" stop-color="#666666"/>
</linearGradient>
<linearGradient id="paint20_linear_258_10073" x1="227.5" y1="212" x2="309.5" y2="125" gradientUnits="userSpaceOnUse">
<stop/>
<stop offset="1" stop-color="#666666"/>
</linearGradient>
<linearGradient id="paint21_linear_258_10073" x1="227.5" y1="425.5" x2="309.5" y2="338.5" gradientUnits="userSpaceOnUse">
<stop/>
<stop offset="1" stop-color="#666666"/>
</linearGradient>
<linearGradient id="paint22_linear_258_10073" x1="833.5" y1="102.5" x2="915.5" y2="15.5" gradientUnits="userSpaceOnUse">
<stop/>
<stop offset="1" stop-color="#666666"/>
</linearGradient>
<linearGradient id="paint23_linear_258_10073" x1="833.5" y1="316" x2="915.5" y2="229" gradientUnits="userSpaceOnUse">
<stop/>
<stop offset="1" stop-color="#666666"/>
</linearGradient>
<linearGradient id="paint24_linear_258_10073" x1="920" y1="212" x2="1002" y2="125" gradientUnits="userSpaceOnUse">
<stop/>
<stop offset="1" stop-color="#666666"/>
</linearGradient>
<linearGradient id="paint25_linear_258_10073" x1="920" y1="425.5" x2="1002" y2="338.5" gradientUnits="userSpaceOnUse">
<stop/>
<stop offset="1" stop-color="#666666"/>
</linearGradient>
<linearGradient id="paint26_linear_258_10073" x1="487.5" y1="102.5" x2="569.5" y2="15.5" gradientUnits="userSpaceOnUse">
<stop/>
<stop offset="1" stop-color="#666666"/>
</linearGradient>
<linearGradient id="paint27_linear_258_10073" x1="487.5" y1="316" x2="569.5" y2="229" gradientUnits="userSpaceOnUse">
<stop/>
<stop offset="1" stop-color="#666666"/>
</linearGradient>
<linearGradient id="paint28_linear_258_10073" x1="574" y1="212" x2="656" y2="125" gradientUnits="userSpaceOnUse">
<stop/>
<stop offset="1" stop-color="#666666"/>
</linearGradient>
<linearGradient id="paint29_linear_258_10073" x1="574" y1="425.5" x2="656" y2="338.5" gradientUnits="userSpaceOnUse">
<stop/>
<stop offset="1" stop-color="#666666"/>
</linearGradient>
<linearGradient id="paint30_linear_258_10073" x1="1180" y1="102.5" x2="1262" y2="15.5" gradientUnits="userSpaceOnUse">
<stop/>
<stop offset="1" stop-color="#666666"/>
</linearGradient>
<linearGradient id="paint31_linear_258_10073" x1="1180" y1="316" x2="1262" y2="229" gradientUnits="userSpaceOnUse">
<stop/>
<stop offset="1" stop-color="#666666"/>
</linearGradient>
<linearGradient id="paint32_linear_258_10073" x1="1266.5" y1="212" x2="1348.5" y2="125" gradientUnits="userSpaceOnUse">
<stop/>
<stop offset="1" stop-color="#666666"/>
</linearGradient>
<linearGradient id="paint33_linear_258_10073" x1="1266.5" y1="425.5" x2="1348.5" y2="338.5" gradientUnits="userSpaceOnUse">
<stop/>
<stop offset="1" stop-color="#666666"/>
</linearGradient>
<linearGradient id="paint34_linear_258_10073" x1="132" y1="102.5" x2="50" y2="15.5" gradientUnits="userSpaceOnUse">
<stop/>
<stop offset="1" stop-color="#666666"/>
</linearGradient>
<linearGradient id="paint35_linear_258_10073" x1="132" y1="316" x2="50" y2="229" gradientUnits="userSpaceOnUse">
<stop/>
<stop offset="1" stop-color="#666666"/>
</linearGradient>
<linearGradient id="paint36_linear_258_10073" x1="218.5" y1="212" x2="136.5" y2="125" gradientUnits="userSpaceOnUse">
<stop/>
<stop offset="1" stop-color="#666666"/>
</linearGradient>
<linearGradient id="paint37_linear_258_10073" x1="218.5" y1="425.5" x2="136.5" y2="338.5" gradientUnits="userSpaceOnUse">
<stop/>
<stop offset="1" stop-color="#666666"/>
</linearGradient>
<linearGradient id="paint38_linear_258_10073" x1="824.5" y1="102.5" x2="742.5" y2="15.5" gradientUnits="userSpaceOnUse">
<stop/>
<stop offset="1" stop-color="#666666"/>
</linearGradient>
<linearGradient id="paint39_linear_258_10073" x1="824.5" y1="316" x2="742.5" y2="229" gradientUnits="userSpaceOnUse">
<stop/>
<stop offset="1" stop-color="#666666"/>
</linearGradient>
<linearGradient id="paint40_linear_258_10073" x1="911" y1="212" x2="829" y2="125" gradientUnits="userSpaceOnUse">
<stop/>
<stop offset="1" stop-color="#666666"/>
</linearGradient>
<linearGradient id="paint41_linear_258_10073" x1="911" y1="425.5" x2="829" y2="338.5" gradientUnits="userSpaceOnUse">
<stop/>
<stop offset="1" stop-color="#666666"/>
</linearGradient>
<linearGradient id="paint42_linear_258_10073" x1="478.5" y1="102.5" x2="396.5" y2="15.5" gradientUnits="userSpaceOnUse">
<stop/>
<stop offset="1" stop-color="#666666"/>
</linearGradient>
<linearGradient id="paint43_linear_258_10073" x1="478.5" y1="316" x2="396.5" y2="229" gradientUnits="userSpaceOnUse">
<stop/>
<stop offset="1" stop-color="#666666"/>
</linearGradient>
<linearGradient id="paint44_linear_258_10073" x1="565" y1="212" x2="483" y2="125" gradientUnits="userSpaceOnUse">
<stop/>
<stop offset="1" stop-color="#666666"/>
</linearGradient>
<linearGradient id="paint45_linear_258_10073" x1="565" y1="425.5" x2="483" y2="338.5" gradientUnits="userSpaceOnUse">
<stop/>
<stop offset="1" stop-color="#666666"/>
</linearGradient>
<linearGradient id="paint46_linear_258_10073" x1="1171" y1="102.5" x2="1089" y2="15.5" gradientUnits="userSpaceOnUse">
<stop/>
<stop offset="1" stop-color="#666666"/>
</linearGradient>
<linearGradient id="paint47_linear_258_10073" x1="1171" y1="316" x2="1089" y2="229" gradientUnits="userSpaceOnUse">
<stop/>
<stop offset="1" stop-color="#666666"/>
</linearGradient>
<linearGradient id="paint48_linear_258_10073" x1="1257.5" y1="212" x2="1175.5" y2="125" gradientUnits="userSpaceOnUse">
<stop/>
<stop offset="1" stop-color="#666666"/>
</linearGradient>
<linearGradient id="paint49_linear_258_10073" x1="1257.5" y1="425.5" x2="1175.5" y2="338.5" gradientUnits="userSpaceOnUse">
<stop/>
<stop offset="1" stop-color="#666666"/>
</linearGradient>
<linearGradient id="paint50_linear_258_10073" x1="305.5" y1="102.5" x2="223.5" y2="15.5" gradientUnits="userSpaceOnUse">
<stop/>
<stop offset="1" stop-color="#666666"/>
</linearGradient>
<linearGradient id="paint51_linear_258_10073" x1="305.5" y1="316" x2="223.5" y2="229" gradientUnits="userSpaceOnUse">
<stop/>
<stop offset="1" stop-color="#666666"/>
</linearGradient>
<linearGradient id="paint52_linear_258_10073" x1="392" y1="212" x2="310" y2="125" gradientUnits="userSpaceOnUse">
<stop/>
<stop offset="1" stop-color="#666666"/>
</linearGradient>
<linearGradient id="paint53_linear_258_10073" x1="392" y1="425.5" x2="310" y2="338.5" gradientUnits="userSpaceOnUse">
<stop/>
<stop offset="1" stop-color="#666666"/>
</linearGradient>
<linearGradient id="paint54_linear_258_10073" x1="998" y1="102.5" x2="916" y2="15.5" gradientUnits="userSpaceOnUse">
<stop/>
<stop offset="1" stop-color="#666666"/>
</linearGradient>
<linearGradient id="paint55_linear_258_10073" x1="998" y1="316" x2="916" y2="229" gradientUnits="userSpaceOnUse">
<stop/>
<stop offset="1" stop-color="#666666"/>
</linearGradient>
<linearGradient id="paint56_linear_258_10073" x1="1084.5" y1="212" x2="1002.5" y2="125" gradientUnits="userSpaceOnUse">
<stop/>
<stop offset="1" stop-color="#666666"/>
</linearGradient>
<linearGradient id="paint57_linear_258_10073" x1="1084.5" y1="425.5" x2="1002.5" y2="338.5" gradientUnits="userSpaceOnUse">
<stop/>
<stop offset="1" stop-color="#666666"/>
</linearGradient>
<linearGradient id="paint58_linear_258_10073" x1="652" y1="102.5" x2="570" y2="15.5" gradientUnits="userSpaceOnUse">
<stop/>
<stop offset="1" stop-color="#666666"/>
</linearGradient>
<linearGradient id="paint59_linear_258_10073" x1="652" y1="316" x2="570" y2="229" gradientUnits="userSpaceOnUse">
<stop/>
<stop offset="1" stop-color="#666666"/>
</linearGradient>
<linearGradient id="paint60_linear_258_10073" x1="738.5" y1="212" x2="656.5" y2="125" gradientUnits="userSpaceOnUse">
<stop/>
<stop offset="1" stop-color="#666666"/>
</linearGradient>
<linearGradient id="paint61_linear_258_10073" x1="738.5" y1="425.5" x2="656.5" y2="338.5" gradientUnits="userSpaceOnUse">
<stop/>
<stop offset="1" stop-color="#666666"/>
</linearGradient>
<linearGradient id="paint62_linear_258_10073" x1="1344.5" y1="102.5" x2="1262.5" y2="15.5" gradientUnits="userSpaceOnUse">
<stop/>
<stop offset="1" stop-color="#666666"/>
</linearGradient>
<linearGradient id="paint63_linear_258_10073" x1="1344.5" y1="316" x2="1262.5" y2="229" gradientUnits="userSpaceOnUse">
<stop/>
<stop offset="1" stop-color="#666666"/>
</linearGradient>
<linearGradient id="paint64_linear_258_10073" x1="6.5" y1="15" x2="6.5" y2="102" gradientUnits="userSpaceOnUse">
<stop/>
<stop offset="1" stop-color="#666666"/>
</linearGradient>
<linearGradient id="paint65_linear_258_10073" x1="6.5" y1="228.5" x2="6.5" y2="315.5" gradientUnits="userSpaceOnUse">
<stop/>
<stop offset="1" stop-color="#666666"/>
</linearGradient>
<linearGradient id="paint66_linear_258_10073" x1="6.5" y1="124.5" x2="6.5" y2="211.5" gradientUnits="userSpaceOnUse">
<stop/>
<stop offset="1" stop-color="#666666"/>
</linearGradient>
<linearGradient id="paint67_linear_258_10073" x1="6.5" y1="338" x2="6.5" y2="425" gradientUnits="userSpaceOnUse">
<stop/>
<stop offset="1" stop-color="#666666"/>
</linearGradient>
<linearGradient id="paint68_linear_258_10073" x1="93" y1="124.5" x2="93" y2="211.5" gradientUnits="userSpaceOnUse">
<stop/>
<stop offset="1" stop-color="#666666"/>
</linearGradient>
<linearGradient id="paint69_linear_258_10073" x1="93" y1="338" x2="93" y2="425" gradientUnits="userSpaceOnUse">
<stop/>
<stop offset="1" stop-color="#666666"/>
</linearGradient>
<linearGradient id="paint70_linear_258_10073" x1="699" y1="15" x2="699" y2="102" gradientUnits="userSpaceOnUse">
<stop/>
<stop offset="1" stop-color="#666666"/>
</linearGradient>
<linearGradient id="paint71_linear_258_10073" x1="699" y1="228.5" x2="699" y2="315.5" gradientUnits="userSpaceOnUse">
<stop/>
<stop offset="1" stop-color="#666666"/>
</linearGradient>
<linearGradient id="paint72_linear_258_10073" x1="785.5" y1="124.5" x2="785.5" y2="211.5" gradientUnits="userSpaceOnUse">
<stop/>
<stop offset="1" stop-color="#666666"/>
</linearGradient>
<linearGradient id="paint73_linear_258_10073" x1="785.5" y1="338" x2="785.5" y2="425" gradientUnits="userSpaceOnUse">
<stop/>
<stop offset="1" stop-color="#666666"/>
</linearGradient>
<linearGradient id="paint74_linear_258_10073" x1="353" y1="15" x2="353" y2="102" gradientUnits="userSpaceOnUse">
<stop/>
<stop offset="1" stop-color="#666666"/>
</linearGradient>
<linearGradient id="paint75_linear_258_10073" x1="353" y1="228.5" x2="353" y2="315.5" gradientUnits="userSpaceOnUse">
<stop/>
<stop offset="1" stop-color="#666666"/>
</linearGradient>
<linearGradient id="paint76_linear_258_10073" x1="439.5" y1="124.5" x2="439.5" y2="211.5" gradientUnits="userSpaceOnUse">
<stop/>
<stop offset="1" stop-color="#666666"/>
</linearGradient>
<linearGradient id="paint77_linear_258_10073" x1="439.5" y1="338" x2="439.5" y2="425" gradientUnits="userSpaceOnUse">
<stop/>
<stop offset="1" stop-color="#666666"/>
</linearGradient>
<linearGradient id="paint78_linear_258_10073" x1="1045.5" y1="15" x2="1045.5" y2="102" gradientUnits="userSpaceOnUse">
<stop/>
<stop offset="1" stop-color="#666666"/>
</linearGradient>
<linearGradient id="paint79_linear_258_10073" x1="1045.5" y1="228.5" x2="1045.5" y2="315.5" gradientUnits="userSpaceOnUse">
<stop/>
<stop offset="1" stop-color="#666666"/>
</linearGradient>
<linearGradient id="paint80_linear_258_10073" x1="1132" y1="124.5" x2="1132" y2="211.5" gradientUnits="userSpaceOnUse">
<stop/>
<stop offset="1" stop-color="#666666"/>
</linearGradient>
<linearGradient id="paint81_linear_258_10073" x1="1132" y1="338" x2="1132" y2="425" gradientUnits="userSpaceOnUse">
<stop/>
<stop offset="1" stop-color="#666666"/>
</linearGradient>
<linearGradient id="paint82_linear_258_10073" x1="180" y1="15" x2="180" y2="102" gradientUnits="userSpaceOnUse">
<stop/>
<stop offset="1" stop-color="#666666"/>
</linearGradient>
<linearGradient id="paint83_linear_258_10073" x1="180" y1="228.5" x2="180" y2="315.5" gradientUnits="userSpaceOnUse">
<stop/>
<stop offset="1" stop-color="#666666"/>
</linearGradient>
<linearGradient id="paint84_linear_258_10073" x1="266.5" y1="124.5" x2="266.5" y2="211.5" gradientUnits="userSpaceOnUse">
<stop/>
<stop offset="1" stop-color="#666666"/>
</linearGradient>
<linearGradient id="paint85_linear_258_10073" x1="266.5" y1="338" x2="266.5" y2="425" gradientUnits="userSpaceOnUse">
<stop/>
<stop offset="1" stop-color="#666666"/>
</linearGradient>
<linearGradient id="paint86_linear_258_10073" x1="872.5" y1="15" x2="872.5" y2="102" gradientUnits="userSpaceOnUse">
<stop/>
<stop offset="1" stop-color="#666666"/>
</linearGradient>
<linearGradient id="paint87_linear_258_10073" x1="872.5" y1="228.5" x2="872.5" y2="315.5" gradientUnits="userSpaceOnUse">
<stop/>
<stop offset="1" stop-color="#666666"/>
</linearGradient>
<linearGradient id="paint88_linear_258_10073" x1="959" y1="124.5" x2="959" y2="211.5" gradientUnits="userSpaceOnUse">
<stop/>
<stop offset="1" stop-color="#666666"/>
</linearGradient>
<linearGradient id="paint89_linear_258_10073" x1="959" y1="338" x2="959" y2="425" gradientUnits="userSpaceOnUse">
<stop/>
<stop offset="1" stop-color="#666666"/>
</linearGradient>
<linearGradient id="paint90_linear_258_10073" x1="526.5" y1="15" x2="526.5" y2="102" gradientUnits="userSpaceOnUse">
<stop/>
<stop offset="1" stop-color="#666666"/>
</linearGradient>
<linearGradient id="paint91_linear_258_10073" x1="526.5" y1="228.5" x2="526.5" y2="315.5" gradientUnits="userSpaceOnUse">
<stop/>
<stop offset="1" stop-color="#666666"/>
</linearGradient>
<linearGradient id="paint92_linear_258_10073" x1="613" y1="124.5" x2="613" y2="211.5" gradientUnits="userSpaceOnUse">
<stop/>
<stop offset="1" stop-color="#666666"/>
</linearGradient>
<linearGradient id="paint93_linear_258_10073" x1="613" y1="338" x2="613" y2="425" gradientUnits="userSpaceOnUse">
<stop/>
<stop offset="1" stop-color="#666666"/>
</linearGradient>
<linearGradient id="paint94_linear_258_10073" x1="1219" y1="15" x2="1219" y2="102" gradientUnits="userSpaceOnUse">
<stop/>
<stop offset="1" stop-color="#666666"/>
</linearGradient>
<linearGradient id="paint95_linear_258_10073" x1="1219" y1="228.5" x2="1219" y2="315.5" gradientUnits="userSpaceOnUse">
<stop/>
<stop offset="1" stop-color="#666666"/>
</linearGradient>
<linearGradient id="paint96_linear_258_10073" x1="1305.5" y1="124.5" x2="1305.5" y2="211.5" gradientUnits="userSpaceOnUse">
<stop/>
<stop offset="1" stop-color="#666666"/>
</linearGradient>
<linearGradient id="paint97_linear_258_10073" x1="1305.5" y1="338" x2="1305.5" y2="425" gradientUnits="userSpaceOnUse">
<stop/>
<stop offset="1" stop-color="#666666"/>
</linearGradient>
<linearGradient id="paint98_linear_258_10073" x1="93" y1="15" x2="93" y2="102" gradientUnits="userSpaceOnUse">
<stop/>
<stop offset="1" stop-color="#666666"/>
</linearGradient>
<linearGradient id="paint99_linear_258_10073" x1="93" y1="228.5" x2="93" y2="315.5" gradientUnits="userSpaceOnUse">
<stop/>
<stop offset="1" stop-color="#666666"/>
</linearGradient>
<linearGradient id="paint100_linear_258_10073" x1="179.5" y1="124.5" x2="179.5" y2="211.5" gradientUnits="userSpaceOnUse">
<stop/>
<stop offset="1" stop-color="#666666"/>
</linearGradient>
<linearGradient id="paint101_linear_258_10073" x1="179.5" y1="338" x2="179.5" y2="425" gradientUnits="userSpaceOnUse">
<stop/>
<stop offset="1" stop-color="#666666"/>
</linearGradient>
<linearGradient id="paint102_linear_258_10073" x1="785.5" y1="15" x2="785.5" y2="102" gradientUnits="userSpaceOnUse">
<stop/>
<stop offset="1" stop-color="#666666"/>
</linearGradient>
<linearGradient id="paint103_linear_258_10073" x1="785.5" y1="228.5" x2="785.5" y2="315.5" gradientUnits="userSpaceOnUse">
<stop/>
<stop offset="1" stop-color="#666666"/>
</linearGradient>
<linearGradient id="paint104_linear_258_10073" x1="872" y1="124.5" x2="872" y2="211.5" gradientUnits="userSpaceOnUse">
<stop/>
<stop offset="1" stop-color="#666666"/>
</linearGradient>
<linearGradient id="paint105_linear_258_10073" x1="872" y1="338" x2="872" y2="425" gradientUnits="userSpaceOnUse">
<stop/>
<stop offset="1" stop-color="#666666"/>
</linearGradient>
<linearGradient id="paint106_linear_258_10073" x1="439.5" y1="15" x2="439.5" y2="102" gradientUnits="userSpaceOnUse">
<stop/>
<stop offset="1" stop-color="#666666"/>
</linearGradient>
<linearGradient id="paint107_linear_258_10073" x1="439.5" y1="228.5" x2="439.5" y2="315.5" gradientUnits="userSpaceOnUse">
<stop/>
<stop offset="1" stop-color="#666666"/>
</linearGradient>
<linearGradient id="paint108_linear_258_10073" x1="526" y1="124.5" x2="526" y2="211.5" gradientUnits="userSpaceOnUse">
<stop/>
<stop offset="1" stop-color="#666666"/>
</linearGradient>
<linearGradient id="paint109_linear_258_10073" x1="526" y1="338" x2="526" y2="425" gradientUnits="userSpaceOnUse">
<stop/>
<stop offset="1" stop-color="#666666"/>
</linearGradient>
<linearGradient id="paint110_linear_258_10073" x1="1132" y1="15" x2="1132" y2="102" gradientUnits="userSpaceOnUse">
<stop/>
<stop offset="1" stop-color="#666666"/>
</linearGradient>
<linearGradient id="paint111_linear_258_10073" x1="1132" y1="228.5" x2="1132" y2="315.5" gradientUnits="userSpaceOnUse">
<stop/>
<stop offset="1" stop-color="#666666"/>
</linearGradient>
<linearGradient id="paint112_linear_258_10073" x1="1218.5" y1="124.5" x2="1218.5" y2="211.5" gradientUnits="userSpaceOnUse">
<stop/>
<stop offset="1" stop-color="#666666"/>
</linearGradient>
<linearGradient id="paint113_linear_258_10073" x1="1218.5" y1="338" x2="1218.5" y2="425" gradientUnits="userSpaceOnUse">
<stop/>
<stop offset="1" stop-color="#666666"/>
</linearGradient>
<linearGradient id="paint114_linear_258_10073" x1="266.5" y1="15" x2="266.5" y2="102" gradientUnits="userSpaceOnUse">
<stop/>
<stop offset="1" stop-color="#666666"/>
</linearGradient>
<linearGradient id="paint115_linear_258_10073" x1="266.5" y1="228.5" x2="266.5" y2="315.5" gradientUnits="userSpaceOnUse">
<stop/>
<stop offset="1" stop-color="#666666"/>
</linearGradient>
<linearGradient id="paint116_linear_258_10073" x1="353" y1="124.5" x2="353" y2="211.5" gradientUnits="userSpaceOnUse">
<stop/>
<stop offset="1" stop-color="#666666"/>
</linearGradient>
<linearGradient id="paint117_linear_258_10073" x1="353" y1="338" x2="353" y2="425" gradientUnits="userSpaceOnUse">
<stop/>
<stop offset="1" stop-color="#666666"/>
</linearGradient>
<linearGradient id="paint118_linear_258_10073" x1="959" y1="15" x2="959" y2="102" gradientUnits="userSpaceOnUse">
<stop/>
<stop offset="1" stop-color="#666666"/>
</linearGradient>
<linearGradient id="paint119_linear_258_10073" x1="959" y1="228.5" x2="959" y2="315.5" gradientUnits="userSpaceOnUse">
<stop/>
<stop offset="1" stop-color="#666666"/>
</linearGradient>
<linearGradient id="paint120_linear_258_10073" x1="1045.5" y1="124.5" x2="1045.5" y2="211.5" gradientUnits="userSpaceOnUse">
<stop/>
<stop offset="1" stop-color="#666666"/>
</linearGradient>
<linearGradient id="paint121_linear_258_10073" x1="1045.5" y1="338" x2="1045.5" y2="425" gradientUnits="userSpaceOnUse">
<stop/>
<stop offset="1" stop-color="#666666"/>
</linearGradient>
<linearGradient id="paint122_linear_258_10073" x1="613" y1="15" x2="613" y2="102" gradientUnits="userSpaceOnUse">
<stop/>
<stop offset="1" stop-color="#666666"/>
</linearGradient>
<linearGradient id="paint123_linear_258_10073" x1="613" y1="228.5" x2="613" y2="315.5" gradientUnits="userSpaceOnUse">
<stop/>
<stop offset="1" stop-color="#666666"/>
</linearGradient>
<linearGradient id="paint124_linear_258_10073" x1="699.5" y1="124.5" x2="699.5" y2="211.5" gradientUnits="userSpaceOnUse">
<stop/>
<stop offset="1" stop-color="#666666"/>
</linearGradient>
<linearGradient id="paint125_linear_258_10073" x1="699.5" y1="338" x2="699.5" y2="425" gradientUnits="userSpaceOnUse">
<stop/>
<stop offset="1" stop-color="#666666"/>
</linearGradient>
<linearGradient id="paint126_linear_258_10073" x1="1305.5" y1="15" x2="1305.5" y2="102" gradientUnits="userSpaceOnUse">
<stop/>
<stop offset="1" stop-color="#666666"/>
</linearGradient>
<linearGradient id="paint127_linear_258_10073" x1="1305.5" y1="228.5" x2="1305.5" y2="315.5" gradientUnits="userSpaceOnUse">
<stop/>
<stop offset="1" stop-color="#666666"/>
</linearGradient>
<clipPath id="clip0_258_10073">
<rect width="1280" height="440" fill="white"/>
</clipPath>
</defs>
</svg>
